%TF.GenerationSoftware,KiCad,Pcbnew,7.0.10-7.0.10~ubuntu22.04.1*%
%TF.CreationDate,2024-06-08T07:05:10-07:00*%
%TF.ProjectId,rf_attenuator_r3,72665f61-7474-4656-9e75-61746f725f72,rev?*%
%TF.SameCoordinates,Original*%
%TF.FileFunction,Legend,Top*%
%TF.FilePolarity,Positive*%
%FSLAX46Y46*%
G04 Gerber Fmt 4.6, Leading zero omitted, Abs format (unit mm)*
G04 Created by KiCad (PCBNEW 7.0.10-7.0.10~ubuntu22.04.1) date 2024-06-08 07:05:10*
%MOMM*%
%LPD*%
G01*
G04 APERTURE LIST*
G04 Aperture macros list*
%AMRoundRect*
0 Rectangle with rounded corners*
0 $1 Rounding radius*
0 $2 $3 $4 $5 $6 $7 $8 $9 X,Y pos of 4 corners*
0 Add a 4 corners polygon primitive as box body*
4,1,4,$2,$3,$4,$5,$6,$7,$8,$9,$2,$3,0*
0 Add four circle primitives for the rounded corners*
1,1,$1+$1,$2,$3*
1,1,$1+$1,$4,$5*
1,1,$1+$1,$6,$7*
1,1,$1+$1,$8,$9*
0 Add four rect primitives between the rounded corners*
20,1,$1+$1,$2,$3,$4,$5,0*
20,1,$1+$1,$4,$5,$6,$7,0*
20,1,$1+$1,$6,$7,$8,$9,0*
20,1,$1+$1,$8,$9,$2,$3,0*%
G04 Aperture macros list end*
%ADD10C,0.300000*%
%ADD11C,0.150000*%
%ADD12C,0.120000*%
%ADD13RoundRect,0.249999X-0.450001X-1.425001X0.450001X-1.425001X0.450001X1.425001X-0.450001X1.425001X0*%
%ADD14R,2.500000X1.000000*%
%ADD15RoundRect,0.249999X-1.425001X0.450001X-1.425001X-0.450001X1.425001X-0.450001X1.425001X0.450001X0*%
%ADD16C,3.600000*%
%ADD17C,5.700000*%
%ADD18O,7.000000X3.500000*%
%ADD19O,2.500000X1.600000*%
G04 APERTURE END LIST*
D10*
X102129057Y-89616500D02*
X103271915Y-89616500D01*
X104771915Y-90187928D02*
X103914772Y-90187928D01*
X104343343Y-90187928D02*
X104343343Y-88687928D01*
X104343343Y-88687928D02*
X104200486Y-88902214D01*
X104200486Y-88902214D02*
X104057629Y-89045071D01*
X104057629Y-89045071D02*
X103914772Y-89116500D01*
X106557628Y-90187928D02*
X106557628Y-88687928D01*
X106557628Y-88687928D02*
X106914771Y-88687928D01*
X106914771Y-88687928D02*
X107129057Y-88759357D01*
X107129057Y-88759357D02*
X107271914Y-88902214D01*
X107271914Y-88902214D02*
X107343343Y-89045071D01*
X107343343Y-89045071D02*
X107414771Y-89330785D01*
X107414771Y-89330785D02*
X107414771Y-89545071D01*
X107414771Y-89545071D02*
X107343343Y-89830785D01*
X107343343Y-89830785D02*
X107271914Y-89973642D01*
X107271914Y-89973642D02*
X107129057Y-90116500D01*
X107129057Y-90116500D02*
X106914771Y-90187928D01*
X106914771Y-90187928D02*
X106557628Y-90187928D01*
X108557628Y-89402214D02*
X108771914Y-89473642D01*
X108771914Y-89473642D02*
X108843343Y-89545071D01*
X108843343Y-89545071D02*
X108914771Y-89687928D01*
X108914771Y-89687928D02*
X108914771Y-89902214D01*
X108914771Y-89902214D02*
X108843343Y-90045071D01*
X108843343Y-90045071D02*
X108771914Y-90116500D01*
X108771914Y-90116500D02*
X108629057Y-90187928D01*
X108629057Y-90187928D02*
X108057628Y-90187928D01*
X108057628Y-90187928D02*
X108057628Y-88687928D01*
X108057628Y-88687928D02*
X108557628Y-88687928D01*
X108557628Y-88687928D02*
X108700486Y-88759357D01*
X108700486Y-88759357D02*
X108771914Y-88830785D01*
X108771914Y-88830785D02*
X108843343Y-88973642D01*
X108843343Y-88973642D02*
X108843343Y-89116500D01*
X108843343Y-89116500D02*
X108771914Y-89259357D01*
X108771914Y-89259357D02*
X108700486Y-89330785D01*
X108700486Y-89330785D02*
X108557628Y-89402214D01*
X108557628Y-89402214D02*
X108057628Y-89402214D01*
X89360768Y-98097428D02*
X89075053Y-98097428D01*
X89075053Y-98097428D02*
X88932196Y-98168857D01*
X88932196Y-98168857D02*
X88860768Y-98240285D01*
X88860768Y-98240285D02*
X88717910Y-98454571D01*
X88717910Y-98454571D02*
X88646482Y-98740285D01*
X88646482Y-98740285D02*
X88646482Y-99311714D01*
X88646482Y-99311714D02*
X88717910Y-99454571D01*
X88717910Y-99454571D02*
X88789339Y-99526000D01*
X88789339Y-99526000D02*
X88932196Y-99597428D01*
X88932196Y-99597428D02*
X89217910Y-99597428D01*
X89217910Y-99597428D02*
X89360768Y-99526000D01*
X89360768Y-99526000D02*
X89432196Y-99454571D01*
X89432196Y-99454571D02*
X89503625Y-99311714D01*
X89503625Y-99311714D02*
X89503625Y-98954571D01*
X89503625Y-98954571D02*
X89432196Y-98811714D01*
X89432196Y-98811714D02*
X89360768Y-98740285D01*
X89360768Y-98740285D02*
X89217910Y-98668857D01*
X89217910Y-98668857D02*
X88932196Y-98668857D01*
X88932196Y-98668857D02*
X88789339Y-98740285D01*
X88789339Y-98740285D02*
X88717910Y-98811714D01*
X88717910Y-98811714D02*
X88646482Y-98954571D01*
X91217910Y-98026000D02*
X89932196Y-99954571D01*
X91932196Y-98740285D02*
X91789339Y-98668857D01*
X91789339Y-98668857D02*
X91717910Y-98597428D01*
X91717910Y-98597428D02*
X91646482Y-98454571D01*
X91646482Y-98454571D02*
X91646482Y-98383142D01*
X91646482Y-98383142D02*
X91717910Y-98240285D01*
X91717910Y-98240285D02*
X91789339Y-98168857D01*
X91789339Y-98168857D02*
X91932196Y-98097428D01*
X91932196Y-98097428D02*
X92217910Y-98097428D01*
X92217910Y-98097428D02*
X92360768Y-98168857D01*
X92360768Y-98168857D02*
X92432196Y-98240285D01*
X92432196Y-98240285D02*
X92503625Y-98383142D01*
X92503625Y-98383142D02*
X92503625Y-98454571D01*
X92503625Y-98454571D02*
X92432196Y-98597428D01*
X92432196Y-98597428D02*
X92360768Y-98668857D01*
X92360768Y-98668857D02*
X92217910Y-98740285D01*
X92217910Y-98740285D02*
X91932196Y-98740285D01*
X91932196Y-98740285D02*
X91789339Y-98811714D01*
X91789339Y-98811714D02*
X91717910Y-98883142D01*
X91717910Y-98883142D02*
X91646482Y-99026000D01*
X91646482Y-99026000D02*
X91646482Y-99311714D01*
X91646482Y-99311714D02*
X91717910Y-99454571D01*
X91717910Y-99454571D02*
X91789339Y-99526000D01*
X91789339Y-99526000D02*
X91932196Y-99597428D01*
X91932196Y-99597428D02*
X92217910Y-99597428D01*
X92217910Y-99597428D02*
X92360768Y-99526000D01*
X92360768Y-99526000D02*
X92432196Y-99454571D01*
X92432196Y-99454571D02*
X92503625Y-99311714D01*
X92503625Y-99311714D02*
X92503625Y-99026000D01*
X92503625Y-99026000D02*
X92432196Y-98883142D01*
X92432196Y-98883142D02*
X92360768Y-98811714D01*
X92360768Y-98811714D02*
X92217910Y-98740285D01*
X94217910Y-98026000D02*
X92932196Y-99954571D01*
X94646482Y-98240285D02*
X94717910Y-98168857D01*
X94717910Y-98168857D02*
X94860768Y-98097428D01*
X94860768Y-98097428D02*
X95217910Y-98097428D01*
X95217910Y-98097428D02*
X95360768Y-98168857D01*
X95360768Y-98168857D02*
X95432196Y-98240285D01*
X95432196Y-98240285D02*
X95503625Y-98383142D01*
X95503625Y-98383142D02*
X95503625Y-98526000D01*
X95503625Y-98526000D02*
X95432196Y-98740285D01*
X95432196Y-98740285D02*
X94575053Y-99597428D01*
X94575053Y-99597428D02*
X95503625Y-99597428D01*
X96789339Y-98597428D02*
X96789339Y-99597428D01*
X96432196Y-98026000D02*
X96075053Y-99097428D01*
X96075053Y-99097428D02*
X97003624Y-99097428D01*
X129761742Y-74289214D02*
X129261742Y-74289214D01*
X129261742Y-75074928D02*
X129261742Y-73574928D01*
X129261742Y-73574928D02*
X129976028Y-73574928D01*
X130833171Y-73574928D02*
X131118885Y-73574928D01*
X131118885Y-73574928D02*
X131261742Y-73646357D01*
X131261742Y-73646357D02*
X131404599Y-73789214D01*
X131404599Y-73789214D02*
X131476028Y-74074928D01*
X131476028Y-74074928D02*
X131476028Y-74574928D01*
X131476028Y-74574928D02*
X131404599Y-74860642D01*
X131404599Y-74860642D02*
X131261742Y-75003500D01*
X131261742Y-75003500D02*
X131118885Y-75074928D01*
X131118885Y-75074928D02*
X130833171Y-75074928D01*
X130833171Y-75074928D02*
X130690314Y-75003500D01*
X130690314Y-75003500D02*
X130547456Y-74860642D01*
X130547456Y-74860642D02*
X130476028Y-74574928D01*
X130476028Y-74574928D02*
X130476028Y-74074928D01*
X130476028Y-74074928D02*
X130547456Y-73789214D01*
X130547456Y-73789214D02*
X130690314Y-73646357D01*
X130690314Y-73646357D02*
X130833171Y-73574928D01*
X133261742Y-75074928D02*
X133261742Y-73574928D01*
X133261742Y-73574928D02*
X133618885Y-73574928D01*
X133618885Y-73574928D02*
X133833171Y-73646357D01*
X133833171Y-73646357D02*
X133976028Y-73789214D01*
X133976028Y-73789214D02*
X134047457Y-73932071D01*
X134047457Y-73932071D02*
X134118885Y-74217785D01*
X134118885Y-74217785D02*
X134118885Y-74432071D01*
X134118885Y-74432071D02*
X134047457Y-74717785D01*
X134047457Y-74717785D02*
X133976028Y-74860642D01*
X133976028Y-74860642D02*
X133833171Y-75003500D01*
X133833171Y-75003500D02*
X133618885Y-75074928D01*
X133618885Y-75074928D02*
X133261742Y-75074928D01*
X135333171Y-75003500D02*
X135190314Y-75074928D01*
X135190314Y-75074928D02*
X134904600Y-75074928D01*
X134904600Y-75074928D02*
X134761742Y-75003500D01*
X134761742Y-75003500D02*
X134690314Y-74860642D01*
X134690314Y-74860642D02*
X134690314Y-74289214D01*
X134690314Y-74289214D02*
X134761742Y-74146357D01*
X134761742Y-74146357D02*
X134904600Y-74074928D01*
X134904600Y-74074928D02*
X135190314Y-74074928D01*
X135190314Y-74074928D02*
X135333171Y-74146357D01*
X135333171Y-74146357D02*
X135404600Y-74289214D01*
X135404600Y-74289214D02*
X135404600Y-74432071D01*
X135404600Y-74432071D02*
X134690314Y-74574928D01*
X135976028Y-75003500D02*
X136118885Y-75074928D01*
X136118885Y-75074928D02*
X136404599Y-75074928D01*
X136404599Y-75074928D02*
X136547456Y-75003500D01*
X136547456Y-75003500D02*
X136618885Y-74860642D01*
X136618885Y-74860642D02*
X136618885Y-74789214D01*
X136618885Y-74789214D02*
X136547456Y-74646357D01*
X136547456Y-74646357D02*
X136404599Y-74574928D01*
X136404599Y-74574928D02*
X136190314Y-74574928D01*
X136190314Y-74574928D02*
X136047456Y-74503500D01*
X136047456Y-74503500D02*
X135976028Y-74360642D01*
X135976028Y-74360642D02*
X135976028Y-74289214D01*
X135976028Y-74289214D02*
X136047456Y-74146357D01*
X136047456Y-74146357D02*
X136190314Y-74074928D01*
X136190314Y-74074928D02*
X136404599Y-74074928D01*
X136404599Y-74074928D02*
X136547456Y-74146357D01*
X137261742Y-75074928D02*
X137261742Y-74074928D01*
X137261742Y-73574928D02*
X137190314Y-73646357D01*
X137190314Y-73646357D02*
X137261742Y-73717785D01*
X137261742Y-73717785D02*
X137333171Y-73646357D01*
X137333171Y-73646357D02*
X137261742Y-73574928D01*
X137261742Y-73574928D02*
X137261742Y-73717785D01*
X138618886Y-74074928D02*
X138618886Y-75289214D01*
X138618886Y-75289214D02*
X138547457Y-75432071D01*
X138547457Y-75432071D02*
X138476028Y-75503500D01*
X138476028Y-75503500D02*
X138333171Y-75574928D01*
X138333171Y-75574928D02*
X138118886Y-75574928D01*
X138118886Y-75574928D02*
X137976028Y-75503500D01*
X138618886Y-75003500D02*
X138476028Y-75074928D01*
X138476028Y-75074928D02*
X138190314Y-75074928D01*
X138190314Y-75074928D02*
X138047457Y-75003500D01*
X138047457Y-75003500D02*
X137976028Y-74932071D01*
X137976028Y-74932071D02*
X137904600Y-74789214D01*
X137904600Y-74789214D02*
X137904600Y-74360642D01*
X137904600Y-74360642D02*
X137976028Y-74217785D01*
X137976028Y-74217785D02*
X138047457Y-74146357D01*
X138047457Y-74146357D02*
X138190314Y-74074928D01*
X138190314Y-74074928D02*
X138476028Y-74074928D01*
X138476028Y-74074928D02*
X138618886Y-74146357D01*
X139333171Y-74074928D02*
X139333171Y-75074928D01*
X139333171Y-74217785D02*
X139404600Y-74146357D01*
X139404600Y-74146357D02*
X139547457Y-74074928D01*
X139547457Y-74074928D02*
X139761743Y-74074928D01*
X139761743Y-74074928D02*
X139904600Y-74146357D01*
X139904600Y-74146357D02*
X139976029Y-74289214D01*
X139976029Y-74289214D02*
X139976029Y-75074928D01*
X141690314Y-73574928D02*
X142047457Y-75074928D01*
X142047457Y-75074928D02*
X142333171Y-74003500D01*
X142333171Y-74003500D02*
X142618886Y-75074928D01*
X142618886Y-75074928D02*
X142976029Y-73574928D01*
X143761743Y-75074928D02*
X143618886Y-75003500D01*
X143618886Y-75003500D02*
X143547457Y-74932071D01*
X143547457Y-74932071D02*
X143476029Y-74789214D01*
X143476029Y-74789214D02*
X143476029Y-74360642D01*
X143476029Y-74360642D02*
X143547457Y-74217785D01*
X143547457Y-74217785D02*
X143618886Y-74146357D01*
X143618886Y-74146357D02*
X143761743Y-74074928D01*
X143761743Y-74074928D02*
X143976029Y-74074928D01*
X143976029Y-74074928D02*
X144118886Y-74146357D01*
X144118886Y-74146357D02*
X144190315Y-74217785D01*
X144190315Y-74217785D02*
X144261743Y-74360642D01*
X144261743Y-74360642D02*
X144261743Y-74789214D01*
X144261743Y-74789214D02*
X144190315Y-74932071D01*
X144190315Y-74932071D02*
X144118886Y-75003500D01*
X144118886Y-75003500D02*
X143976029Y-75074928D01*
X143976029Y-75074928D02*
X143761743Y-75074928D01*
X144904600Y-75074928D02*
X144904600Y-74074928D01*
X144904600Y-74360642D02*
X144976029Y-74217785D01*
X144976029Y-74217785D02*
X145047458Y-74146357D01*
X145047458Y-74146357D02*
X145190315Y-74074928D01*
X145190315Y-74074928D02*
X145333172Y-74074928D01*
X145833171Y-75074928D02*
X145833171Y-73574928D01*
X145976029Y-74503500D02*
X146404600Y-75074928D01*
X146404600Y-74074928D02*
X145833171Y-74646357D01*
X146976029Y-75003500D02*
X147118886Y-75074928D01*
X147118886Y-75074928D02*
X147404600Y-75074928D01*
X147404600Y-75074928D02*
X147547457Y-75003500D01*
X147547457Y-75003500D02*
X147618886Y-74860642D01*
X147618886Y-74860642D02*
X147618886Y-74789214D01*
X147618886Y-74789214D02*
X147547457Y-74646357D01*
X147547457Y-74646357D02*
X147404600Y-74574928D01*
X147404600Y-74574928D02*
X147190315Y-74574928D01*
X147190315Y-74574928D02*
X147047457Y-74503500D01*
X147047457Y-74503500D02*
X146976029Y-74360642D01*
X146976029Y-74360642D02*
X146976029Y-74289214D01*
X146976029Y-74289214D02*
X147047457Y-74146357D01*
X147047457Y-74146357D02*
X147190315Y-74074928D01*
X147190315Y-74074928D02*
X147404600Y-74074928D01*
X147404600Y-74074928D02*
X147547457Y-74146357D01*
X171137771Y-89616500D02*
X172280629Y-89616500D01*
X172923486Y-88830785D02*
X172994914Y-88759357D01*
X172994914Y-88759357D02*
X173137772Y-88687928D01*
X173137772Y-88687928D02*
X173494914Y-88687928D01*
X173494914Y-88687928D02*
X173637772Y-88759357D01*
X173637772Y-88759357D02*
X173709200Y-88830785D01*
X173709200Y-88830785D02*
X173780629Y-88973642D01*
X173780629Y-88973642D02*
X173780629Y-89116500D01*
X173780629Y-89116500D02*
X173709200Y-89330785D01*
X173709200Y-89330785D02*
X172852057Y-90187928D01*
X172852057Y-90187928D02*
X173780629Y-90187928D01*
X174709200Y-88687928D02*
X174852057Y-88687928D01*
X174852057Y-88687928D02*
X174994914Y-88759357D01*
X174994914Y-88759357D02*
X175066343Y-88830785D01*
X175066343Y-88830785D02*
X175137771Y-88973642D01*
X175137771Y-88973642D02*
X175209200Y-89259357D01*
X175209200Y-89259357D02*
X175209200Y-89616500D01*
X175209200Y-89616500D02*
X175137771Y-89902214D01*
X175137771Y-89902214D02*
X175066343Y-90045071D01*
X175066343Y-90045071D02*
X174994914Y-90116500D01*
X174994914Y-90116500D02*
X174852057Y-90187928D01*
X174852057Y-90187928D02*
X174709200Y-90187928D01*
X174709200Y-90187928D02*
X174566343Y-90116500D01*
X174566343Y-90116500D02*
X174494914Y-90045071D01*
X174494914Y-90045071D02*
X174423485Y-89902214D01*
X174423485Y-89902214D02*
X174352057Y-89616500D01*
X174352057Y-89616500D02*
X174352057Y-89259357D01*
X174352057Y-89259357D02*
X174423485Y-88973642D01*
X174423485Y-88973642D02*
X174494914Y-88830785D01*
X174494914Y-88830785D02*
X174566343Y-88759357D01*
X174566343Y-88759357D02*
X174709200Y-88687928D01*
X176994913Y-90187928D02*
X176994913Y-88687928D01*
X176994913Y-88687928D02*
X177352056Y-88687928D01*
X177352056Y-88687928D02*
X177566342Y-88759357D01*
X177566342Y-88759357D02*
X177709199Y-88902214D01*
X177709199Y-88902214D02*
X177780628Y-89045071D01*
X177780628Y-89045071D02*
X177852056Y-89330785D01*
X177852056Y-89330785D02*
X177852056Y-89545071D01*
X177852056Y-89545071D02*
X177780628Y-89830785D01*
X177780628Y-89830785D02*
X177709199Y-89973642D01*
X177709199Y-89973642D02*
X177566342Y-90116500D01*
X177566342Y-90116500D02*
X177352056Y-90187928D01*
X177352056Y-90187928D02*
X176994913Y-90187928D01*
X178994913Y-89402214D02*
X179209199Y-89473642D01*
X179209199Y-89473642D02*
X179280628Y-89545071D01*
X179280628Y-89545071D02*
X179352056Y-89687928D01*
X179352056Y-89687928D02*
X179352056Y-89902214D01*
X179352056Y-89902214D02*
X179280628Y-90045071D01*
X179280628Y-90045071D02*
X179209199Y-90116500D01*
X179209199Y-90116500D02*
X179066342Y-90187928D01*
X179066342Y-90187928D02*
X178494913Y-90187928D01*
X178494913Y-90187928D02*
X178494913Y-88687928D01*
X178494913Y-88687928D02*
X178994913Y-88687928D01*
X178994913Y-88687928D02*
X179137771Y-88759357D01*
X179137771Y-88759357D02*
X179209199Y-88830785D01*
X179209199Y-88830785D02*
X179280628Y-88973642D01*
X179280628Y-88973642D02*
X179280628Y-89116500D01*
X179280628Y-89116500D02*
X179209199Y-89259357D01*
X179209199Y-89259357D02*
X179137771Y-89330785D01*
X179137771Y-89330785D02*
X178994913Y-89402214D01*
X178994913Y-89402214D02*
X178494913Y-89402214D01*
X159377571Y-89489500D02*
X160520429Y-89489500D01*
X161163286Y-88703785D02*
X161234714Y-88632357D01*
X161234714Y-88632357D02*
X161377572Y-88560928D01*
X161377572Y-88560928D02*
X161734714Y-88560928D01*
X161734714Y-88560928D02*
X161877572Y-88632357D01*
X161877572Y-88632357D02*
X161949000Y-88703785D01*
X161949000Y-88703785D02*
X162020429Y-88846642D01*
X162020429Y-88846642D02*
X162020429Y-88989500D01*
X162020429Y-88989500D02*
X161949000Y-89203785D01*
X161949000Y-89203785D02*
X161091857Y-90060928D01*
X161091857Y-90060928D02*
X162020429Y-90060928D01*
X162949000Y-88560928D02*
X163091857Y-88560928D01*
X163091857Y-88560928D02*
X163234714Y-88632357D01*
X163234714Y-88632357D02*
X163306143Y-88703785D01*
X163306143Y-88703785D02*
X163377571Y-88846642D01*
X163377571Y-88846642D02*
X163449000Y-89132357D01*
X163449000Y-89132357D02*
X163449000Y-89489500D01*
X163449000Y-89489500D02*
X163377571Y-89775214D01*
X163377571Y-89775214D02*
X163306143Y-89918071D01*
X163306143Y-89918071D02*
X163234714Y-89989500D01*
X163234714Y-89989500D02*
X163091857Y-90060928D01*
X163091857Y-90060928D02*
X162949000Y-90060928D01*
X162949000Y-90060928D02*
X162806143Y-89989500D01*
X162806143Y-89989500D02*
X162734714Y-89918071D01*
X162734714Y-89918071D02*
X162663285Y-89775214D01*
X162663285Y-89775214D02*
X162591857Y-89489500D01*
X162591857Y-89489500D02*
X162591857Y-89132357D01*
X162591857Y-89132357D02*
X162663285Y-88846642D01*
X162663285Y-88846642D02*
X162734714Y-88703785D01*
X162734714Y-88703785D02*
X162806143Y-88632357D01*
X162806143Y-88632357D02*
X162949000Y-88560928D01*
X165234713Y-90060928D02*
X165234713Y-88560928D01*
X165234713Y-88560928D02*
X165591856Y-88560928D01*
X165591856Y-88560928D02*
X165806142Y-88632357D01*
X165806142Y-88632357D02*
X165948999Y-88775214D01*
X165948999Y-88775214D02*
X166020428Y-88918071D01*
X166020428Y-88918071D02*
X166091856Y-89203785D01*
X166091856Y-89203785D02*
X166091856Y-89418071D01*
X166091856Y-89418071D02*
X166020428Y-89703785D01*
X166020428Y-89703785D02*
X165948999Y-89846642D01*
X165948999Y-89846642D02*
X165806142Y-89989500D01*
X165806142Y-89989500D02*
X165591856Y-90060928D01*
X165591856Y-90060928D02*
X165234713Y-90060928D01*
X167234713Y-89275214D02*
X167448999Y-89346642D01*
X167448999Y-89346642D02*
X167520428Y-89418071D01*
X167520428Y-89418071D02*
X167591856Y-89560928D01*
X167591856Y-89560928D02*
X167591856Y-89775214D01*
X167591856Y-89775214D02*
X167520428Y-89918071D01*
X167520428Y-89918071D02*
X167448999Y-89989500D01*
X167448999Y-89989500D02*
X167306142Y-90060928D01*
X167306142Y-90060928D02*
X166734713Y-90060928D01*
X166734713Y-90060928D02*
X166734713Y-88560928D01*
X166734713Y-88560928D02*
X167234713Y-88560928D01*
X167234713Y-88560928D02*
X167377571Y-88632357D01*
X167377571Y-88632357D02*
X167448999Y-88703785D01*
X167448999Y-88703785D02*
X167520428Y-88846642D01*
X167520428Y-88846642D02*
X167520428Y-88989500D01*
X167520428Y-88989500D02*
X167448999Y-89132357D01*
X167448999Y-89132357D02*
X167377571Y-89203785D01*
X167377571Y-89203785D02*
X167234713Y-89275214D01*
X167234713Y-89275214D02*
X166734713Y-89275214D01*
X124836657Y-89413300D02*
X125979515Y-89413300D01*
X126550943Y-88484728D02*
X127479515Y-88484728D01*
X127479515Y-88484728D02*
X126979515Y-89056157D01*
X126979515Y-89056157D02*
X127193800Y-89056157D01*
X127193800Y-89056157D02*
X127336658Y-89127585D01*
X127336658Y-89127585D02*
X127408086Y-89199014D01*
X127408086Y-89199014D02*
X127479515Y-89341871D01*
X127479515Y-89341871D02*
X127479515Y-89699014D01*
X127479515Y-89699014D02*
X127408086Y-89841871D01*
X127408086Y-89841871D02*
X127336658Y-89913300D01*
X127336658Y-89913300D02*
X127193800Y-89984728D01*
X127193800Y-89984728D02*
X126765229Y-89984728D01*
X126765229Y-89984728D02*
X126622372Y-89913300D01*
X126622372Y-89913300D02*
X126550943Y-89841871D01*
X129265228Y-89984728D02*
X129265228Y-88484728D01*
X129265228Y-88484728D02*
X129622371Y-88484728D01*
X129622371Y-88484728D02*
X129836657Y-88556157D01*
X129836657Y-88556157D02*
X129979514Y-88699014D01*
X129979514Y-88699014D02*
X130050943Y-88841871D01*
X130050943Y-88841871D02*
X130122371Y-89127585D01*
X130122371Y-89127585D02*
X130122371Y-89341871D01*
X130122371Y-89341871D02*
X130050943Y-89627585D01*
X130050943Y-89627585D02*
X129979514Y-89770442D01*
X129979514Y-89770442D02*
X129836657Y-89913300D01*
X129836657Y-89913300D02*
X129622371Y-89984728D01*
X129622371Y-89984728D02*
X129265228Y-89984728D01*
X131265228Y-89199014D02*
X131479514Y-89270442D01*
X131479514Y-89270442D02*
X131550943Y-89341871D01*
X131550943Y-89341871D02*
X131622371Y-89484728D01*
X131622371Y-89484728D02*
X131622371Y-89699014D01*
X131622371Y-89699014D02*
X131550943Y-89841871D01*
X131550943Y-89841871D02*
X131479514Y-89913300D01*
X131479514Y-89913300D02*
X131336657Y-89984728D01*
X131336657Y-89984728D02*
X130765228Y-89984728D01*
X130765228Y-89984728D02*
X130765228Y-88484728D01*
X130765228Y-88484728D02*
X131265228Y-88484728D01*
X131265228Y-88484728D02*
X131408086Y-88556157D01*
X131408086Y-88556157D02*
X131479514Y-88627585D01*
X131479514Y-88627585D02*
X131550943Y-88770442D01*
X131550943Y-88770442D02*
X131550943Y-88913300D01*
X131550943Y-88913300D02*
X131479514Y-89056157D01*
X131479514Y-89056157D02*
X131408086Y-89127585D01*
X131408086Y-89127585D02*
X131265228Y-89199014D01*
X131265228Y-89199014D02*
X130765228Y-89199014D01*
X136622257Y-89641900D02*
X137765115Y-89641900D01*
X139122258Y-88713328D02*
X138836543Y-88713328D01*
X138836543Y-88713328D02*
X138693686Y-88784757D01*
X138693686Y-88784757D02*
X138622258Y-88856185D01*
X138622258Y-88856185D02*
X138479400Y-89070471D01*
X138479400Y-89070471D02*
X138407972Y-89356185D01*
X138407972Y-89356185D02*
X138407972Y-89927614D01*
X138407972Y-89927614D02*
X138479400Y-90070471D01*
X138479400Y-90070471D02*
X138550829Y-90141900D01*
X138550829Y-90141900D02*
X138693686Y-90213328D01*
X138693686Y-90213328D02*
X138979400Y-90213328D01*
X138979400Y-90213328D02*
X139122258Y-90141900D01*
X139122258Y-90141900D02*
X139193686Y-90070471D01*
X139193686Y-90070471D02*
X139265115Y-89927614D01*
X139265115Y-89927614D02*
X139265115Y-89570471D01*
X139265115Y-89570471D02*
X139193686Y-89427614D01*
X139193686Y-89427614D02*
X139122258Y-89356185D01*
X139122258Y-89356185D02*
X138979400Y-89284757D01*
X138979400Y-89284757D02*
X138693686Y-89284757D01*
X138693686Y-89284757D02*
X138550829Y-89356185D01*
X138550829Y-89356185D02*
X138479400Y-89427614D01*
X138479400Y-89427614D02*
X138407972Y-89570471D01*
X141050828Y-90213328D02*
X141050828Y-88713328D01*
X141050828Y-88713328D02*
X141407971Y-88713328D01*
X141407971Y-88713328D02*
X141622257Y-88784757D01*
X141622257Y-88784757D02*
X141765114Y-88927614D01*
X141765114Y-88927614D02*
X141836543Y-89070471D01*
X141836543Y-89070471D02*
X141907971Y-89356185D01*
X141907971Y-89356185D02*
X141907971Y-89570471D01*
X141907971Y-89570471D02*
X141836543Y-89856185D01*
X141836543Y-89856185D02*
X141765114Y-89999042D01*
X141765114Y-89999042D02*
X141622257Y-90141900D01*
X141622257Y-90141900D02*
X141407971Y-90213328D01*
X141407971Y-90213328D02*
X141050828Y-90213328D01*
X143050828Y-89427614D02*
X143265114Y-89499042D01*
X143265114Y-89499042D02*
X143336543Y-89570471D01*
X143336543Y-89570471D02*
X143407971Y-89713328D01*
X143407971Y-89713328D02*
X143407971Y-89927614D01*
X143407971Y-89927614D02*
X143336543Y-90070471D01*
X143336543Y-90070471D02*
X143265114Y-90141900D01*
X143265114Y-90141900D02*
X143122257Y-90213328D01*
X143122257Y-90213328D02*
X142550828Y-90213328D01*
X142550828Y-90213328D02*
X142550828Y-88713328D01*
X142550828Y-88713328D02*
X143050828Y-88713328D01*
X143050828Y-88713328D02*
X143193686Y-88784757D01*
X143193686Y-88784757D02*
X143265114Y-88856185D01*
X143265114Y-88856185D02*
X143336543Y-88999042D01*
X143336543Y-88999042D02*
X143336543Y-89141900D01*
X143336543Y-89141900D02*
X143265114Y-89284757D01*
X143265114Y-89284757D02*
X143193686Y-89356185D01*
X143193686Y-89356185D02*
X143050828Y-89427614D01*
X143050828Y-89427614D02*
X142550828Y-89427614D01*
X89144114Y-97350728D02*
X88644114Y-96636442D01*
X88286971Y-97350728D02*
X88286971Y-95850728D01*
X88286971Y-95850728D02*
X88858400Y-95850728D01*
X88858400Y-95850728D02*
X89001257Y-95922157D01*
X89001257Y-95922157D02*
X89072686Y-95993585D01*
X89072686Y-95993585D02*
X89144114Y-96136442D01*
X89144114Y-96136442D02*
X89144114Y-96350728D01*
X89144114Y-96350728D02*
X89072686Y-96493585D01*
X89072686Y-96493585D02*
X89001257Y-96565014D01*
X89001257Y-96565014D02*
X88858400Y-96636442D01*
X88858400Y-96636442D02*
X88286971Y-96636442D01*
X90358400Y-97279300D02*
X90215543Y-97350728D01*
X90215543Y-97350728D02*
X89929829Y-97350728D01*
X89929829Y-97350728D02*
X89786971Y-97279300D01*
X89786971Y-97279300D02*
X89715543Y-97136442D01*
X89715543Y-97136442D02*
X89715543Y-96565014D01*
X89715543Y-96565014D02*
X89786971Y-96422157D01*
X89786971Y-96422157D02*
X89929829Y-96350728D01*
X89929829Y-96350728D02*
X90215543Y-96350728D01*
X90215543Y-96350728D02*
X90358400Y-96422157D01*
X90358400Y-96422157D02*
X90429829Y-96565014D01*
X90429829Y-96565014D02*
X90429829Y-96707871D01*
X90429829Y-96707871D02*
X89715543Y-96850728D01*
X90929828Y-96350728D02*
X91286971Y-97350728D01*
X91286971Y-97350728D02*
X91644114Y-96350728D01*
X92215542Y-97207871D02*
X92286971Y-97279300D01*
X92286971Y-97279300D02*
X92215542Y-97350728D01*
X92215542Y-97350728D02*
X92144114Y-97279300D01*
X92144114Y-97279300D02*
X92215542Y-97207871D01*
X92215542Y-97207871D02*
X92215542Y-97350728D01*
X92215542Y-96422157D02*
X92286971Y-96493585D01*
X92286971Y-96493585D02*
X92215542Y-96565014D01*
X92215542Y-96565014D02*
X92144114Y-96493585D01*
X92144114Y-96493585D02*
X92215542Y-96422157D01*
X92215542Y-96422157D02*
X92215542Y-96565014D01*
X94358400Y-95850728D02*
X94501257Y-95850728D01*
X94501257Y-95850728D02*
X94644114Y-95922157D01*
X94644114Y-95922157D02*
X94715543Y-95993585D01*
X94715543Y-95993585D02*
X94786971Y-96136442D01*
X94786971Y-96136442D02*
X94858400Y-96422157D01*
X94858400Y-96422157D02*
X94858400Y-96779300D01*
X94858400Y-96779300D02*
X94786971Y-97065014D01*
X94786971Y-97065014D02*
X94715543Y-97207871D01*
X94715543Y-97207871D02*
X94644114Y-97279300D01*
X94644114Y-97279300D02*
X94501257Y-97350728D01*
X94501257Y-97350728D02*
X94358400Y-97350728D01*
X94358400Y-97350728D02*
X94215543Y-97279300D01*
X94215543Y-97279300D02*
X94144114Y-97207871D01*
X94144114Y-97207871D02*
X94072685Y-97065014D01*
X94072685Y-97065014D02*
X94001257Y-96779300D01*
X94001257Y-96779300D02*
X94001257Y-96422157D01*
X94001257Y-96422157D02*
X94072685Y-96136442D01*
X94072685Y-96136442D02*
X94144114Y-95993585D01*
X94144114Y-95993585D02*
X94215543Y-95922157D01*
X94215543Y-95922157D02*
X94358400Y-95850728D01*
X95501256Y-97207871D02*
X95572685Y-97279300D01*
X95572685Y-97279300D02*
X95501256Y-97350728D01*
X95501256Y-97350728D02*
X95429828Y-97279300D01*
X95429828Y-97279300D02*
X95501256Y-97207871D01*
X95501256Y-97207871D02*
X95501256Y-97350728D01*
X96072685Y-95850728D02*
X97001257Y-95850728D01*
X97001257Y-95850728D02*
X96501257Y-96422157D01*
X96501257Y-96422157D02*
X96715542Y-96422157D01*
X96715542Y-96422157D02*
X96858400Y-96493585D01*
X96858400Y-96493585D02*
X96929828Y-96565014D01*
X96929828Y-96565014D02*
X97001257Y-96707871D01*
X97001257Y-96707871D02*
X97001257Y-97065014D01*
X97001257Y-97065014D02*
X96929828Y-97207871D01*
X96929828Y-97207871D02*
X96858400Y-97279300D01*
X96858400Y-97279300D02*
X96715542Y-97350728D01*
X96715542Y-97350728D02*
X96286971Y-97350728D01*
X96286971Y-97350728D02*
X96144114Y-97279300D01*
X96144114Y-97279300D02*
X96072685Y-97207871D01*
X113025657Y-89260900D02*
X114168515Y-89260900D01*
X114811372Y-88475185D02*
X114882800Y-88403757D01*
X114882800Y-88403757D02*
X115025658Y-88332328D01*
X115025658Y-88332328D02*
X115382800Y-88332328D01*
X115382800Y-88332328D02*
X115525658Y-88403757D01*
X115525658Y-88403757D02*
X115597086Y-88475185D01*
X115597086Y-88475185D02*
X115668515Y-88618042D01*
X115668515Y-88618042D02*
X115668515Y-88760900D01*
X115668515Y-88760900D02*
X115597086Y-88975185D01*
X115597086Y-88975185D02*
X114739943Y-89832328D01*
X114739943Y-89832328D02*
X115668515Y-89832328D01*
X117454228Y-89832328D02*
X117454228Y-88332328D01*
X117454228Y-88332328D02*
X117811371Y-88332328D01*
X117811371Y-88332328D02*
X118025657Y-88403757D01*
X118025657Y-88403757D02*
X118168514Y-88546614D01*
X118168514Y-88546614D02*
X118239943Y-88689471D01*
X118239943Y-88689471D02*
X118311371Y-88975185D01*
X118311371Y-88975185D02*
X118311371Y-89189471D01*
X118311371Y-89189471D02*
X118239943Y-89475185D01*
X118239943Y-89475185D02*
X118168514Y-89618042D01*
X118168514Y-89618042D02*
X118025657Y-89760900D01*
X118025657Y-89760900D02*
X117811371Y-89832328D01*
X117811371Y-89832328D02*
X117454228Y-89832328D01*
X119454228Y-89046614D02*
X119668514Y-89118042D01*
X119668514Y-89118042D02*
X119739943Y-89189471D01*
X119739943Y-89189471D02*
X119811371Y-89332328D01*
X119811371Y-89332328D02*
X119811371Y-89546614D01*
X119811371Y-89546614D02*
X119739943Y-89689471D01*
X119739943Y-89689471D02*
X119668514Y-89760900D01*
X119668514Y-89760900D02*
X119525657Y-89832328D01*
X119525657Y-89832328D02*
X118954228Y-89832328D01*
X118954228Y-89832328D02*
X118954228Y-88332328D01*
X118954228Y-88332328D02*
X119454228Y-88332328D01*
X119454228Y-88332328D02*
X119597086Y-88403757D01*
X119597086Y-88403757D02*
X119668514Y-88475185D01*
X119668514Y-88475185D02*
X119739943Y-88618042D01*
X119739943Y-88618042D02*
X119739943Y-88760900D01*
X119739943Y-88760900D02*
X119668514Y-88903757D01*
X119668514Y-88903757D02*
X119597086Y-88975185D01*
X119597086Y-88975185D02*
X119454228Y-89046614D01*
X119454228Y-89046614D02*
X118954228Y-89046614D01*
X122532000Y-71214128D02*
X122032000Y-70499842D01*
X121674857Y-71214128D02*
X121674857Y-69714128D01*
X121674857Y-69714128D02*
X122246286Y-69714128D01*
X122246286Y-69714128D02*
X122389143Y-69785557D01*
X122389143Y-69785557D02*
X122460572Y-69856985D01*
X122460572Y-69856985D02*
X122532000Y-69999842D01*
X122532000Y-69999842D02*
X122532000Y-70214128D01*
X122532000Y-70214128D02*
X122460572Y-70356985D01*
X122460572Y-70356985D02*
X122389143Y-70428414D01*
X122389143Y-70428414D02*
X122246286Y-70499842D01*
X122246286Y-70499842D02*
X121674857Y-70499842D01*
X123674857Y-70428414D02*
X123174857Y-70428414D01*
X123174857Y-71214128D02*
X123174857Y-69714128D01*
X123174857Y-69714128D02*
X123889143Y-69714128D01*
X125532000Y-70785557D02*
X126246286Y-70785557D01*
X125389143Y-71214128D02*
X125889143Y-69714128D01*
X125889143Y-69714128D02*
X126389143Y-71214128D01*
X126674857Y-70214128D02*
X127246285Y-70214128D01*
X126889142Y-69714128D02*
X126889142Y-70999842D01*
X126889142Y-70999842D02*
X126960571Y-71142700D01*
X126960571Y-71142700D02*
X127103428Y-71214128D01*
X127103428Y-71214128D02*
X127246285Y-71214128D01*
X127532000Y-70214128D02*
X128103428Y-70214128D01*
X127746285Y-69714128D02*
X127746285Y-70999842D01*
X127746285Y-70999842D02*
X127817714Y-71142700D01*
X127817714Y-71142700D02*
X127960571Y-71214128D01*
X127960571Y-71214128D02*
X128103428Y-71214128D01*
X129174857Y-71142700D02*
X129032000Y-71214128D01*
X129032000Y-71214128D02*
X128746286Y-71214128D01*
X128746286Y-71214128D02*
X128603428Y-71142700D01*
X128603428Y-71142700D02*
X128532000Y-70999842D01*
X128532000Y-70999842D02*
X128532000Y-70428414D01*
X128532000Y-70428414D02*
X128603428Y-70285557D01*
X128603428Y-70285557D02*
X128746286Y-70214128D01*
X128746286Y-70214128D02*
X129032000Y-70214128D01*
X129032000Y-70214128D02*
X129174857Y-70285557D01*
X129174857Y-70285557D02*
X129246286Y-70428414D01*
X129246286Y-70428414D02*
X129246286Y-70571271D01*
X129246286Y-70571271D02*
X128532000Y-70714128D01*
X129889142Y-70214128D02*
X129889142Y-71214128D01*
X129889142Y-70356985D02*
X129960571Y-70285557D01*
X129960571Y-70285557D02*
X130103428Y-70214128D01*
X130103428Y-70214128D02*
X130317714Y-70214128D01*
X130317714Y-70214128D02*
X130460571Y-70285557D01*
X130460571Y-70285557D02*
X130532000Y-70428414D01*
X130532000Y-70428414D02*
X130532000Y-71214128D01*
X131889143Y-70214128D02*
X131889143Y-71214128D01*
X131246285Y-70214128D02*
X131246285Y-70999842D01*
X131246285Y-70999842D02*
X131317714Y-71142700D01*
X131317714Y-71142700D02*
X131460571Y-71214128D01*
X131460571Y-71214128D02*
X131674857Y-71214128D01*
X131674857Y-71214128D02*
X131817714Y-71142700D01*
X131817714Y-71142700D02*
X131889143Y-71071271D01*
X133246286Y-71214128D02*
X133246286Y-70428414D01*
X133246286Y-70428414D02*
X133174857Y-70285557D01*
X133174857Y-70285557D02*
X133032000Y-70214128D01*
X133032000Y-70214128D02*
X132746286Y-70214128D01*
X132746286Y-70214128D02*
X132603428Y-70285557D01*
X133246286Y-71142700D02*
X133103428Y-71214128D01*
X133103428Y-71214128D02*
X132746286Y-71214128D01*
X132746286Y-71214128D02*
X132603428Y-71142700D01*
X132603428Y-71142700D02*
X132532000Y-70999842D01*
X132532000Y-70999842D02*
X132532000Y-70856985D01*
X132532000Y-70856985D02*
X132603428Y-70714128D01*
X132603428Y-70714128D02*
X132746286Y-70642700D01*
X132746286Y-70642700D02*
X133103428Y-70642700D01*
X133103428Y-70642700D02*
X133246286Y-70571271D01*
X133746286Y-70214128D02*
X134317714Y-70214128D01*
X133960571Y-69714128D02*
X133960571Y-70999842D01*
X133960571Y-70999842D02*
X134032000Y-71142700D01*
X134032000Y-71142700D02*
X134174857Y-71214128D01*
X134174857Y-71214128D02*
X134317714Y-71214128D01*
X135032000Y-71214128D02*
X134889143Y-71142700D01*
X134889143Y-71142700D02*
X134817714Y-71071271D01*
X134817714Y-71071271D02*
X134746286Y-70928414D01*
X134746286Y-70928414D02*
X134746286Y-70499842D01*
X134746286Y-70499842D02*
X134817714Y-70356985D01*
X134817714Y-70356985D02*
X134889143Y-70285557D01*
X134889143Y-70285557D02*
X135032000Y-70214128D01*
X135032000Y-70214128D02*
X135246286Y-70214128D01*
X135246286Y-70214128D02*
X135389143Y-70285557D01*
X135389143Y-70285557D02*
X135460572Y-70356985D01*
X135460572Y-70356985D02*
X135532000Y-70499842D01*
X135532000Y-70499842D02*
X135532000Y-70928414D01*
X135532000Y-70928414D02*
X135460572Y-71071271D01*
X135460572Y-71071271D02*
X135389143Y-71142700D01*
X135389143Y-71142700D02*
X135246286Y-71214128D01*
X135246286Y-71214128D02*
X135032000Y-71214128D01*
X136174857Y-71214128D02*
X136174857Y-70214128D01*
X136174857Y-70499842D02*
X136246286Y-70356985D01*
X136246286Y-70356985D02*
X136317715Y-70285557D01*
X136317715Y-70285557D02*
X136460572Y-70214128D01*
X136460572Y-70214128D02*
X136603429Y-70214128D01*
X144876772Y-70095128D02*
X144591057Y-70095128D01*
X144591057Y-70095128D02*
X144448200Y-70166557D01*
X144448200Y-70166557D02*
X144376772Y-70237985D01*
X144376772Y-70237985D02*
X144233914Y-70452271D01*
X144233914Y-70452271D02*
X144162486Y-70737985D01*
X144162486Y-70737985D02*
X144162486Y-71309414D01*
X144162486Y-71309414D02*
X144233914Y-71452271D01*
X144233914Y-71452271D02*
X144305343Y-71523700D01*
X144305343Y-71523700D02*
X144448200Y-71595128D01*
X144448200Y-71595128D02*
X144733914Y-71595128D01*
X144733914Y-71595128D02*
X144876772Y-71523700D01*
X144876772Y-71523700D02*
X144948200Y-71452271D01*
X144948200Y-71452271D02*
X145019629Y-71309414D01*
X145019629Y-71309414D02*
X145019629Y-70952271D01*
X145019629Y-70952271D02*
X144948200Y-70809414D01*
X144948200Y-70809414D02*
X144876772Y-70737985D01*
X144876772Y-70737985D02*
X144733914Y-70666557D01*
X144733914Y-70666557D02*
X144448200Y-70666557D01*
X144448200Y-70666557D02*
X144305343Y-70737985D01*
X144305343Y-70737985D02*
X144233914Y-70809414D01*
X144233914Y-70809414D02*
X144162486Y-70952271D01*
X145591057Y-70237985D02*
X145662485Y-70166557D01*
X145662485Y-70166557D02*
X145805343Y-70095128D01*
X145805343Y-70095128D02*
X146162485Y-70095128D01*
X146162485Y-70095128D02*
X146305343Y-70166557D01*
X146305343Y-70166557D02*
X146376771Y-70237985D01*
X146376771Y-70237985D02*
X146448200Y-70380842D01*
X146448200Y-70380842D02*
X146448200Y-70523700D01*
X146448200Y-70523700D02*
X146376771Y-70737985D01*
X146376771Y-70737985D02*
X145519628Y-71595128D01*
X145519628Y-71595128D02*
X146448200Y-71595128D01*
X148233913Y-71595128D02*
X148233913Y-70095128D01*
X148233913Y-70095128D02*
X148591056Y-70095128D01*
X148591056Y-70095128D02*
X148805342Y-70166557D01*
X148805342Y-70166557D02*
X148948199Y-70309414D01*
X148948199Y-70309414D02*
X149019628Y-70452271D01*
X149019628Y-70452271D02*
X149091056Y-70737985D01*
X149091056Y-70737985D02*
X149091056Y-70952271D01*
X149091056Y-70952271D02*
X149019628Y-71237985D01*
X149019628Y-71237985D02*
X148948199Y-71380842D01*
X148948199Y-71380842D02*
X148805342Y-71523700D01*
X148805342Y-71523700D02*
X148591056Y-71595128D01*
X148591056Y-71595128D02*
X148233913Y-71595128D01*
X150233913Y-70809414D02*
X150448199Y-70880842D01*
X150448199Y-70880842D02*
X150519628Y-70952271D01*
X150519628Y-70952271D02*
X150591056Y-71095128D01*
X150591056Y-71095128D02*
X150591056Y-71309414D01*
X150591056Y-71309414D02*
X150519628Y-71452271D01*
X150519628Y-71452271D02*
X150448199Y-71523700D01*
X150448199Y-71523700D02*
X150305342Y-71595128D01*
X150305342Y-71595128D02*
X149733913Y-71595128D01*
X149733913Y-71595128D02*
X149733913Y-70095128D01*
X149733913Y-70095128D02*
X150233913Y-70095128D01*
X150233913Y-70095128D02*
X150376771Y-70166557D01*
X150376771Y-70166557D02*
X150448199Y-70237985D01*
X150448199Y-70237985D02*
X150519628Y-70380842D01*
X150519628Y-70380842D02*
X150519628Y-70523700D01*
X150519628Y-70523700D02*
X150448199Y-70666557D01*
X150448199Y-70666557D02*
X150376771Y-70737985D01*
X150376771Y-70737985D02*
X150233913Y-70809414D01*
X150233913Y-70809414D02*
X149733913Y-70809414D01*
X152162485Y-70095128D02*
X153019628Y-70095128D01*
X152591056Y-71595128D02*
X152591056Y-70095128D01*
X153733913Y-71595128D02*
X153591056Y-71523700D01*
X153591056Y-71523700D02*
X153519627Y-71452271D01*
X153519627Y-71452271D02*
X153448199Y-71309414D01*
X153448199Y-71309414D02*
X153448199Y-70880842D01*
X153448199Y-70880842D02*
X153519627Y-70737985D01*
X153519627Y-70737985D02*
X153591056Y-70666557D01*
X153591056Y-70666557D02*
X153733913Y-70595128D01*
X153733913Y-70595128D02*
X153948199Y-70595128D01*
X153948199Y-70595128D02*
X154091056Y-70666557D01*
X154091056Y-70666557D02*
X154162485Y-70737985D01*
X154162485Y-70737985D02*
X154233913Y-70880842D01*
X154233913Y-70880842D02*
X154233913Y-71309414D01*
X154233913Y-71309414D02*
X154162485Y-71452271D01*
X154162485Y-71452271D02*
X154091056Y-71523700D01*
X154091056Y-71523700D02*
X153948199Y-71595128D01*
X153948199Y-71595128D02*
X153733913Y-71595128D01*
X154662485Y-70595128D02*
X155233913Y-70595128D01*
X154876770Y-70095128D02*
X154876770Y-71380842D01*
X154876770Y-71380842D02*
X154948199Y-71523700D01*
X154948199Y-71523700D02*
X155091056Y-71595128D01*
X155091056Y-71595128D02*
X155233913Y-71595128D01*
X156376771Y-71595128D02*
X156376771Y-70809414D01*
X156376771Y-70809414D02*
X156305342Y-70666557D01*
X156305342Y-70666557D02*
X156162485Y-70595128D01*
X156162485Y-70595128D02*
X155876771Y-70595128D01*
X155876771Y-70595128D02*
X155733913Y-70666557D01*
X156376771Y-71523700D02*
X156233913Y-71595128D01*
X156233913Y-71595128D02*
X155876771Y-71595128D01*
X155876771Y-71595128D02*
X155733913Y-71523700D01*
X155733913Y-71523700D02*
X155662485Y-71380842D01*
X155662485Y-71380842D02*
X155662485Y-71237985D01*
X155662485Y-71237985D02*
X155733913Y-71095128D01*
X155733913Y-71095128D02*
X155876771Y-71023700D01*
X155876771Y-71023700D02*
X156233913Y-71023700D01*
X156233913Y-71023700D02*
X156376771Y-70952271D01*
X157305342Y-71595128D02*
X157162485Y-71523700D01*
X157162485Y-71523700D02*
X157091056Y-71380842D01*
X157091056Y-71380842D02*
X157091056Y-70095128D01*
X147134771Y-89591100D02*
X148277629Y-89591100D01*
X149777629Y-90162528D02*
X148920486Y-90162528D01*
X149349057Y-90162528D02*
X149349057Y-88662528D01*
X149349057Y-88662528D02*
X149206200Y-88876814D01*
X149206200Y-88876814D02*
X149063343Y-89019671D01*
X149063343Y-89019671D02*
X148920486Y-89091100D01*
X150706200Y-88662528D02*
X150849057Y-88662528D01*
X150849057Y-88662528D02*
X150991914Y-88733957D01*
X150991914Y-88733957D02*
X151063343Y-88805385D01*
X151063343Y-88805385D02*
X151134771Y-88948242D01*
X151134771Y-88948242D02*
X151206200Y-89233957D01*
X151206200Y-89233957D02*
X151206200Y-89591100D01*
X151206200Y-89591100D02*
X151134771Y-89876814D01*
X151134771Y-89876814D02*
X151063343Y-90019671D01*
X151063343Y-90019671D02*
X150991914Y-90091100D01*
X150991914Y-90091100D02*
X150849057Y-90162528D01*
X150849057Y-90162528D02*
X150706200Y-90162528D01*
X150706200Y-90162528D02*
X150563343Y-90091100D01*
X150563343Y-90091100D02*
X150491914Y-90019671D01*
X150491914Y-90019671D02*
X150420485Y-89876814D01*
X150420485Y-89876814D02*
X150349057Y-89591100D01*
X150349057Y-89591100D02*
X150349057Y-89233957D01*
X150349057Y-89233957D02*
X150420485Y-88948242D01*
X150420485Y-88948242D02*
X150491914Y-88805385D01*
X150491914Y-88805385D02*
X150563343Y-88733957D01*
X150563343Y-88733957D02*
X150706200Y-88662528D01*
X152991913Y-90162528D02*
X152991913Y-88662528D01*
X152991913Y-88662528D02*
X153349056Y-88662528D01*
X153349056Y-88662528D02*
X153563342Y-88733957D01*
X153563342Y-88733957D02*
X153706199Y-88876814D01*
X153706199Y-88876814D02*
X153777628Y-89019671D01*
X153777628Y-89019671D02*
X153849056Y-89305385D01*
X153849056Y-89305385D02*
X153849056Y-89519671D01*
X153849056Y-89519671D02*
X153777628Y-89805385D01*
X153777628Y-89805385D02*
X153706199Y-89948242D01*
X153706199Y-89948242D02*
X153563342Y-90091100D01*
X153563342Y-90091100D02*
X153349056Y-90162528D01*
X153349056Y-90162528D02*
X152991913Y-90162528D01*
X154991913Y-89376814D02*
X155206199Y-89448242D01*
X155206199Y-89448242D02*
X155277628Y-89519671D01*
X155277628Y-89519671D02*
X155349056Y-89662528D01*
X155349056Y-89662528D02*
X155349056Y-89876814D01*
X155349056Y-89876814D02*
X155277628Y-90019671D01*
X155277628Y-90019671D02*
X155206199Y-90091100D01*
X155206199Y-90091100D02*
X155063342Y-90162528D01*
X155063342Y-90162528D02*
X154491913Y-90162528D01*
X154491913Y-90162528D02*
X154491913Y-88662528D01*
X154491913Y-88662528D02*
X154991913Y-88662528D01*
X154991913Y-88662528D02*
X155134771Y-88733957D01*
X155134771Y-88733957D02*
X155206199Y-88805385D01*
X155206199Y-88805385D02*
X155277628Y-88948242D01*
X155277628Y-88948242D02*
X155277628Y-89091100D01*
X155277628Y-89091100D02*
X155206199Y-89233957D01*
X155206199Y-89233957D02*
X155134771Y-89305385D01*
X155134771Y-89305385D02*
X154991913Y-89376814D01*
X154991913Y-89376814D02*
X154491913Y-89376814D01*
D11*
X135938419Y-93579457D02*
X135462228Y-93912790D01*
X135938419Y-94150885D02*
X134938419Y-94150885D01*
X134938419Y-94150885D02*
X134938419Y-93769933D01*
X134938419Y-93769933D02*
X134986038Y-93674695D01*
X134986038Y-93674695D02*
X135033657Y-93627076D01*
X135033657Y-93627076D02*
X135128895Y-93579457D01*
X135128895Y-93579457D02*
X135271752Y-93579457D01*
X135271752Y-93579457D02*
X135366990Y-93627076D01*
X135366990Y-93627076D02*
X135414609Y-93674695D01*
X135414609Y-93674695D02*
X135462228Y-93769933D01*
X135462228Y-93769933D02*
X135462228Y-94150885D01*
X135938419Y-92627076D02*
X135938419Y-93198504D01*
X135938419Y-92912790D02*
X134938419Y-92912790D01*
X134938419Y-92912790D02*
X135081276Y-93008028D01*
X135081276Y-93008028D02*
X135176514Y-93103266D01*
X135176514Y-93103266D02*
X135224133Y-93198504D01*
X134938419Y-92008028D02*
X134938419Y-91912790D01*
X134938419Y-91912790D02*
X134986038Y-91817552D01*
X134986038Y-91817552D02*
X135033657Y-91769933D01*
X135033657Y-91769933D02*
X135128895Y-91722314D01*
X135128895Y-91722314D02*
X135319371Y-91674695D01*
X135319371Y-91674695D02*
X135557466Y-91674695D01*
X135557466Y-91674695D02*
X135747942Y-91722314D01*
X135747942Y-91722314D02*
X135843180Y-91769933D01*
X135843180Y-91769933D02*
X135890800Y-91817552D01*
X135890800Y-91817552D02*
X135938419Y-91912790D01*
X135938419Y-91912790D02*
X135938419Y-92008028D01*
X135938419Y-92008028D02*
X135890800Y-92103266D01*
X135890800Y-92103266D02*
X135843180Y-92150885D01*
X135843180Y-92150885D02*
X135747942Y-92198504D01*
X135747942Y-92198504D02*
X135557466Y-92246123D01*
X135557466Y-92246123D02*
X135319371Y-92246123D01*
X135319371Y-92246123D02*
X135128895Y-92198504D01*
X135128895Y-92198504D02*
X135033657Y-92150885D01*
X135033657Y-92150885D02*
X134986038Y-92103266D01*
X134986038Y-92103266D02*
X134938419Y-92008028D01*
X174028266Y-77521600D02*
X174171123Y-77569219D01*
X174171123Y-77569219D02*
X174409218Y-77569219D01*
X174409218Y-77569219D02*
X174504456Y-77521600D01*
X174504456Y-77521600D02*
X174552075Y-77473980D01*
X174552075Y-77473980D02*
X174599694Y-77378742D01*
X174599694Y-77378742D02*
X174599694Y-77283504D01*
X174599694Y-77283504D02*
X174552075Y-77188266D01*
X174552075Y-77188266D02*
X174504456Y-77140647D01*
X174504456Y-77140647D02*
X174409218Y-77093028D01*
X174409218Y-77093028D02*
X174218742Y-77045409D01*
X174218742Y-77045409D02*
X174123504Y-76997790D01*
X174123504Y-76997790D02*
X174075885Y-76950171D01*
X174075885Y-76950171D02*
X174028266Y-76854933D01*
X174028266Y-76854933D02*
X174028266Y-76759695D01*
X174028266Y-76759695D02*
X174075885Y-76664457D01*
X174075885Y-76664457D02*
X174123504Y-76616838D01*
X174123504Y-76616838D02*
X174218742Y-76569219D01*
X174218742Y-76569219D02*
X174456837Y-76569219D01*
X174456837Y-76569219D02*
X174599694Y-76616838D01*
X174933028Y-76569219D02*
X175171123Y-77569219D01*
X175171123Y-77569219D02*
X175361599Y-76854933D01*
X175361599Y-76854933D02*
X175552075Y-77569219D01*
X175552075Y-77569219D02*
X175790171Y-76569219D01*
X176075885Y-76569219D02*
X176742551Y-76569219D01*
X176742551Y-76569219D02*
X176313980Y-77569219D01*
X103870314Y-77485400D02*
X104013171Y-77533019D01*
X104013171Y-77533019D02*
X104251266Y-77533019D01*
X104251266Y-77533019D02*
X104346504Y-77485400D01*
X104346504Y-77485400D02*
X104394123Y-77437780D01*
X104394123Y-77437780D02*
X104441742Y-77342542D01*
X104441742Y-77342542D02*
X104441742Y-77247304D01*
X104441742Y-77247304D02*
X104394123Y-77152066D01*
X104394123Y-77152066D02*
X104346504Y-77104447D01*
X104346504Y-77104447D02*
X104251266Y-77056828D01*
X104251266Y-77056828D02*
X104060790Y-77009209D01*
X104060790Y-77009209D02*
X103965552Y-76961590D01*
X103965552Y-76961590D02*
X103917933Y-76913971D01*
X103917933Y-76913971D02*
X103870314Y-76818733D01*
X103870314Y-76818733D02*
X103870314Y-76723495D01*
X103870314Y-76723495D02*
X103917933Y-76628257D01*
X103917933Y-76628257D02*
X103965552Y-76580638D01*
X103965552Y-76580638D02*
X104060790Y-76533019D01*
X104060790Y-76533019D02*
X104298885Y-76533019D01*
X104298885Y-76533019D02*
X104441742Y-76580638D01*
X104775076Y-76533019D02*
X105013171Y-77533019D01*
X105013171Y-77533019D02*
X105203647Y-76818733D01*
X105203647Y-76818733D02*
X105394123Y-77533019D01*
X105394123Y-77533019D02*
X105632219Y-76533019D01*
X106536980Y-77533019D02*
X105965552Y-77533019D01*
X106251266Y-77533019D02*
X106251266Y-76533019D01*
X106251266Y-76533019D02*
X106156028Y-76675876D01*
X106156028Y-76675876D02*
X106060790Y-76771114D01*
X106060790Y-76771114D02*
X105965552Y-76818733D01*
X170787219Y-93808057D02*
X170311028Y-94141390D01*
X170787219Y-94379485D02*
X169787219Y-94379485D01*
X169787219Y-94379485D02*
X169787219Y-93998533D01*
X169787219Y-93998533D02*
X169834838Y-93903295D01*
X169834838Y-93903295D02*
X169882457Y-93855676D01*
X169882457Y-93855676D02*
X169977695Y-93808057D01*
X169977695Y-93808057D02*
X170120552Y-93808057D01*
X170120552Y-93808057D02*
X170215790Y-93855676D01*
X170215790Y-93855676D02*
X170263409Y-93903295D01*
X170263409Y-93903295D02*
X170311028Y-93998533D01*
X170311028Y-93998533D02*
X170311028Y-94379485D01*
X170787219Y-92855676D02*
X170787219Y-93427104D01*
X170787219Y-93141390D02*
X169787219Y-93141390D01*
X169787219Y-93141390D02*
X169930076Y-93236628D01*
X169930076Y-93236628D02*
X170025314Y-93331866D01*
X170025314Y-93331866D02*
X170072933Y-93427104D01*
X170787219Y-92379485D02*
X170787219Y-92189009D01*
X170787219Y-92189009D02*
X170739600Y-92093771D01*
X170739600Y-92093771D02*
X170691980Y-92046152D01*
X170691980Y-92046152D02*
X170549123Y-91950914D01*
X170549123Y-91950914D02*
X170358647Y-91903295D01*
X170358647Y-91903295D02*
X169977695Y-91903295D01*
X169977695Y-91903295D02*
X169882457Y-91950914D01*
X169882457Y-91950914D02*
X169834838Y-91998533D01*
X169834838Y-91998533D02*
X169787219Y-92093771D01*
X169787219Y-92093771D02*
X169787219Y-92284247D01*
X169787219Y-92284247D02*
X169834838Y-92379485D01*
X169834838Y-92379485D02*
X169882457Y-92427104D01*
X169882457Y-92427104D02*
X169977695Y-92474723D01*
X169977695Y-92474723D02*
X170215790Y-92474723D01*
X170215790Y-92474723D02*
X170311028Y-92427104D01*
X170311028Y-92427104D02*
X170358647Y-92379485D01*
X170358647Y-92379485D02*
X170406266Y-92284247D01*
X170406266Y-92284247D02*
X170406266Y-92093771D01*
X170406266Y-92093771D02*
X170358647Y-91998533D01*
X170358647Y-91998533D02*
X170311028Y-91950914D01*
X170311028Y-91950914D02*
X170215790Y-91903295D01*
X124483019Y-93128666D02*
X124006828Y-93461999D01*
X124483019Y-93700094D02*
X123483019Y-93700094D01*
X123483019Y-93700094D02*
X123483019Y-93319142D01*
X123483019Y-93319142D02*
X123530638Y-93223904D01*
X123530638Y-93223904D02*
X123578257Y-93176285D01*
X123578257Y-93176285D02*
X123673495Y-93128666D01*
X123673495Y-93128666D02*
X123816352Y-93128666D01*
X123816352Y-93128666D02*
X123911590Y-93176285D01*
X123911590Y-93176285D02*
X123959209Y-93223904D01*
X123959209Y-93223904D02*
X124006828Y-93319142D01*
X124006828Y-93319142D02*
X124006828Y-93700094D01*
X123483019Y-92795332D02*
X123483019Y-92128666D01*
X123483019Y-92128666D02*
X124483019Y-92557237D01*
X134490619Y-102983866D02*
X134014428Y-103317199D01*
X134490619Y-103555294D02*
X133490619Y-103555294D01*
X133490619Y-103555294D02*
X133490619Y-103174342D01*
X133490619Y-103174342D02*
X133538238Y-103079104D01*
X133538238Y-103079104D02*
X133585857Y-103031485D01*
X133585857Y-103031485D02*
X133681095Y-102983866D01*
X133681095Y-102983866D02*
X133823952Y-102983866D01*
X133823952Y-102983866D02*
X133919190Y-103031485D01*
X133919190Y-103031485D02*
X133966809Y-103079104D01*
X133966809Y-103079104D02*
X134014428Y-103174342D01*
X134014428Y-103174342D02*
X134014428Y-103555294D01*
X134490619Y-102507675D02*
X134490619Y-102317199D01*
X134490619Y-102317199D02*
X134443000Y-102221961D01*
X134443000Y-102221961D02*
X134395380Y-102174342D01*
X134395380Y-102174342D02*
X134252523Y-102079104D01*
X134252523Y-102079104D02*
X134062047Y-102031485D01*
X134062047Y-102031485D02*
X133681095Y-102031485D01*
X133681095Y-102031485D02*
X133585857Y-102079104D01*
X133585857Y-102079104D02*
X133538238Y-102126723D01*
X133538238Y-102126723D02*
X133490619Y-102221961D01*
X133490619Y-102221961D02*
X133490619Y-102412437D01*
X133490619Y-102412437D02*
X133538238Y-102507675D01*
X133538238Y-102507675D02*
X133585857Y-102555294D01*
X133585857Y-102555294D02*
X133681095Y-102602913D01*
X133681095Y-102602913D02*
X133919190Y-102602913D01*
X133919190Y-102602913D02*
X134014428Y-102555294D01*
X134014428Y-102555294D02*
X134062047Y-102507675D01*
X134062047Y-102507675D02*
X134109666Y-102412437D01*
X134109666Y-102412437D02*
X134109666Y-102221961D01*
X134109666Y-102221961D02*
X134062047Y-102126723D01*
X134062047Y-102126723D02*
X134014428Y-102079104D01*
X134014428Y-102079104D02*
X133919190Y-102031485D01*
X147038219Y-98583257D02*
X146562028Y-98916590D01*
X147038219Y-99154685D02*
X146038219Y-99154685D01*
X146038219Y-99154685D02*
X146038219Y-98773733D01*
X146038219Y-98773733D02*
X146085838Y-98678495D01*
X146085838Y-98678495D02*
X146133457Y-98630876D01*
X146133457Y-98630876D02*
X146228695Y-98583257D01*
X146228695Y-98583257D02*
X146371552Y-98583257D01*
X146371552Y-98583257D02*
X146466790Y-98630876D01*
X146466790Y-98630876D02*
X146514409Y-98678495D01*
X146514409Y-98678495D02*
X146562028Y-98773733D01*
X146562028Y-98773733D02*
X146562028Y-99154685D01*
X147038219Y-97630876D02*
X147038219Y-98202304D01*
X147038219Y-97916590D02*
X146038219Y-97916590D01*
X146038219Y-97916590D02*
X146181076Y-98011828D01*
X146181076Y-98011828D02*
X146276314Y-98107066D01*
X146276314Y-98107066D02*
X146323933Y-98202304D01*
X146371552Y-96773733D02*
X147038219Y-96773733D01*
X145990600Y-97011828D02*
X146704885Y-97249923D01*
X146704885Y-97249923D02*
X146704885Y-96630876D01*
X159147361Y-93808057D02*
X158671170Y-94141390D01*
X159147361Y-94379485D02*
X158147361Y-94379485D01*
X158147361Y-94379485D02*
X158147361Y-93998533D01*
X158147361Y-93998533D02*
X158194980Y-93903295D01*
X158194980Y-93903295D02*
X158242599Y-93855676D01*
X158242599Y-93855676D02*
X158337837Y-93808057D01*
X158337837Y-93808057D02*
X158480694Y-93808057D01*
X158480694Y-93808057D02*
X158575932Y-93855676D01*
X158575932Y-93855676D02*
X158623551Y-93903295D01*
X158623551Y-93903295D02*
X158671170Y-93998533D01*
X158671170Y-93998533D02*
X158671170Y-94379485D01*
X159147361Y-92855676D02*
X159147361Y-93427104D01*
X159147361Y-93141390D02*
X158147361Y-93141390D01*
X158147361Y-93141390D02*
X158290218Y-93236628D01*
X158290218Y-93236628D02*
X158385456Y-93331866D01*
X158385456Y-93331866D02*
X158433075Y-93427104D01*
X158147361Y-91998533D02*
X158147361Y-92189009D01*
X158147361Y-92189009D02*
X158194980Y-92284247D01*
X158194980Y-92284247D02*
X158242599Y-92331866D01*
X158242599Y-92331866D02*
X158385456Y-92427104D01*
X158385456Y-92427104D02*
X158575932Y-92474723D01*
X158575932Y-92474723D02*
X158956884Y-92474723D01*
X158956884Y-92474723D02*
X159052122Y-92427104D01*
X159052122Y-92427104D02*
X159099742Y-92379485D01*
X159099742Y-92379485D02*
X159147361Y-92284247D01*
X159147361Y-92284247D02*
X159147361Y-92093771D01*
X159147361Y-92093771D02*
X159099742Y-91998533D01*
X159099742Y-91998533D02*
X159052122Y-91950914D01*
X159052122Y-91950914D02*
X158956884Y-91903295D01*
X158956884Y-91903295D02*
X158718789Y-91903295D01*
X158718789Y-91903295D02*
X158623551Y-91950914D01*
X158623551Y-91950914D02*
X158575932Y-91998533D01*
X158575932Y-91998533D02*
X158528313Y-92093771D01*
X158528313Y-92093771D02*
X158528313Y-92284247D01*
X158528313Y-92284247D02*
X158575932Y-92379485D01*
X158575932Y-92379485D02*
X158623551Y-92427104D01*
X158623551Y-92427104D02*
X158718789Y-92474723D01*
X127021004Y-77521600D02*
X127163861Y-77569219D01*
X127163861Y-77569219D02*
X127401956Y-77569219D01*
X127401956Y-77569219D02*
X127497194Y-77521600D01*
X127497194Y-77521600D02*
X127544813Y-77473980D01*
X127544813Y-77473980D02*
X127592432Y-77378742D01*
X127592432Y-77378742D02*
X127592432Y-77283504D01*
X127592432Y-77283504D02*
X127544813Y-77188266D01*
X127544813Y-77188266D02*
X127497194Y-77140647D01*
X127497194Y-77140647D02*
X127401956Y-77093028D01*
X127401956Y-77093028D02*
X127211480Y-77045409D01*
X127211480Y-77045409D02*
X127116242Y-76997790D01*
X127116242Y-76997790D02*
X127068623Y-76950171D01*
X127068623Y-76950171D02*
X127021004Y-76854933D01*
X127021004Y-76854933D02*
X127021004Y-76759695D01*
X127021004Y-76759695D02*
X127068623Y-76664457D01*
X127068623Y-76664457D02*
X127116242Y-76616838D01*
X127116242Y-76616838D02*
X127211480Y-76569219D01*
X127211480Y-76569219D02*
X127449575Y-76569219D01*
X127449575Y-76569219D02*
X127592432Y-76616838D01*
X127925766Y-76569219D02*
X128163861Y-77569219D01*
X128163861Y-77569219D02*
X128354337Y-76854933D01*
X128354337Y-76854933D02*
X128544813Y-77569219D01*
X128544813Y-77569219D02*
X128782909Y-76569219D01*
X129068623Y-76569219D02*
X129687670Y-76569219D01*
X129687670Y-76569219D02*
X129354337Y-76950171D01*
X129354337Y-76950171D02*
X129497194Y-76950171D01*
X129497194Y-76950171D02*
X129592432Y-76997790D01*
X129592432Y-76997790D02*
X129640051Y-77045409D01*
X129640051Y-77045409D02*
X129687670Y-77140647D01*
X129687670Y-77140647D02*
X129687670Y-77378742D01*
X129687670Y-77378742D02*
X129640051Y-77473980D01*
X129640051Y-77473980D02*
X129592432Y-77521600D01*
X129592432Y-77521600D02*
X129497194Y-77569219D01*
X129497194Y-77569219D02*
X129211480Y-77569219D01*
X129211480Y-77569219D02*
X129116242Y-77521600D01*
X129116242Y-77521600D02*
X129068623Y-77473980D01*
X147647819Y-93833457D02*
X147171628Y-94166790D01*
X147647819Y-94404885D02*
X146647819Y-94404885D01*
X146647819Y-94404885D02*
X146647819Y-94023933D01*
X146647819Y-94023933D02*
X146695438Y-93928695D01*
X146695438Y-93928695D02*
X146743057Y-93881076D01*
X146743057Y-93881076D02*
X146838295Y-93833457D01*
X146838295Y-93833457D02*
X146981152Y-93833457D01*
X146981152Y-93833457D02*
X147076390Y-93881076D01*
X147076390Y-93881076D02*
X147124009Y-93928695D01*
X147124009Y-93928695D02*
X147171628Y-94023933D01*
X147171628Y-94023933D02*
X147171628Y-94404885D01*
X147647819Y-92881076D02*
X147647819Y-93452504D01*
X147647819Y-93166790D02*
X146647819Y-93166790D01*
X146647819Y-93166790D02*
X146790676Y-93262028D01*
X146790676Y-93262028D02*
X146885914Y-93357266D01*
X146885914Y-93357266D02*
X146933533Y-93452504D01*
X146647819Y-92547742D02*
X146647819Y-91928695D01*
X146647819Y-91928695D02*
X147028771Y-92262028D01*
X147028771Y-92262028D02*
X147028771Y-92119171D01*
X147028771Y-92119171D02*
X147076390Y-92023933D01*
X147076390Y-92023933D02*
X147124009Y-91976314D01*
X147124009Y-91976314D02*
X147219247Y-91928695D01*
X147219247Y-91928695D02*
X147457342Y-91928695D01*
X147457342Y-91928695D02*
X147552580Y-91976314D01*
X147552580Y-91976314D02*
X147600200Y-92023933D01*
X147600200Y-92023933D02*
X147647819Y-92119171D01*
X147647819Y-92119171D02*
X147647819Y-92404885D01*
X147647819Y-92404885D02*
X147600200Y-92500123D01*
X147600200Y-92500123D02*
X147552580Y-92547742D01*
X97917419Y-87556933D02*
X98631704Y-87556933D01*
X98631704Y-87556933D02*
X98774561Y-87604552D01*
X98774561Y-87604552D02*
X98869800Y-87699790D01*
X98869800Y-87699790D02*
X98917419Y-87842647D01*
X98917419Y-87842647D02*
X98917419Y-87937885D01*
X98917419Y-86556933D02*
X98917419Y-87128361D01*
X98917419Y-86842647D02*
X97917419Y-86842647D01*
X97917419Y-86842647D02*
X98060276Y-86937885D01*
X98060276Y-86937885D02*
X98155514Y-87033123D01*
X98155514Y-87033123D02*
X98203133Y-87128361D01*
X157376019Y-103002857D02*
X156899828Y-103336190D01*
X157376019Y-103574285D02*
X156376019Y-103574285D01*
X156376019Y-103574285D02*
X156376019Y-103193333D01*
X156376019Y-103193333D02*
X156423638Y-103098095D01*
X156423638Y-103098095D02*
X156471257Y-103050476D01*
X156471257Y-103050476D02*
X156566495Y-103002857D01*
X156566495Y-103002857D02*
X156709352Y-103002857D01*
X156709352Y-103002857D02*
X156804590Y-103050476D01*
X156804590Y-103050476D02*
X156852209Y-103098095D01*
X156852209Y-103098095D02*
X156899828Y-103193333D01*
X156899828Y-103193333D02*
X156899828Y-103574285D01*
X157376019Y-102050476D02*
X157376019Y-102621904D01*
X157376019Y-102336190D02*
X156376019Y-102336190D01*
X156376019Y-102336190D02*
X156518876Y-102431428D01*
X156518876Y-102431428D02*
X156614114Y-102526666D01*
X156614114Y-102526666D02*
X156661733Y-102621904D01*
X156376019Y-101145714D02*
X156376019Y-101621904D01*
X156376019Y-101621904D02*
X156852209Y-101669523D01*
X156852209Y-101669523D02*
X156804590Y-101621904D01*
X156804590Y-101621904D02*
X156756971Y-101526666D01*
X156756971Y-101526666D02*
X156756971Y-101288571D01*
X156756971Y-101288571D02*
X156804590Y-101193333D01*
X156804590Y-101193333D02*
X156852209Y-101145714D01*
X156852209Y-101145714D02*
X156947447Y-101098095D01*
X156947447Y-101098095D02*
X157185542Y-101098095D01*
X157185542Y-101098095D02*
X157280780Y-101145714D01*
X157280780Y-101145714D02*
X157328400Y-101193333D01*
X157328400Y-101193333D02*
X157376019Y-101288571D01*
X157376019Y-101288571D02*
X157376019Y-101526666D01*
X157376019Y-101526666D02*
X157328400Y-101621904D01*
X157328400Y-101621904D02*
X157280780Y-101669523D01*
X138893469Y-77445400D02*
X139036326Y-77493019D01*
X139036326Y-77493019D02*
X139274421Y-77493019D01*
X139274421Y-77493019D02*
X139369659Y-77445400D01*
X139369659Y-77445400D02*
X139417278Y-77397780D01*
X139417278Y-77397780D02*
X139464897Y-77302542D01*
X139464897Y-77302542D02*
X139464897Y-77207304D01*
X139464897Y-77207304D02*
X139417278Y-77112066D01*
X139417278Y-77112066D02*
X139369659Y-77064447D01*
X139369659Y-77064447D02*
X139274421Y-77016828D01*
X139274421Y-77016828D02*
X139083945Y-76969209D01*
X139083945Y-76969209D02*
X138988707Y-76921590D01*
X138988707Y-76921590D02*
X138941088Y-76873971D01*
X138941088Y-76873971D02*
X138893469Y-76778733D01*
X138893469Y-76778733D02*
X138893469Y-76683495D01*
X138893469Y-76683495D02*
X138941088Y-76588257D01*
X138941088Y-76588257D02*
X138988707Y-76540638D01*
X138988707Y-76540638D02*
X139083945Y-76493019D01*
X139083945Y-76493019D02*
X139322040Y-76493019D01*
X139322040Y-76493019D02*
X139464897Y-76540638D01*
X139798231Y-76493019D02*
X140036326Y-77493019D01*
X140036326Y-77493019D02*
X140226802Y-76778733D01*
X140226802Y-76778733D02*
X140417278Y-77493019D01*
X140417278Y-77493019D02*
X140655374Y-76493019D01*
X141464897Y-76826352D02*
X141464897Y-77493019D01*
X141226802Y-76445400D02*
X140988707Y-77159685D01*
X140988707Y-77159685D02*
X141607754Y-77159685D01*
X180570019Y-100640657D02*
X180093828Y-100973990D01*
X180570019Y-101212085D02*
X179570019Y-101212085D01*
X179570019Y-101212085D02*
X179570019Y-100831133D01*
X179570019Y-100831133D02*
X179617638Y-100735895D01*
X179617638Y-100735895D02*
X179665257Y-100688276D01*
X179665257Y-100688276D02*
X179760495Y-100640657D01*
X179760495Y-100640657D02*
X179903352Y-100640657D01*
X179903352Y-100640657D02*
X179998590Y-100688276D01*
X179998590Y-100688276D02*
X180046209Y-100735895D01*
X180046209Y-100735895D02*
X180093828Y-100831133D01*
X180093828Y-100831133D02*
X180093828Y-101212085D01*
X179665257Y-100259704D02*
X179617638Y-100212085D01*
X179617638Y-100212085D02*
X179570019Y-100116847D01*
X179570019Y-100116847D02*
X179570019Y-99878752D01*
X179570019Y-99878752D02*
X179617638Y-99783514D01*
X179617638Y-99783514D02*
X179665257Y-99735895D01*
X179665257Y-99735895D02*
X179760495Y-99688276D01*
X179760495Y-99688276D02*
X179855733Y-99688276D01*
X179855733Y-99688276D02*
X179998590Y-99735895D01*
X179998590Y-99735895D02*
X180570019Y-100307323D01*
X180570019Y-100307323D02*
X180570019Y-99688276D01*
X180570019Y-98735895D02*
X180570019Y-99307323D01*
X180570019Y-99021609D02*
X179570019Y-99021609D01*
X179570019Y-99021609D02*
X179712876Y-99116847D01*
X179712876Y-99116847D02*
X179808114Y-99212085D01*
X179808114Y-99212085D02*
X179855733Y-99307323D01*
X179477819Y-86947333D02*
X180192104Y-86947333D01*
X180192104Y-86947333D02*
X180334961Y-86994952D01*
X180334961Y-86994952D02*
X180430200Y-87090190D01*
X180430200Y-87090190D02*
X180477819Y-87233047D01*
X180477819Y-87233047D02*
X180477819Y-87328285D01*
X179573057Y-86518761D02*
X179525438Y-86471142D01*
X179525438Y-86471142D02*
X179477819Y-86375904D01*
X179477819Y-86375904D02*
X179477819Y-86137809D01*
X179477819Y-86137809D02*
X179525438Y-86042571D01*
X179525438Y-86042571D02*
X179573057Y-85994952D01*
X179573057Y-85994952D02*
X179668295Y-85947333D01*
X179668295Y-85947333D02*
X179763533Y-85947333D01*
X179763533Y-85947333D02*
X179906390Y-85994952D01*
X179906390Y-85994952D02*
X180477819Y-86566380D01*
X180477819Y-86566380D02*
X180477819Y-85947333D01*
X162409799Y-77521600D02*
X162552656Y-77569219D01*
X162552656Y-77569219D02*
X162790751Y-77569219D01*
X162790751Y-77569219D02*
X162885989Y-77521600D01*
X162885989Y-77521600D02*
X162933608Y-77473980D01*
X162933608Y-77473980D02*
X162981227Y-77378742D01*
X162981227Y-77378742D02*
X162981227Y-77283504D01*
X162981227Y-77283504D02*
X162933608Y-77188266D01*
X162933608Y-77188266D02*
X162885989Y-77140647D01*
X162885989Y-77140647D02*
X162790751Y-77093028D01*
X162790751Y-77093028D02*
X162600275Y-77045409D01*
X162600275Y-77045409D02*
X162505037Y-76997790D01*
X162505037Y-76997790D02*
X162457418Y-76950171D01*
X162457418Y-76950171D02*
X162409799Y-76854933D01*
X162409799Y-76854933D02*
X162409799Y-76759695D01*
X162409799Y-76759695D02*
X162457418Y-76664457D01*
X162457418Y-76664457D02*
X162505037Y-76616838D01*
X162505037Y-76616838D02*
X162600275Y-76569219D01*
X162600275Y-76569219D02*
X162838370Y-76569219D01*
X162838370Y-76569219D02*
X162981227Y-76616838D01*
X163314561Y-76569219D02*
X163552656Y-77569219D01*
X163552656Y-77569219D02*
X163743132Y-76854933D01*
X163743132Y-76854933D02*
X163933608Y-77569219D01*
X163933608Y-77569219D02*
X164171704Y-76569219D01*
X164981227Y-76569219D02*
X164790751Y-76569219D01*
X164790751Y-76569219D02*
X164695513Y-76616838D01*
X164695513Y-76616838D02*
X164647894Y-76664457D01*
X164647894Y-76664457D02*
X164552656Y-76807314D01*
X164552656Y-76807314D02*
X164505037Y-76997790D01*
X164505037Y-76997790D02*
X164505037Y-77378742D01*
X164505037Y-77378742D02*
X164552656Y-77473980D01*
X164552656Y-77473980D02*
X164600275Y-77521600D01*
X164600275Y-77521600D02*
X164695513Y-77569219D01*
X164695513Y-77569219D02*
X164885989Y-77569219D01*
X164885989Y-77569219D02*
X164981227Y-77521600D01*
X164981227Y-77521600D02*
X165028846Y-77473980D01*
X165028846Y-77473980D02*
X165076465Y-77378742D01*
X165076465Y-77378742D02*
X165076465Y-77140647D01*
X165076465Y-77140647D02*
X165028846Y-77045409D01*
X165028846Y-77045409D02*
X164981227Y-76997790D01*
X164981227Y-76997790D02*
X164885989Y-76950171D01*
X164885989Y-76950171D02*
X164695513Y-76950171D01*
X164695513Y-76950171D02*
X164600275Y-76997790D01*
X164600275Y-76997790D02*
X164552656Y-77045409D01*
X164552656Y-77045409D02*
X164505037Y-77140647D01*
X110487619Y-102577466D02*
X110011428Y-102910799D01*
X110487619Y-103148894D02*
X109487619Y-103148894D01*
X109487619Y-103148894D02*
X109487619Y-102767942D01*
X109487619Y-102767942D02*
X109535238Y-102672704D01*
X109535238Y-102672704D02*
X109582857Y-102625085D01*
X109582857Y-102625085D02*
X109678095Y-102577466D01*
X109678095Y-102577466D02*
X109820952Y-102577466D01*
X109820952Y-102577466D02*
X109916190Y-102625085D01*
X109916190Y-102625085D02*
X109963809Y-102672704D01*
X109963809Y-102672704D02*
X110011428Y-102767942D01*
X110011428Y-102767942D02*
X110011428Y-103148894D01*
X109487619Y-102244132D02*
X109487619Y-101625085D01*
X109487619Y-101625085D02*
X109868571Y-101958418D01*
X109868571Y-101958418D02*
X109868571Y-101815561D01*
X109868571Y-101815561D02*
X109916190Y-101720323D01*
X109916190Y-101720323D02*
X109963809Y-101672704D01*
X109963809Y-101672704D02*
X110059047Y-101625085D01*
X110059047Y-101625085D02*
X110297142Y-101625085D01*
X110297142Y-101625085D02*
X110392380Y-101672704D01*
X110392380Y-101672704D02*
X110440000Y-101720323D01*
X110440000Y-101720323D02*
X110487619Y-101815561D01*
X110487619Y-101815561D02*
X110487619Y-102101275D01*
X110487619Y-102101275D02*
X110440000Y-102196513D01*
X110440000Y-102196513D02*
X110392380Y-102244132D01*
X123771819Y-98005466D02*
X123295628Y-98338799D01*
X123771819Y-98576894D02*
X122771819Y-98576894D01*
X122771819Y-98576894D02*
X122771819Y-98195942D01*
X122771819Y-98195942D02*
X122819438Y-98100704D01*
X122819438Y-98100704D02*
X122867057Y-98053085D01*
X122867057Y-98053085D02*
X122962295Y-98005466D01*
X122962295Y-98005466D02*
X123105152Y-98005466D01*
X123105152Y-98005466D02*
X123200390Y-98053085D01*
X123200390Y-98053085D02*
X123248009Y-98100704D01*
X123248009Y-98100704D02*
X123295628Y-98195942D01*
X123295628Y-98195942D02*
X123295628Y-98576894D01*
X123200390Y-97434037D02*
X123152771Y-97529275D01*
X123152771Y-97529275D02*
X123105152Y-97576894D01*
X123105152Y-97576894D02*
X123009914Y-97624513D01*
X123009914Y-97624513D02*
X122962295Y-97624513D01*
X122962295Y-97624513D02*
X122867057Y-97576894D01*
X122867057Y-97576894D02*
X122819438Y-97529275D01*
X122819438Y-97529275D02*
X122771819Y-97434037D01*
X122771819Y-97434037D02*
X122771819Y-97243561D01*
X122771819Y-97243561D02*
X122819438Y-97148323D01*
X122819438Y-97148323D02*
X122867057Y-97100704D01*
X122867057Y-97100704D02*
X122962295Y-97053085D01*
X122962295Y-97053085D02*
X123009914Y-97053085D01*
X123009914Y-97053085D02*
X123105152Y-97100704D01*
X123105152Y-97100704D02*
X123152771Y-97148323D01*
X123152771Y-97148323D02*
X123200390Y-97243561D01*
X123200390Y-97243561D02*
X123200390Y-97434037D01*
X123200390Y-97434037D02*
X123248009Y-97529275D01*
X123248009Y-97529275D02*
X123295628Y-97576894D01*
X123295628Y-97576894D02*
X123390866Y-97624513D01*
X123390866Y-97624513D02*
X123581342Y-97624513D01*
X123581342Y-97624513D02*
X123676580Y-97576894D01*
X123676580Y-97576894D02*
X123724200Y-97529275D01*
X123724200Y-97529275D02*
X123771819Y-97434037D01*
X123771819Y-97434037D02*
X123771819Y-97243561D01*
X123771819Y-97243561D02*
X123724200Y-97148323D01*
X123724200Y-97148323D02*
X123676580Y-97100704D01*
X123676580Y-97100704D02*
X123581342Y-97053085D01*
X123581342Y-97053085D02*
X123390866Y-97053085D01*
X123390866Y-97053085D02*
X123295628Y-97100704D01*
X123295628Y-97100704D02*
X123248009Y-97148323D01*
X123248009Y-97148323D02*
X123200390Y-97243561D01*
X145946019Y-103104457D02*
X145469828Y-103437790D01*
X145946019Y-103675885D02*
X144946019Y-103675885D01*
X144946019Y-103675885D02*
X144946019Y-103294933D01*
X144946019Y-103294933D02*
X144993638Y-103199695D01*
X144993638Y-103199695D02*
X145041257Y-103152076D01*
X145041257Y-103152076D02*
X145136495Y-103104457D01*
X145136495Y-103104457D02*
X145279352Y-103104457D01*
X145279352Y-103104457D02*
X145374590Y-103152076D01*
X145374590Y-103152076D02*
X145422209Y-103199695D01*
X145422209Y-103199695D02*
X145469828Y-103294933D01*
X145469828Y-103294933D02*
X145469828Y-103675885D01*
X145946019Y-102152076D02*
X145946019Y-102723504D01*
X145946019Y-102437790D02*
X144946019Y-102437790D01*
X144946019Y-102437790D02*
X145088876Y-102533028D01*
X145088876Y-102533028D02*
X145184114Y-102628266D01*
X145184114Y-102628266D02*
X145231733Y-102723504D01*
X145041257Y-101771123D02*
X144993638Y-101723504D01*
X144993638Y-101723504D02*
X144946019Y-101628266D01*
X144946019Y-101628266D02*
X144946019Y-101390171D01*
X144946019Y-101390171D02*
X144993638Y-101294933D01*
X144993638Y-101294933D02*
X145041257Y-101247314D01*
X145041257Y-101247314D02*
X145136495Y-101199695D01*
X145136495Y-101199695D02*
X145231733Y-101199695D01*
X145231733Y-101199695D02*
X145374590Y-101247314D01*
X145374590Y-101247314D02*
X145946019Y-101818742D01*
X145946019Y-101818742D02*
X145946019Y-101199695D01*
X115758139Y-77420000D02*
X115900996Y-77467619D01*
X115900996Y-77467619D02*
X116139091Y-77467619D01*
X116139091Y-77467619D02*
X116234329Y-77420000D01*
X116234329Y-77420000D02*
X116281948Y-77372380D01*
X116281948Y-77372380D02*
X116329567Y-77277142D01*
X116329567Y-77277142D02*
X116329567Y-77181904D01*
X116329567Y-77181904D02*
X116281948Y-77086666D01*
X116281948Y-77086666D02*
X116234329Y-77039047D01*
X116234329Y-77039047D02*
X116139091Y-76991428D01*
X116139091Y-76991428D02*
X115948615Y-76943809D01*
X115948615Y-76943809D02*
X115853377Y-76896190D01*
X115853377Y-76896190D02*
X115805758Y-76848571D01*
X115805758Y-76848571D02*
X115758139Y-76753333D01*
X115758139Y-76753333D02*
X115758139Y-76658095D01*
X115758139Y-76658095D02*
X115805758Y-76562857D01*
X115805758Y-76562857D02*
X115853377Y-76515238D01*
X115853377Y-76515238D02*
X115948615Y-76467619D01*
X115948615Y-76467619D02*
X116186710Y-76467619D01*
X116186710Y-76467619D02*
X116329567Y-76515238D01*
X116662901Y-76467619D02*
X116900996Y-77467619D01*
X116900996Y-77467619D02*
X117091472Y-76753333D01*
X117091472Y-76753333D02*
X117281948Y-77467619D01*
X117281948Y-77467619D02*
X117520044Y-76467619D01*
X117853377Y-76562857D02*
X117900996Y-76515238D01*
X117900996Y-76515238D02*
X117996234Y-76467619D01*
X117996234Y-76467619D02*
X118234329Y-76467619D01*
X118234329Y-76467619D02*
X118329567Y-76515238D01*
X118329567Y-76515238D02*
X118377186Y-76562857D01*
X118377186Y-76562857D02*
X118424805Y-76658095D01*
X118424805Y-76658095D02*
X118424805Y-76753333D01*
X118424805Y-76753333D02*
X118377186Y-76896190D01*
X118377186Y-76896190D02*
X117805758Y-77467619D01*
X117805758Y-77467619D02*
X118424805Y-77467619D01*
X168882219Y-103282257D02*
X168406028Y-103615590D01*
X168882219Y-103853685D02*
X167882219Y-103853685D01*
X167882219Y-103853685D02*
X167882219Y-103472733D01*
X167882219Y-103472733D02*
X167929838Y-103377495D01*
X167929838Y-103377495D02*
X167977457Y-103329876D01*
X167977457Y-103329876D02*
X168072695Y-103282257D01*
X168072695Y-103282257D02*
X168215552Y-103282257D01*
X168215552Y-103282257D02*
X168310790Y-103329876D01*
X168310790Y-103329876D02*
X168358409Y-103377495D01*
X168358409Y-103377495D02*
X168406028Y-103472733D01*
X168406028Y-103472733D02*
X168406028Y-103853685D01*
X168882219Y-102329876D02*
X168882219Y-102901304D01*
X168882219Y-102615590D02*
X167882219Y-102615590D01*
X167882219Y-102615590D02*
X168025076Y-102710828D01*
X168025076Y-102710828D02*
X168120314Y-102806066D01*
X168120314Y-102806066D02*
X168167933Y-102901304D01*
X168310790Y-101758447D02*
X168263171Y-101853685D01*
X168263171Y-101853685D02*
X168215552Y-101901304D01*
X168215552Y-101901304D02*
X168120314Y-101948923D01*
X168120314Y-101948923D02*
X168072695Y-101948923D01*
X168072695Y-101948923D02*
X167977457Y-101901304D01*
X167977457Y-101901304D02*
X167929838Y-101853685D01*
X167929838Y-101853685D02*
X167882219Y-101758447D01*
X167882219Y-101758447D02*
X167882219Y-101567971D01*
X167882219Y-101567971D02*
X167929838Y-101472733D01*
X167929838Y-101472733D02*
X167977457Y-101425114D01*
X167977457Y-101425114D02*
X168072695Y-101377495D01*
X168072695Y-101377495D02*
X168120314Y-101377495D01*
X168120314Y-101377495D02*
X168215552Y-101425114D01*
X168215552Y-101425114D02*
X168263171Y-101472733D01*
X168263171Y-101472733D02*
X168310790Y-101567971D01*
X168310790Y-101567971D02*
X168310790Y-101758447D01*
X168310790Y-101758447D02*
X168358409Y-101853685D01*
X168358409Y-101853685D02*
X168406028Y-101901304D01*
X168406028Y-101901304D02*
X168501266Y-101948923D01*
X168501266Y-101948923D02*
X168691742Y-101948923D01*
X168691742Y-101948923D02*
X168786980Y-101901304D01*
X168786980Y-101901304D02*
X168834600Y-101853685D01*
X168834600Y-101853685D02*
X168882219Y-101758447D01*
X168882219Y-101758447D02*
X168882219Y-101567971D01*
X168882219Y-101567971D02*
X168834600Y-101472733D01*
X168834600Y-101472733D02*
X168786980Y-101425114D01*
X168786980Y-101425114D02*
X168691742Y-101377495D01*
X168691742Y-101377495D02*
X168501266Y-101377495D01*
X168501266Y-101377495D02*
X168406028Y-101425114D01*
X168406028Y-101425114D02*
X168358409Y-101472733D01*
X168358409Y-101472733D02*
X168310790Y-101567971D01*
X100276819Y-97827666D02*
X99800628Y-98160999D01*
X100276819Y-98399094D02*
X99276819Y-98399094D01*
X99276819Y-98399094D02*
X99276819Y-98018142D01*
X99276819Y-98018142D02*
X99324438Y-97922904D01*
X99324438Y-97922904D02*
X99372057Y-97875285D01*
X99372057Y-97875285D02*
X99467295Y-97827666D01*
X99467295Y-97827666D02*
X99610152Y-97827666D01*
X99610152Y-97827666D02*
X99705390Y-97875285D01*
X99705390Y-97875285D02*
X99753009Y-97922904D01*
X99753009Y-97922904D02*
X99800628Y-98018142D01*
X99800628Y-98018142D02*
X99800628Y-98399094D01*
X99372057Y-97446713D02*
X99324438Y-97399094D01*
X99324438Y-97399094D02*
X99276819Y-97303856D01*
X99276819Y-97303856D02*
X99276819Y-97065761D01*
X99276819Y-97065761D02*
X99324438Y-96970523D01*
X99324438Y-96970523D02*
X99372057Y-96922904D01*
X99372057Y-96922904D02*
X99467295Y-96875285D01*
X99467295Y-96875285D02*
X99562533Y-96875285D01*
X99562533Y-96875285D02*
X99705390Y-96922904D01*
X99705390Y-96922904D02*
X100276819Y-97494332D01*
X100276819Y-97494332D02*
X100276819Y-96875285D01*
X122400219Y-102272666D02*
X121924028Y-102605999D01*
X122400219Y-102844094D02*
X121400219Y-102844094D01*
X121400219Y-102844094D02*
X121400219Y-102463142D01*
X121400219Y-102463142D02*
X121447838Y-102367904D01*
X121447838Y-102367904D02*
X121495457Y-102320285D01*
X121495457Y-102320285D02*
X121590695Y-102272666D01*
X121590695Y-102272666D02*
X121733552Y-102272666D01*
X121733552Y-102272666D02*
X121828790Y-102320285D01*
X121828790Y-102320285D02*
X121876409Y-102367904D01*
X121876409Y-102367904D02*
X121924028Y-102463142D01*
X121924028Y-102463142D02*
X121924028Y-102844094D01*
X121400219Y-101415523D02*
X121400219Y-101605999D01*
X121400219Y-101605999D02*
X121447838Y-101701237D01*
X121447838Y-101701237D02*
X121495457Y-101748856D01*
X121495457Y-101748856D02*
X121638314Y-101844094D01*
X121638314Y-101844094D02*
X121828790Y-101891713D01*
X121828790Y-101891713D02*
X122209742Y-101891713D01*
X122209742Y-101891713D02*
X122304980Y-101844094D01*
X122304980Y-101844094D02*
X122352600Y-101796475D01*
X122352600Y-101796475D02*
X122400219Y-101701237D01*
X122400219Y-101701237D02*
X122400219Y-101510761D01*
X122400219Y-101510761D02*
X122352600Y-101415523D01*
X122352600Y-101415523D02*
X122304980Y-101367904D01*
X122304980Y-101367904D02*
X122209742Y-101320285D01*
X122209742Y-101320285D02*
X121971647Y-101320285D01*
X121971647Y-101320285D02*
X121876409Y-101367904D01*
X121876409Y-101367904D02*
X121828790Y-101415523D01*
X121828790Y-101415523D02*
X121781171Y-101510761D01*
X121781171Y-101510761D02*
X121781171Y-101701237D01*
X121781171Y-101701237D02*
X121828790Y-101796475D01*
X121828790Y-101796475D02*
X121876409Y-101844094D01*
X121876409Y-101844094D02*
X121971647Y-101891713D01*
X111859219Y-97571666D02*
X111383028Y-97904999D01*
X111859219Y-98143094D02*
X110859219Y-98143094D01*
X110859219Y-98143094D02*
X110859219Y-97762142D01*
X110859219Y-97762142D02*
X110906838Y-97666904D01*
X110906838Y-97666904D02*
X110954457Y-97619285D01*
X110954457Y-97619285D02*
X111049695Y-97571666D01*
X111049695Y-97571666D02*
X111192552Y-97571666D01*
X111192552Y-97571666D02*
X111287790Y-97619285D01*
X111287790Y-97619285D02*
X111335409Y-97666904D01*
X111335409Y-97666904D02*
X111383028Y-97762142D01*
X111383028Y-97762142D02*
X111383028Y-98143094D01*
X110859219Y-96666904D02*
X110859219Y-97143094D01*
X110859219Y-97143094D02*
X111335409Y-97190713D01*
X111335409Y-97190713D02*
X111287790Y-97143094D01*
X111287790Y-97143094D02*
X111240171Y-97047856D01*
X111240171Y-97047856D02*
X111240171Y-96809761D01*
X111240171Y-96809761D02*
X111287790Y-96714523D01*
X111287790Y-96714523D02*
X111335409Y-96666904D01*
X111335409Y-96666904D02*
X111430647Y-96619285D01*
X111430647Y-96619285D02*
X111668742Y-96619285D01*
X111668742Y-96619285D02*
X111763980Y-96666904D01*
X111763980Y-96666904D02*
X111811600Y-96714523D01*
X111811600Y-96714523D02*
X111859219Y-96809761D01*
X111859219Y-96809761D02*
X111859219Y-97047856D01*
X111859219Y-97047856D02*
X111811600Y-97143094D01*
X111811600Y-97143094D02*
X111763980Y-97190713D01*
X159103219Y-98454257D02*
X158627028Y-98787590D01*
X159103219Y-99025685D02*
X158103219Y-99025685D01*
X158103219Y-99025685D02*
X158103219Y-98644733D01*
X158103219Y-98644733D02*
X158150838Y-98549495D01*
X158150838Y-98549495D02*
X158198457Y-98501876D01*
X158198457Y-98501876D02*
X158293695Y-98454257D01*
X158293695Y-98454257D02*
X158436552Y-98454257D01*
X158436552Y-98454257D02*
X158531790Y-98501876D01*
X158531790Y-98501876D02*
X158579409Y-98549495D01*
X158579409Y-98549495D02*
X158627028Y-98644733D01*
X158627028Y-98644733D02*
X158627028Y-99025685D01*
X159103219Y-97501876D02*
X159103219Y-98073304D01*
X159103219Y-97787590D02*
X158103219Y-97787590D01*
X158103219Y-97787590D02*
X158246076Y-97882828D01*
X158246076Y-97882828D02*
X158341314Y-97978066D01*
X158341314Y-97978066D02*
X158388933Y-98073304D01*
X158103219Y-97168542D02*
X158103219Y-96501876D01*
X158103219Y-96501876D02*
X159103219Y-96930447D01*
X135506619Y-98786457D02*
X135030428Y-99119790D01*
X135506619Y-99357885D02*
X134506619Y-99357885D01*
X134506619Y-99357885D02*
X134506619Y-98976933D01*
X134506619Y-98976933D02*
X134554238Y-98881695D01*
X134554238Y-98881695D02*
X134601857Y-98834076D01*
X134601857Y-98834076D02*
X134697095Y-98786457D01*
X134697095Y-98786457D02*
X134839952Y-98786457D01*
X134839952Y-98786457D02*
X134935190Y-98834076D01*
X134935190Y-98834076D02*
X134982809Y-98881695D01*
X134982809Y-98881695D02*
X135030428Y-98976933D01*
X135030428Y-98976933D02*
X135030428Y-99357885D01*
X135506619Y-97834076D02*
X135506619Y-98405504D01*
X135506619Y-98119790D02*
X134506619Y-98119790D01*
X134506619Y-98119790D02*
X134649476Y-98215028D01*
X134649476Y-98215028D02*
X134744714Y-98310266D01*
X134744714Y-98310266D02*
X134792333Y-98405504D01*
X135506619Y-96881695D02*
X135506619Y-97453123D01*
X135506619Y-97167409D02*
X134506619Y-97167409D01*
X134506619Y-97167409D02*
X134649476Y-97262647D01*
X134649476Y-97262647D02*
X134744714Y-97357885D01*
X134744714Y-97357885D02*
X134792333Y-97453123D01*
X100607019Y-93204866D02*
X100130828Y-93538199D01*
X100607019Y-93776294D02*
X99607019Y-93776294D01*
X99607019Y-93776294D02*
X99607019Y-93395342D01*
X99607019Y-93395342D02*
X99654638Y-93300104D01*
X99654638Y-93300104D02*
X99702257Y-93252485D01*
X99702257Y-93252485D02*
X99797495Y-93204866D01*
X99797495Y-93204866D02*
X99940352Y-93204866D01*
X99940352Y-93204866D02*
X100035590Y-93252485D01*
X100035590Y-93252485D02*
X100083209Y-93300104D01*
X100083209Y-93300104D02*
X100130828Y-93395342D01*
X100130828Y-93395342D02*
X100130828Y-93776294D01*
X100607019Y-92252485D02*
X100607019Y-92823913D01*
X100607019Y-92538199D02*
X99607019Y-92538199D01*
X99607019Y-92538199D02*
X99749876Y-92633437D01*
X99749876Y-92633437D02*
X99845114Y-92728675D01*
X99845114Y-92728675D02*
X99892733Y-92823913D01*
X170304619Y-97897457D02*
X169828428Y-98230790D01*
X170304619Y-98468885D02*
X169304619Y-98468885D01*
X169304619Y-98468885D02*
X169304619Y-98087933D01*
X169304619Y-98087933D02*
X169352238Y-97992695D01*
X169352238Y-97992695D02*
X169399857Y-97945076D01*
X169399857Y-97945076D02*
X169495095Y-97897457D01*
X169495095Y-97897457D02*
X169637952Y-97897457D01*
X169637952Y-97897457D02*
X169733190Y-97945076D01*
X169733190Y-97945076D02*
X169780809Y-97992695D01*
X169780809Y-97992695D02*
X169828428Y-98087933D01*
X169828428Y-98087933D02*
X169828428Y-98468885D01*
X169399857Y-97516504D02*
X169352238Y-97468885D01*
X169352238Y-97468885D02*
X169304619Y-97373647D01*
X169304619Y-97373647D02*
X169304619Y-97135552D01*
X169304619Y-97135552D02*
X169352238Y-97040314D01*
X169352238Y-97040314D02*
X169399857Y-96992695D01*
X169399857Y-96992695D02*
X169495095Y-96945076D01*
X169495095Y-96945076D02*
X169590333Y-96945076D01*
X169590333Y-96945076D02*
X169733190Y-96992695D01*
X169733190Y-96992695D02*
X170304619Y-97564123D01*
X170304619Y-97564123D02*
X170304619Y-96945076D01*
X169304619Y-96326028D02*
X169304619Y-96230790D01*
X169304619Y-96230790D02*
X169352238Y-96135552D01*
X169352238Y-96135552D02*
X169399857Y-96087933D01*
X169399857Y-96087933D02*
X169495095Y-96040314D01*
X169495095Y-96040314D02*
X169685571Y-95992695D01*
X169685571Y-95992695D02*
X169923666Y-95992695D01*
X169923666Y-95992695D02*
X170114142Y-96040314D01*
X170114142Y-96040314D02*
X170209380Y-96087933D01*
X170209380Y-96087933D02*
X170257000Y-96135552D01*
X170257000Y-96135552D02*
X170304619Y-96230790D01*
X170304619Y-96230790D02*
X170304619Y-96326028D01*
X170304619Y-96326028D02*
X170257000Y-96421266D01*
X170257000Y-96421266D02*
X170209380Y-96468885D01*
X170209380Y-96468885D02*
X170114142Y-96516504D01*
X170114142Y-96516504D02*
X169923666Y-96564123D01*
X169923666Y-96564123D02*
X169685571Y-96564123D01*
X169685571Y-96564123D02*
X169495095Y-96516504D01*
X169495095Y-96516504D02*
X169399857Y-96468885D01*
X169399857Y-96468885D02*
X169352238Y-96421266D01*
X169352238Y-96421266D02*
X169304619Y-96326028D01*
X112494219Y-92976266D02*
X112018028Y-93309599D01*
X112494219Y-93547694D02*
X111494219Y-93547694D01*
X111494219Y-93547694D02*
X111494219Y-93166742D01*
X111494219Y-93166742D02*
X111541838Y-93071504D01*
X111541838Y-93071504D02*
X111589457Y-93023885D01*
X111589457Y-93023885D02*
X111684695Y-92976266D01*
X111684695Y-92976266D02*
X111827552Y-92976266D01*
X111827552Y-92976266D02*
X111922790Y-93023885D01*
X111922790Y-93023885D02*
X111970409Y-93071504D01*
X111970409Y-93071504D02*
X112018028Y-93166742D01*
X112018028Y-93166742D02*
X112018028Y-93547694D01*
X111827552Y-92119123D02*
X112494219Y-92119123D01*
X111446600Y-92357218D02*
X112160885Y-92595313D01*
X112160885Y-92595313D02*
X112160885Y-91976266D01*
X150410334Y-77369200D02*
X150553191Y-77416819D01*
X150553191Y-77416819D02*
X150791286Y-77416819D01*
X150791286Y-77416819D02*
X150886524Y-77369200D01*
X150886524Y-77369200D02*
X150934143Y-77321580D01*
X150934143Y-77321580D02*
X150981762Y-77226342D01*
X150981762Y-77226342D02*
X150981762Y-77131104D01*
X150981762Y-77131104D02*
X150934143Y-77035866D01*
X150934143Y-77035866D02*
X150886524Y-76988247D01*
X150886524Y-76988247D02*
X150791286Y-76940628D01*
X150791286Y-76940628D02*
X150600810Y-76893009D01*
X150600810Y-76893009D02*
X150505572Y-76845390D01*
X150505572Y-76845390D02*
X150457953Y-76797771D01*
X150457953Y-76797771D02*
X150410334Y-76702533D01*
X150410334Y-76702533D02*
X150410334Y-76607295D01*
X150410334Y-76607295D02*
X150457953Y-76512057D01*
X150457953Y-76512057D02*
X150505572Y-76464438D01*
X150505572Y-76464438D02*
X150600810Y-76416819D01*
X150600810Y-76416819D02*
X150838905Y-76416819D01*
X150838905Y-76416819D02*
X150981762Y-76464438D01*
X151315096Y-76416819D02*
X151553191Y-77416819D01*
X151553191Y-77416819D02*
X151743667Y-76702533D01*
X151743667Y-76702533D02*
X151934143Y-77416819D01*
X151934143Y-77416819D02*
X152172239Y-76416819D01*
X153029381Y-76416819D02*
X152553191Y-76416819D01*
X152553191Y-76416819D02*
X152505572Y-76893009D01*
X152505572Y-76893009D02*
X152553191Y-76845390D01*
X152553191Y-76845390D02*
X152648429Y-76797771D01*
X152648429Y-76797771D02*
X152886524Y-76797771D01*
X152886524Y-76797771D02*
X152981762Y-76845390D01*
X152981762Y-76845390D02*
X153029381Y-76893009D01*
X153029381Y-76893009D02*
X153077000Y-76988247D01*
X153077000Y-76988247D02*
X153077000Y-77226342D01*
X153077000Y-77226342D02*
X153029381Y-77321580D01*
X153029381Y-77321580D02*
X152981762Y-77369200D01*
X152981762Y-77369200D02*
X152886524Y-77416819D01*
X152886524Y-77416819D02*
X152648429Y-77416819D01*
X152648429Y-77416819D02*
X152553191Y-77369200D01*
X152553191Y-77369200D02*
X152505572Y-77321580D01*
D12*
%TO.C,R10*%
X138183336Y-91353600D02*
X142537464Y-91353600D01*
X138183336Y-94773600D02*
X142537464Y-94773600D01*
%TO.C,SW7*%
X176989399Y-77980000D02*
X173169399Y-77980000D01*
X173169399Y-77980000D02*
X173169399Y-79330000D01*
X176989399Y-79330000D02*
X176989399Y-77980000D01*
X176989399Y-81830000D02*
X176989399Y-80850000D01*
X173169399Y-81830000D02*
X173169399Y-80850000D01*
X176989399Y-84330000D02*
X176989399Y-83350000D01*
X173169399Y-84330000D02*
X173169399Y-83350000D01*
X176989399Y-87200000D02*
X176989399Y-85850000D01*
X176989399Y-87200000D02*
X173169399Y-87200000D01*
X173169399Y-87200000D02*
X173169399Y-85850000D01*
%TO.C,SW1*%
X107139047Y-77980000D02*
X103319047Y-77980000D01*
X103319047Y-77980000D02*
X103319047Y-79330000D01*
X107139047Y-79330000D02*
X107139047Y-77980000D01*
X107139047Y-81830000D02*
X107139047Y-80850000D01*
X103319047Y-81830000D02*
X103319047Y-80850000D01*
X107139047Y-84330000D02*
X107139047Y-83350000D01*
X103319047Y-84330000D02*
X103319047Y-83350000D01*
X107139047Y-87200000D02*
X107139047Y-85850000D01*
X107139047Y-87200000D02*
X103319047Y-87200000D01*
X103319047Y-87200000D02*
X103319047Y-85850000D01*
%TO.C,R19*%
X173057536Y-91353600D02*
X177411664Y-91353600D01*
X173057536Y-94773600D02*
X177411664Y-94773600D01*
%TO.C,R7*%
X126651736Y-91353600D02*
X131005864Y-91353600D01*
X126651736Y-94773600D02*
X131005864Y-94773600D01*
%TO.C,R9*%
X132977200Y-97820736D02*
X132977200Y-102174864D01*
X129557200Y-97820736D02*
X129557200Y-102174864D01*
%TO.C,R14*%
X151087400Y-97820736D02*
X151087400Y-102174864D01*
X147667400Y-97820736D02*
X147667400Y-102174864D01*
%TO.C,R16*%
X161322736Y-91353600D02*
X165676864Y-91353600D01*
X161322736Y-94773600D02*
X165676864Y-94773600D01*
%TO.C,SW3*%
X130422497Y-77980000D02*
X126602497Y-77980000D01*
X126602497Y-77980000D02*
X126602497Y-79330000D01*
X130422497Y-79330000D02*
X130422497Y-77980000D01*
X130422497Y-81830000D02*
X130422497Y-80850000D01*
X126602497Y-81830000D02*
X126602497Y-80850000D01*
X130422497Y-84330000D02*
X130422497Y-83350000D01*
X126602497Y-84330000D02*
X126602497Y-83350000D01*
X130422497Y-87200000D02*
X130422497Y-85850000D01*
X130422497Y-87200000D02*
X126602497Y-87200000D01*
X126602497Y-87200000D02*
X126602497Y-85850000D01*
%TO.C,R13*%
X149765736Y-91353600D02*
X154119864Y-91353600D01*
X149765736Y-94773600D02*
X154119864Y-94773600D01*
%TO.C,J1*%
X97245200Y-79114000D02*
X97245200Y-94114000D01*
X82245200Y-79114000D02*
X97245200Y-79114000D01*
X82445200Y-86614000D02*
X83445200Y-85614000D01*
X82445200Y-86614000D02*
X83445200Y-87614000D01*
X97245200Y-94114000D02*
X82245200Y-94114000D01*
X82245200Y-94114000D02*
X82245200Y-79114000D01*
%TO.C,R15*%
X155811800Y-97820736D02*
X155811800Y-102174864D01*
X152391800Y-97820736D02*
X152391800Y-102174864D01*
%TO.C,SW4*%
X142064222Y-77980000D02*
X138244222Y-77980000D01*
X138244222Y-77980000D02*
X138244222Y-79330000D01*
X142064222Y-79330000D02*
X142064222Y-77980000D01*
X142064222Y-81830000D02*
X142064222Y-80850000D01*
X138244222Y-81830000D02*
X138244222Y-80850000D01*
X142064222Y-84330000D02*
X142064222Y-83350000D01*
X138244222Y-84330000D02*
X138244222Y-83350000D01*
X142064222Y-87200000D02*
X142064222Y-85850000D01*
X142064222Y-87200000D02*
X138244222Y-87200000D01*
X138244222Y-87200000D02*
X138244222Y-85850000D01*
%TO.C,R21*%
X179205200Y-97820736D02*
X179205200Y-102174864D01*
X175785200Y-97820736D02*
X175785200Y-102174864D01*
%TO.C,J2*%
X196723000Y-79114000D02*
X196723000Y-94114000D01*
X181723000Y-79114000D02*
X196723000Y-79114000D01*
X196523000Y-86614000D02*
X195523000Y-85614000D01*
X196523000Y-86614000D02*
X195523000Y-87614000D01*
X196723000Y-94114000D02*
X181723000Y-94114000D01*
X181723000Y-94114000D02*
X181723000Y-79114000D01*
%TO.C,SW6*%
X165347672Y-77980000D02*
X161527672Y-77980000D01*
X161527672Y-77980000D02*
X161527672Y-79330000D01*
X165347672Y-79330000D02*
X165347672Y-77980000D01*
X165347672Y-81830000D02*
X165347672Y-80850000D01*
X161527672Y-81830000D02*
X161527672Y-80850000D01*
X165347672Y-84330000D02*
X165347672Y-83350000D01*
X161527672Y-84330000D02*
X161527672Y-83350000D01*
X165347672Y-87200000D02*
X165347672Y-85850000D01*
X165347672Y-87200000D02*
X161527672Y-87200000D01*
X161527672Y-87200000D02*
X161527672Y-85850000D01*
%TO.C,R3*%
X108923400Y-97820736D02*
X108923400Y-102174864D01*
X105503400Y-97820736D02*
X105503400Y-102174864D01*
%TO.C,R8*%
X127744800Y-97820736D02*
X127744800Y-102174864D01*
X124324800Y-97820736D02*
X124324800Y-102174864D01*
%TO.C,R12*%
X144381800Y-97820736D02*
X144381800Y-102174864D01*
X140961800Y-97820736D02*
X140961800Y-102174864D01*
%TO.C,SW2*%
X118780772Y-77980000D02*
X114960772Y-77980000D01*
X114960772Y-77980000D02*
X114960772Y-79330000D01*
X118780772Y-79330000D02*
X118780772Y-77980000D01*
X118780772Y-81830000D02*
X118780772Y-80850000D01*
X114960772Y-81830000D02*
X114960772Y-80850000D01*
X118780772Y-84330000D02*
X118780772Y-83350000D01*
X114960772Y-84330000D02*
X114960772Y-83350000D01*
X118780772Y-87200000D02*
X118780772Y-85850000D01*
X118780772Y-87200000D02*
X114960772Y-87200000D01*
X114960772Y-87200000D02*
X114960772Y-85850000D01*
%TO.C,R18*%
X167394200Y-97820736D02*
X167394200Y-102174864D01*
X163974200Y-97820736D02*
X163974200Y-102174864D01*
%TO.C,R2*%
X104402200Y-97820736D02*
X104402200Y-102174864D01*
X100982200Y-97820736D02*
X100982200Y-102174864D01*
%TO.C,R6*%
X120709000Y-97820736D02*
X120709000Y-102174864D01*
X117289000Y-97820736D02*
X117289000Y-102174864D01*
%TO.C,R5*%
X115883000Y-97820736D02*
X115883000Y-102174864D01*
X112463000Y-97820736D02*
X112463000Y-102174864D01*
%TO.C,R17*%
X163050800Y-97820736D02*
X163050800Y-102174864D01*
X159630800Y-97820736D02*
X159630800Y-102174864D01*
%TO.C,R11*%
X139632000Y-97820736D02*
X139632000Y-102174864D01*
X136212000Y-97820736D02*
X136212000Y-102174864D01*
%TO.C,R1*%
X102953536Y-91353600D02*
X107307664Y-91353600D01*
X102953536Y-94773600D02*
X107307664Y-94773600D01*
%TO.C,R20*%
X174303000Y-97820736D02*
X174303000Y-102174864D01*
X170883000Y-97820736D02*
X170883000Y-102174864D01*
%TO.C,R4*%
X114639536Y-91353600D02*
X118993664Y-91353600D01*
X114639536Y-94773600D02*
X118993664Y-94773600D01*
%TO.C,SW5*%
X153705947Y-77980000D02*
X149885947Y-77980000D01*
X149885947Y-77980000D02*
X149885947Y-79330000D01*
X153705947Y-79330000D02*
X153705947Y-77980000D01*
X153705947Y-81830000D02*
X153705947Y-80850000D01*
X149885947Y-81830000D02*
X149885947Y-80850000D01*
X153705947Y-84330000D02*
X153705947Y-83350000D01*
X149885947Y-84330000D02*
X149885947Y-83350000D01*
X153705947Y-87200000D02*
X153705947Y-85850000D01*
X153705947Y-87200000D02*
X149885947Y-87200000D01*
X149885947Y-87200000D02*
X149885947Y-85850000D01*
%TD*%
%LPC*%
D13*
%TO.C,R10*%
X137310400Y-93063600D03*
X143410400Y-93063600D03*
%TD*%
D14*
%TO.C,SW7*%
X178079399Y-80090000D03*
X178079399Y-82590000D03*
X178079399Y-85090000D03*
X172079399Y-80090000D03*
X172079399Y-82590000D03*
X172079399Y-85090000D03*
%TD*%
%TO.C,SW1*%
X108229047Y-80090000D03*
X108229047Y-82590000D03*
X108229047Y-85090000D03*
X102229047Y-80090000D03*
X102229047Y-82590000D03*
X102229047Y-85090000D03*
%TD*%
D13*
%TO.C,R19*%
X172184600Y-93063600D03*
X178284600Y-93063600D03*
%TD*%
%TO.C,R7*%
X125778800Y-93063600D03*
X131878800Y-93063600D03*
%TD*%
D15*
%TO.C,R9*%
X131267200Y-96947800D03*
X131267200Y-103047800D03*
%TD*%
%TO.C,R14*%
X149377400Y-96947800D03*
X149377400Y-103047800D03*
%TD*%
D16*
%TO.C,H2*%
X194106800Y-102260400D03*
D17*
X194106800Y-102260400D03*
%TD*%
D13*
%TO.C,R16*%
X160449800Y-93063600D03*
X166549800Y-93063600D03*
%TD*%
D14*
%TO.C,SW3*%
X131512497Y-80090000D03*
X131512497Y-82590000D03*
X131512497Y-85090000D03*
X125512497Y-80090000D03*
X125512497Y-82590000D03*
X125512497Y-85090000D03*
%TD*%
D13*
%TO.C,R13*%
X148892800Y-93063600D03*
X154992800Y-93063600D03*
%TD*%
D18*
%TO.C,J1*%
X89865200Y-81534000D03*
D19*
X94945200Y-89154000D03*
D18*
X89865200Y-91694000D03*
D19*
X94945200Y-86614000D03*
%TD*%
D16*
%TO.C,H3*%
X84785200Y-70840600D03*
D17*
X84785200Y-70840600D03*
%TD*%
D15*
%TO.C,R15*%
X154101800Y-96947800D03*
X154101800Y-103047800D03*
%TD*%
D14*
%TO.C,SW4*%
X143154222Y-80090000D03*
X143154222Y-82590000D03*
X143154222Y-85090000D03*
X137154222Y-80090000D03*
X137154222Y-82590000D03*
X137154222Y-85090000D03*
%TD*%
D15*
%TO.C,R21*%
X177495200Y-96947800D03*
X177495200Y-103047800D03*
%TD*%
D19*
%TO.C,J2*%
X184023000Y-86614000D03*
D18*
X189103000Y-81534000D03*
D19*
X184023000Y-84074000D03*
D18*
X189103000Y-91694000D03*
%TD*%
D14*
%TO.C,SW6*%
X166437672Y-80090000D03*
X166437672Y-82590000D03*
X166437672Y-85090000D03*
X160437672Y-80090000D03*
X160437672Y-82590000D03*
X160437672Y-85090000D03*
%TD*%
D15*
%TO.C,R3*%
X107213400Y-96947800D03*
X107213400Y-103047800D03*
%TD*%
%TO.C,R8*%
X126034800Y-96947800D03*
X126034800Y-103047800D03*
%TD*%
%TO.C,R12*%
X142671800Y-96947800D03*
X142671800Y-103047800D03*
%TD*%
D16*
%TO.C,H1*%
X194284600Y-70840600D03*
D17*
X194284600Y-70840600D03*
%TD*%
D14*
%TO.C,SW2*%
X119870772Y-80090000D03*
X119870772Y-82590000D03*
X119870772Y-85090000D03*
X113870772Y-80090000D03*
X113870772Y-82590000D03*
X113870772Y-85090000D03*
%TD*%
D15*
%TO.C,R18*%
X165684200Y-96947800D03*
X165684200Y-103047800D03*
%TD*%
%TO.C,R2*%
X102692200Y-96947800D03*
X102692200Y-103047800D03*
%TD*%
%TO.C,R6*%
X118999000Y-96947800D03*
X118999000Y-103047800D03*
%TD*%
%TO.C,R5*%
X114173000Y-96947800D03*
X114173000Y-103047800D03*
%TD*%
%TO.C,R17*%
X161340800Y-96947800D03*
X161340800Y-103047800D03*
%TD*%
%TO.C,R11*%
X137922000Y-96947800D03*
X137922000Y-103047800D03*
%TD*%
D13*
%TO.C,R1*%
X102080600Y-93063600D03*
X108180600Y-93063600D03*
%TD*%
D16*
%TO.C,H4*%
X84734400Y-102260400D03*
D17*
X84734400Y-102260400D03*
%TD*%
D15*
%TO.C,R20*%
X172593000Y-96947800D03*
X172593000Y-103047800D03*
%TD*%
D13*
%TO.C,R4*%
X113766600Y-93063600D03*
X119866600Y-93063600D03*
%TD*%
D14*
%TO.C,SW5*%
X154795947Y-80090000D03*
X154795947Y-82590000D03*
X154795947Y-85090000D03*
X148795947Y-80090000D03*
X148795947Y-82590000D03*
X148795947Y-85090000D03*
%TD*%
%LPD*%
M02*
