%TF.GenerationSoftware,KiCad,Pcbnew,7.0.10-7.0.10~ubuntu22.04.1*%
%TF.CreationDate,2024-06-08T07:05:10-07:00*%
%TF.ProjectId,rf_attenuator_r3,72665f61-7474-4656-9e75-61746f725f72,rev?*%
%TF.SameCoordinates,Original*%
%TF.FileFunction,Copper,L1,Top*%
%TF.FilePolarity,Positive*%
%FSLAX46Y46*%
G04 Gerber Fmt 4.6, Leading zero omitted, Abs format (unit mm)*
G04 Created by KiCad (PCBNEW 7.0.10-7.0.10~ubuntu22.04.1) date 2024-06-08 07:05:10*
%MOMM*%
%LPD*%
G01*
G04 APERTURE LIST*
G04 Aperture macros list*
%AMRoundRect*
0 Rectangle with rounded corners*
0 $1 Rounding radius*
0 $2 $3 $4 $5 $6 $7 $8 $9 X,Y pos of 4 corners*
0 Add a 4 corners polygon primitive as box body*
4,1,4,$2,$3,$4,$5,$6,$7,$8,$9,$2,$3,0*
0 Add four circle primitives for the rounded corners*
1,1,$1+$1,$2,$3*
1,1,$1+$1,$4,$5*
1,1,$1+$1,$6,$7*
1,1,$1+$1,$8,$9*
0 Add four rect primitives between the rounded corners*
20,1,$1+$1,$2,$3,$4,$5,0*
20,1,$1+$1,$4,$5,$6,$7,0*
20,1,$1+$1,$6,$7,$8,$9,0*
20,1,$1+$1,$8,$9,$2,$3,0*%
G04 Aperture macros list end*
%TA.AperFunction,SMDPad,CuDef*%
%ADD10RoundRect,0.249999X-0.450001X-1.425001X0.450001X-1.425001X0.450001X1.425001X-0.450001X1.425001X0*%
%TD*%
%TA.AperFunction,SMDPad,CuDef*%
%ADD11R,2.500000X1.000000*%
%TD*%
%TA.AperFunction,SMDPad,CuDef*%
%ADD12RoundRect,0.249999X-1.425001X0.450001X-1.425001X-0.450001X1.425001X-0.450001X1.425001X0.450001X0*%
%TD*%
%TA.AperFunction,ComponentPad*%
%ADD13C,3.600000*%
%TD*%
%TA.AperFunction,ConnectorPad*%
%ADD14C,5.700000*%
%TD*%
%TA.AperFunction,ComponentPad*%
%ADD15O,7.000000X3.500000*%
%TD*%
%TA.AperFunction,ComponentPad*%
%ADD16O,2.500000X1.600000*%
%TD*%
%TA.AperFunction,ViaPad*%
%ADD17C,0.800000*%
%TD*%
%TA.AperFunction,Conductor*%
%ADD18C,0.250000*%
%TD*%
%TA.AperFunction,Conductor*%
%ADD19C,1.016000*%
%TD*%
G04 APERTURE END LIST*
D10*
%TO.P,R10,1*%
%TO.N,Net-(SW4B-C)*%
X137310400Y-93063600D03*
%TO.P,R10,2*%
%TO.N,Net-(SW4A-C)*%
X143410400Y-93063600D03*
%TD*%
D11*
%TO.P,SW7,1,A*%
%TO.N,Net-(SW7A-A)*%
X178079399Y-80090000D03*
%TO.P,SW7,2,B*%
%TO.N,Net-(J2-In)*%
X178079399Y-82590000D03*
%TO.P,SW7,3,C*%
%TO.N,Net-(SW7A-C)*%
X178079399Y-85090000D03*
%TO.P,SW7,4,A*%
%TO.N,Net-(SW7A-A)*%
X172079399Y-80090000D03*
%TO.P,SW7,5,B*%
%TO.N,Net-(SW6A-B)*%
X172079399Y-82590000D03*
%TO.P,SW7,6,C*%
%TO.N,Net-(SW7B-C)*%
X172079399Y-85090000D03*
%TD*%
%TO.P,SW1,1,A*%
%TO.N,Net-(SW1A-A)*%
X108229047Y-80090000D03*
%TO.P,SW1,2,B*%
%TO.N,Net-(SW1A-B)*%
X108229047Y-82590000D03*
%TO.P,SW1,3,C*%
%TO.N,Net-(SW1A-C)*%
X108229047Y-85090000D03*
%TO.P,SW1,4,A*%
%TO.N,Net-(SW1A-A)*%
X102229047Y-80090000D03*
%TO.P,SW1,5,B*%
%TO.N,Net-(J1-In)*%
X102229047Y-82590000D03*
%TO.P,SW1,6,C*%
%TO.N,Net-(SW1B-C)*%
X102229047Y-85090000D03*
%TD*%
D10*
%TO.P,R19,1*%
%TO.N,Net-(SW7B-C)*%
X172184600Y-93063600D03*
%TO.P,R19,2*%
%TO.N,Net-(SW7A-C)*%
X178284600Y-93063600D03*
%TD*%
%TO.P,R7,1*%
%TO.N,Net-(SW3B-C)*%
X125778800Y-93063600D03*
%TO.P,R7,2*%
%TO.N,Net-(SW3A-C)*%
X131878800Y-93063600D03*
%TD*%
D12*
%TO.P,R9,1*%
%TO.N,Net-(SW3A-C)*%
X131267200Y-96947800D03*
%TO.P,R9,2*%
%TO.N,GND*%
X131267200Y-103047800D03*
%TD*%
%TO.P,R14,1*%
%TO.N,Net-(SW5B-C)*%
X149377400Y-96947800D03*
%TO.P,R14,2*%
%TO.N,GND*%
X149377400Y-103047800D03*
%TD*%
D13*
%TO.P,H2,1,1*%
%TO.N,GND*%
X194106800Y-102260400D03*
D14*
X194106800Y-102260400D03*
%TD*%
D10*
%TO.P,R16,1*%
%TO.N,Net-(SW6B-C)*%
X160449800Y-93063600D03*
%TO.P,R16,2*%
%TO.N,Net-(SW6A-C)*%
X166549800Y-93063600D03*
%TD*%
D11*
%TO.P,SW3,1,A*%
%TO.N,Net-(SW3A-A)*%
X131512497Y-80090000D03*
%TO.P,SW3,2,B*%
%TO.N,Net-(SW3A-B)*%
X131512497Y-82590000D03*
%TO.P,SW3,3,C*%
%TO.N,Net-(SW3A-C)*%
X131512497Y-85090000D03*
%TO.P,SW3,4,A*%
%TO.N,Net-(SW3A-A)*%
X125512497Y-80090000D03*
%TO.P,SW3,5,B*%
%TO.N,Net-(SW2A-B)*%
X125512497Y-82590000D03*
%TO.P,SW3,6,C*%
%TO.N,Net-(SW3B-C)*%
X125512497Y-85090000D03*
%TD*%
D10*
%TO.P,R13,1*%
%TO.N,Net-(SW5B-C)*%
X148892800Y-93063600D03*
%TO.P,R13,2*%
%TO.N,Net-(SW5A-C)*%
X154992800Y-93063600D03*
%TD*%
D15*
%TO.P,J1,2,Ext*%
%TO.N,GND*%
X89865200Y-81534000D03*
D16*
X94945200Y-89154000D03*
D15*
X89865200Y-91694000D03*
D16*
%TO.P,J1,1,In*%
%TO.N,Net-(J1-In)*%
X94945200Y-86614000D03*
%TD*%
D13*
%TO.P,H3,1,1*%
%TO.N,GND*%
X84785200Y-70840600D03*
D14*
X84785200Y-70840600D03*
%TD*%
D12*
%TO.P,R15,1*%
%TO.N,Net-(SW5A-C)*%
X154101800Y-96947800D03*
%TO.P,R15,2*%
%TO.N,GND*%
X154101800Y-103047800D03*
%TD*%
D11*
%TO.P,SW4,1,A*%
%TO.N,Net-(SW4A-A)*%
X143154222Y-80090000D03*
%TO.P,SW4,2,B*%
%TO.N,Net-(SW4A-B)*%
X143154222Y-82590000D03*
%TO.P,SW4,3,C*%
%TO.N,Net-(SW4A-C)*%
X143154222Y-85090000D03*
%TO.P,SW4,4,A*%
%TO.N,Net-(SW4A-A)*%
X137154222Y-80090000D03*
%TO.P,SW4,5,B*%
%TO.N,Net-(SW3A-B)*%
X137154222Y-82590000D03*
%TO.P,SW4,6,C*%
%TO.N,Net-(SW4B-C)*%
X137154222Y-85090000D03*
%TD*%
D12*
%TO.P,R21,1*%
%TO.N,Net-(SW7A-C)*%
X177495200Y-96947800D03*
%TO.P,R21,2*%
%TO.N,GND*%
X177495200Y-103047800D03*
%TD*%
D16*
%TO.P,J2,1,In*%
%TO.N,Net-(J2-In)*%
X184023000Y-86614000D03*
D15*
%TO.P,J2,2,Ext*%
%TO.N,GND*%
X189103000Y-81534000D03*
D16*
X184023000Y-84074000D03*
D15*
X189103000Y-91694000D03*
%TD*%
D11*
%TO.P,SW6,1,A*%
%TO.N,Net-(SW6A-A)*%
X166437672Y-80090000D03*
%TO.P,SW6,2,B*%
%TO.N,Net-(SW6A-B)*%
X166437672Y-82590000D03*
%TO.P,SW6,3,C*%
%TO.N,Net-(SW6A-C)*%
X166437672Y-85090000D03*
%TO.P,SW6,4,A*%
%TO.N,Net-(SW6A-A)*%
X160437672Y-80090000D03*
%TO.P,SW6,5,B*%
%TO.N,Net-(SW5A-B)*%
X160437672Y-82590000D03*
%TO.P,SW6,6,C*%
%TO.N,Net-(SW6B-C)*%
X160437672Y-85090000D03*
%TD*%
D12*
%TO.P,R3,1*%
%TO.N,Net-(SW1A-C)*%
X107213400Y-96947800D03*
%TO.P,R3,2*%
%TO.N,GND*%
X107213400Y-103047800D03*
%TD*%
%TO.P,R8,1*%
%TO.N,Net-(SW3B-C)*%
X126034800Y-96947800D03*
%TO.P,R8,2*%
%TO.N,GND*%
X126034800Y-103047800D03*
%TD*%
%TO.P,R12,1*%
%TO.N,Net-(SW4A-C)*%
X142671800Y-96947800D03*
%TO.P,R12,2*%
%TO.N,GND*%
X142671800Y-103047800D03*
%TD*%
D13*
%TO.P,H1,1,1*%
%TO.N,GND*%
X194284600Y-70840600D03*
D14*
X194284600Y-70840600D03*
%TD*%
D11*
%TO.P,SW2,1,A*%
%TO.N,Net-(SW2A-A)*%
X119870772Y-80090000D03*
%TO.P,SW2,2,B*%
%TO.N,Net-(SW2A-B)*%
X119870772Y-82590000D03*
%TO.P,SW2,3,C*%
%TO.N,Net-(SW2A-C)*%
X119870772Y-85090000D03*
%TO.P,SW2,4,A*%
%TO.N,Net-(SW2A-A)*%
X113870772Y-80090000D03*
%TO.P,SW2,5,B*%
%TO.N,Net-(SW1A-B)*%
X113870772Y-82590000D03*
%TO.P,SW2,6,C*%
%TO.N,Net-(SW2B-C)*%
X113870772Y-85090000D03*
%TD*%
D12*
%TO.P,R18,1*%
%TO.N,Net-(SW6A-C)*%
X165684200Y-96947800D03*
%TO.P,R18,2*%
%TO.N,GND*%
X165684200Y-103047800D03*
%TD*%
%TO.P,R2,1*%
%TO.N,Net-(SW1B-C)*%
X102692200Y-96947800D03*
%TO.P,R2,2*%
%TO.N,GND*%
X102692200Y-103047800D03*
%TD*%
%TO.P,R6,1*%
%TO.N,Net-(SW2A-C)*%
X118999000Y-96947800D03*
%TO.P,R6,2*%
%TO.N,GND*%
X118999000Y-103047800D03*
%TD*%
%TO.P,R5,1*%
%TO.N,Net-(SW2B-C)*%
X114173000Y-96947800D03*
%TO.P,R5,2*%
%TO.N,GND*%
X114173000Y-103047800D03*
%TD*%
%TO.P,R17,1*%
%TO.N,Net-(SW6B-C)*%
X161340800Y-96947800D03*
%TO.P,R17,2*%
%TO.N,GND*%
X161340800Y-103047800D03*
%TD*%
%TO.P,R11,1*%
%TO.N,Net-(SW4B-C)*%
X137922000Y-96947800D03*
%TO.P,R11,2*%
%TO.N,GND*%
X137922000Y-103047800D03*
%TD*%
D10*
%TO.P,R1,1*%
%TO.N,Net-(SW1B-C)*%
X102080600Y-93063600D03*
%TO.P,R1,2*%
%TO.N,Net-(SW1A-C)*%
X108180600Y-93063600D03*
%TD*%
D13*
%TO.P,H4,1,1*%
%TO.N,GND*%
X84734400Y-102260400D03*
D14*
X84734400Y-102260400D03*
%TD*%
D12*
%TO.P,R20,1*%
%TO.N,Net-(SW7B-C)*%
X172593000Y-96947800D03*
%TO.P,R20,2*%
%TO.N,GND*%
X172593000Y-103047800D03*
%TD*%
D10*
%TO.P,R4,1*%
%TO.N,Net-(SW2B-C)*%
X113766600Y-93063600D03*
%TO.P,R4,2*%
%TO.N,Net-(SW2A-C)*%
X119866600Y-93063600D03*
%TD*%
D11*
%TO.P,SW5,1,A*%
%TO.N,Net-(SW5A-A)*%
X154795947Y-80090000D03*
%TO.P,SW5,2,B*%
%TO.N,Net-(SW5A-B)*%
X154795947Y-82590000D03*
%TO.P,SW5,3,C*%
%TO.N,Net-(SW5A-C)*%
X154795947Y-85090000D03*
%TO.P,SW5,4,A*%
%TO.N,Net-(SW5A-A)*%
X148795947Y-80090000D03*
%TO.P,SW5,5,B*%
%TO.N,Net-(SW4A-B)*%
X148795947Y-82590000D03*
%TO.P,SW5,6,C*%
%TO.N,Net-(SW5B-C)*%
X148795947Y-85090000D03*
%TD*%
D17*
%TO.N,GND*%
X180721000Y-76428600D03*
X180721000Y-80797400D03*
X180848000Y-86918800D03*
X180721000Y-98272600D03*
X180721000Y-89535000D03*
X180721000Y-93903800D03*
X180721000Y-102641400D03*
X169164000Y-76479400D03*
X169164000Y-80848200D03*
X169164000Y-85217000D03*
X169164000Y-98323400D03*
X169164000Y-89585800D03*
X169164000Y-93954600D03*
X169164000Y-102692200D03*
X157607000Y-76149200D03*
X157607000Y-80518000D03*
X157607000Y-84886800D03*
X157607000Y-97993200D03*
X157607000Y-89255600D03*
X157607000Y-93624400D03*
X157607000Y-102362000D03*
X146024600Y-76479400D03*
X146024600Y-80848200D03*
X146024600Y-85217000D03*
X146024600Y-98323400D03*
X146024600Y-89585800D03*
X146024600Y-93954600D03*
X146024600Y-102692200D03*
X134315200Y-76479400D03*
X134315200Y-80848200D03*
X134315200Y-85217000D03*
X134315200Y-98323400D03*
X134315200Y-89585800D03*
X134315200Y-93954600D03*
X134315200Y-102692200D03*
X122580400Y-76352400D03*
X122580400Y-80721200D03*
X122580400Y-85090000D03*
X122580400Y-98196400D03*
X122580400Y-89458800D03*
X122580400Y-93827600D03*
X122580400Y-102565200D03*
X110998000Y-93878400D03*
X110998000Y-80772000D03*
X110998000Y-98247200D03*
X110998000Y-89509600D03*
X110998000Y-85140800D03*
X110998000Y-102616000D03*
X110998000Y-76403200D03*
X99060000Y-102768400D03*
X99060000Y-76555600D03*
X190398400Y-76403200D03*
X183540400Y-80873600D03*
X106603800Y-72542400D03*
X94386400Y-72694800D03*
X99060000Y-85293200D03*
X194106800Y-90017600D03*
X163830000Y-74345800D03*
X92405200Y-101066600D03*
X186842400Y-96443800D03*
X169773600Y-73685400D03*
X150393400Y-74853800D03*
X87782400Y-85496400D03*
X99060000Y-89662000D03*
X180416200Y-72542400D03*
X194513200Y-82194400D03*
X182397400Y-98425000D03*
X137439400Y-71958200D03*
X184124600Y-89611200D03*
X86385400Y-88036400D03*
X91592400Y-86893400D03*
X99060000Y-98399600D03*
X187502800Y-87299800D03*
X119202200Y-71704200D03*
X84328000Y-82600800D03*
X99060000Y-80924400D03*
X99060000Y-94030800D03*
X191389000Y-87223600D03*
X94894400Y-81762600D03*
%TD*%
D18*
%TO.N,GND*%
X189011400Y-82590000D02*
X189189600Y-82768200D01*
X189128400Y-82829400D02*
X189189600Y-82768200D01*
D19*
%TO.N,Net-(J1-In)*%
X98969200Y-82590000D02*
X94945200Y-86614000D01*
D18*
X102167447Y-82651600D02*
X102229047Y-82590000D01*
D19*
X102229047Y-82590000D02*
X98969200Y-82590000D01*
D18*
%TO.N,Net-(J2-In)*%
X182905400Y-86614000D02*
X184023000Y-86614000D01*
X178079399Y-82590000D02*
X178881400Y-82590000D01*
D19*
X178881400Y-82590000D02*
X182905400Y-86614000D01*
D18*
%TO.N,Net-(SW1A-C)*%
X108180600Y-95980600D02*
X107213400Y-96947800D01*
X108229047Y-93015153D02*
X108180600Y-93063600D01*
D19*
X108180600Y-93063600D02*
X108180600Y-95980600D01*
X108229047Y-85090000D02*
X108229047Y-93015153D01*
%TO.N,Net-(SW1B-C)*%
X102229047Y-85090000D02*
X102229047Y-92915153D01*
D18*
X102080600Y-96336200D02*
X102692200Y-96947800D01*
X102406847Y-92737353D02*
X102080600Y-93063600D01*
X102229047Y-92915153D02*
X102080600Y-93063600D01*
D19*
X102080600Y-93063600D02*
X102080600Y-96336200D01*
%TO.N,Net-(SW1A-A)*%
X102229047Y-80090000D02*
X108229047Y-80090000D01*
D18*
%TO.N,Net-(SW2A-C)*%
X119866600Y-96080200D02*
X118999000Y-96947800D01*
D19*
X119870772Y-85090000D02*
X119870772Y-93059428D01*
X119866600Y-93063600D02*
X119866600Y-96080200D01*
D18*
X119870772Y-93059428D02*
X119866600Y-93063600D01*
D19*
%TO.N,Net-(SW2B-C)*%
X113766600Y-93063600D02*
X113766600Y-96541400D01*
X113870772Y-85090000D02*
X113870772Y-92959428D01*
D18*
X113766600Y-96541400D02*
X114173000Y-96947800D01*
X113870772Y-92959428D02*
X113766600Y-93063600D01*
%TO.N,Net-(SW3A-C)*%
X131512497Y-92697297D02*
X131878800Y-93063600D01*
X131878800Y-96336200D02*
X131267200Y-96947800D01*
D19*
X131512497Y-85090000D02*
X131512497Y-92697297D01*
X131878800Y-93063600D02*
X131878800Y-96336200D01*
%TO.N,Net-(SW3B-C)*%
X125512497Y-85090000D02*
X125512497Y-92797297D01*
D18*
X125512497Y-92797297D02*
X125778800Y-93063600D01*
D19*
X125778800Y-93063600D02*
X125778800Y-96691800D01*
D18*
X125778800Y-96691800D02*
X126034800Y-96947800D01*
D19*
%TO.N,Net-(SW4A-C)*%
X143410400Y-93063600D02*
X143410400Y-96209200D01*
D18*
X143410400Y-96209200D02*
X142671800Y-96947800D01*
X143154222Y-92807422D02*
X143410400Y-93063600D01*
D19*
X143154222Y-85090000D02*
X143154222Y-92807422D01*
%TO.N,Net-(SW4B-C)*%
X137310400Y-93063600D02*
X137310400Y-96336200D01*
X137154222Y-85090000D02*
X137154222Y-92907422D01*
D18*
X137154222Y-92907422D02*
X137310400Y-93063600D01*
X137310400Y-96336200D02*
X137922000Y-96947800D01*
D19*
%TO.N,Net-(SW5A-C)*%
X154795947Y-85090000D02*
X154795947Y-92866747D01*
D18*
X154992800Y-96056800D02*
X154101800Y-96947800D01*
X154795947Y-92866747D02*
X154992800Y-93063600D01*
D19*
X154992800Y-93063600D02*
X154992800Y-96056800D01*
%TO.N,Net-(SW5B-C)*%
X148795947Y-85090000D02*
X148795947Y-92966747D01*
D18*
X148795947Y-92966747D02*
X148892800Y-93063600D01*
D19*
X148892800Y-93063600D02*
X148892800Y-96463200D01*
D18*
X148892800Y-96463200D02*
X149377400Y-96947800D01*
D19*
%TO.N,Net-(SW6A-C)*%
X166437672Y-85090000D02*
X166437672Y-92951472D01*
D18*
X166437672Y-92951472D02*
X166549800Y-93063600D01*
X166549800Y-96082200D02*
X165684200Y-96947800D01*
D19*
X166549800Y-93063600D02*
X166549800Y-96082200D01*
D18*
%TO.N,Net-(SW6B-C)*%
X160437672Y-93051472D02*
X160449800Y-93063600D01*
D19*
X160437672Y-85090000D02*
X160437672Y-93051472D01*
X160449800Y-93063600D02*
X160449800Y-96056800D01*
D18*
X160449800Y-96056800D02*
X161340800Y-96947800D01*
%TO.N,Net-(SW7A-C)*%
X178284600Y-96158400D02*
X177495200Y-96947800D01*
X178257199Y-93036199D02*
X178284600Y-93063600D01*
X178079399Y-85090000D02*
X178079399Y-90017600D01*
X178284600Y-90222801D02*
X178079399Y-90017600D01*
D19*
X178284600Y-93063600D02*
X178284600Y-96158400D01*
D18*
X178079399Y-90017600D02*
X178079399Y-90091799D01*
X178284600Y-93063600D02*
X178284600Y-90222801D01*
%TO.N,Net-(SW7B-C)*%
X172257199Y-92991001D02*
X172184600Y-93063600D01*
X172079399Y-85090000D02*
X172079399Y-89890600D01*
X172184600Y-96539400D02*
X172593000Y-96947800D01*
X172079399Y-89890600D02*
X172079399Y-90046601D01*
D19*
X172184600Y-93063600D02*
X172184600Y-96539400D01*
D18*
X172184600Y-93063600D02*
X172184600Y-89995801D01*
X172184600Y-89995801D02*
X172079399Y-89890600D01*
D19*
%TO.N,Net-(SW2A-A)*%
X113870772Y-80090000D02*
X119870772Y-80090000D01*
%TO.N,Net-(SW2A-B)*%
X119870772Y-82590000D02*
X125512497Y-82590000D01*
%TO.N,Net-(SW3A-A)*%
X125512497Y-80090000D02*
X131512497Y-80090000D01*
%TO.N,Net-(SW3A-B)*%
X131512497Y-82590000D02*
X137154222Y-82590000D01*
%TO.N,Net-(SW4A-A)*%
X137154222Y-80090000D02*
X143154222Y-80090000D01*
%TO.N,Net-(SW4A-B)*%
X143154222Y-82590000D02*
X148795947Y-82590000D01*
%TO.N,Net-(SW5A-A)*%
X148795947Y-80090000D02*
X154795947Y-80090000D01*
%TO.N,Net-(SW5A-B)*%
X154795947Y-82590000D02*
X160437672Y-82590000D01*
%TO.N,Net-(SW6A-A)*%
X160437672Y-80090000D02*
X166437672Y-80090000D01*
%TO.N,Net-(SW6A-B)*%
X166437672Y-82590000D02*
X172079399Y-82590000D01*
%TO.N,Net-(SW7A-A)*%
X172079399Y-80090000D02*
X178079399Y-80090000D01*
%TO.N,Net-(SW1A-B)*%
X108229047Y-82590000D02*
X113870772Y-82590000D01*
%TD*%
%TA.AperFunction,Conductor*%
%TO.N,GND*%
G36*
X83599530Y-103395270D02*
G01*
X83790218Y-103558132D01*
X82546288Y-104802062D01*
X82546288Y-104802064D01*
X82562470Y-104817392D01*
X82562471Y-104817393D01*
X82851666Y-105037232D01*
X82851682Y-105037243D01*
X83162922Y-105224509D01*
X83162935Y-105224516D01*
X83492605Y-105377039D01*
X83492609Y-105377040D01*
X83549449Y-105396192D01*
X83606694Y-105436252D01*
X83633194Y-105500901D01*
X83620534Y-105569615D01*
X83572735Y-105620576D01*
X83509910Y-105637701D01*
X81506154Y-105638578D01*
X81439106Y-105618923D01*
X81393328Y-105566139D01*
X81382100Y-105514578D01*
X81382100Y-104885471D01*
X81382495Y-104290697D01*
X81382989Y-103545810D01*
X81402718Y-103478786D01*
X81455552Y-103433066D01*
X81524717Y-103423169D01*
X81588254Y-103452236D01*
X81622182Y-103499998D01*
X81689552Y-103669083D01*
X81689561Y-103669102D01*
X81859716Y-103990047D01*
X81859718Y-103990051D01*
X82063570Y-104290709D01*
X82063577Y-104290719D01*
X82195369Y-104445875D01*
X82195370Y-104445875D01*
X83436666Y-103204580D01*
X83599530Y-103395270D01*
G37*
%TD.AperFunction*%
%TA.AperFunction,Conductor*%
G36*
X193432763Y-67381360D02*
G01*
X193478529Y-67434154D01*
X193488488Y-67503310D01*
X193459477Y-67566872D01*
X193400707Y-67604659D01*
X193392413Y-67606789D01*
X193387060Y-67607967D01*
X193042810Y-67723959D01*
X193042805Y-67723960D01*
X192713135Y-67876483D01*
X192713122Y-67876490D01*
X192401882Y-68063756D01*
X192401866Y-68063767D01*
X192112675Y-68283602D01*
X192096488Y-68298935D01*
X192096487Y-68298935D01*
X193340419Y-69542866D01*
X193149730Y-69705730D01*
X192986866Y-69896418D01*
X191745570Y-68655122D01*
X191745569Y-68655123D01*
X191613777Y-68810280D01*
X191613770Y-68810290D01*
X191409918Y-69110948D01*
X191409916Y-69110952D01*
X191239761Y-69431897D01*
X191239752Y-69431915D01*
X191105297Y-69769372D01*
X191105295Y-69769379D01*
X191008119Y-70119377D01*
X191008117Y-70119385D01*
X190949346Y-70477871D01*
X190929680Y-70840597D01*
X190929680Y-70840602D01*
X190949346Y-71203328D01*
X191008117Y-71561814D01*
X191008119Y-71561822D01*
X191105295Y-71911820D01*
X191105297Y-71911827D01*
X191239752Y-72249284D01*
X191239761Y-72249302D01*
X191409916Y-72570247D01*
X191409918Y-72570251D01*
X191613770Y-72870909D01*
X191613777Y-72870919D01*
X191745569Y-73026075D01*
X191745570Y-73026075D01*
X192986866Y-71784780D01*
X193149730Y-71975470D01*
X193340418Y-72138332D01*
X192096488Y-73382262D01*
X192096488Y-73382264D01*
X192112670Y-73397592D01*
X192112671Y-73397593D01*
X192401866Y-73617432D01*
X192401882Y-73617443D01*
X192713122Y-73804709D01*
X192713135Y-73804716D01*
X193042805Y-73957239D01*
X193042810Y-73957240D01*
X193387061Y-74073232D01*
X193741835Y-74151324D01*
X194102966Y-74190599D01*
X194102974Y-74190600D01*
X194466226Y-74190600D01*
X194466233Y-74190599D01*
X194827364Y-74151324D01*
X195182138Y-74073232D01*
X195526389Y-73957240D01*
X195526394Y-73957239D01*
X195856064Y-73804716D01*
X195856077Y-73804709D01*
X196167317Y-73617443D01*
X196167333Y-73617432D01*
X196456529Y-73397592D01*
X196472710Y-73382264D01*
X196472710Y-73382263D01*
X195228780Y-72138333D01*
X195419470Y-71975470D01*
X195582333Y-71784780D01*
X196823628Y-73026075D01*
X196823629Y-73026075D01*
X196955427Y-72870911D01*
X196955438Y-72870897D01*
X197159280Y-72570252D01*
X197204087Y-72485738D01*
X197252880Y-72435728D01*
X197320965Y-72420036D01*
X197386725Y-72443645D01*
X197429282Y-72499059D01*
X197437643Y-72543738D01*
X197456532Y-100970610D01*
X197436892Y-101037662D01*
X197384118Y-101083452D01*
X197314967Y-101093442D01*
X197251392Y-101064459D01*
X197217339Y-101016589D01*
X197151647Y-100851715D01*
X197151638Y-100851697D01*
X196981483Y-100530752D01*
X196981481Y-100530748D01*
X196777629Y-100230090D01*
X196777622Y-100230080D01*
X196645829Y-100074923D01*
X196645828Y-100074923D01*
X195404532Y-101316218D01*
X195241670Y-101125530D01*
X195050980Y-100962666D01*
X196294910Y-99718736D01*
X196294910Y-99718734D01*
X196278729Y-99703407D01*
X196278728Y-99703406D01*
X195989533Y-99483567D01*
X195989517Y-99483556D01*
X195678277Y-99296290D01*
X195678264Y-99296283D01*
X195348594Y-99143760D01*
X195348589Y-99143759D01*
X195004338Y-99027767D01*
X194649564Y-98949675D01*
X194288433Y-98910400D01*
X193925166Y-98910400D01*
X193564035Y-98949675D01*
X193209261Y-99027767D01*
X192865010Y-99143759D01*
X192865005Y-99143760D01*
X192535335Y-99296283D01*
X192535322Y-99296290D01*
X192224082Y-99483556D01*
X192224066Y-99483567D01*
X191934875Y-99703402D01*
X191918688Y-99718735D01*
X191918687Y-99718735D01*
X193162619Y-100962666D01*
X192971930Y-101125530D01*
X192809066Y-101316218D01*
X191567770Y-100074922D01*
X191567769Y-100074923D01*
X191435977Y-100230080D01*
X191435970Y-100230090D01*
X191232118Y-100530748D01*
X191232116Y-100530752D01*
X191061961Y-100851697D01*
X191061952Y-100851715D01*
X190927497Y-101189172D01*
X190927495Y-101189179D01*
X190830319Y-101539177D01*
X190830317Y-101539185D01*
X190771546Y-101897671D01*
X190751880Y-102260397D01*
X190751880Y-102260402D01*
X190771546Y-102623128D01*
X190830317Y-102981614D01*
X190830319Y-102981622D01*
X190927495Y-103331620D01*
X190927497Y-103331627D01*
X191061952Y-103669084D01*
X191061961Y-103669102D01*
X191232116Y-103990047D01*
X191232118Y-103990051D01*
X191435970Y-104290709D01*
X191435977Y-104290719D01*
X191567769Y-104445875D01*
X191567770Y-104445875D01*
X192809066Y-103204580D01*
X192971930Y-103395270D01*
X193162618Y-103558132D01*
X191918688Y-104802062D01*
X191918688Y-104802064D01*
X191934870Y-104817392D01*
X191934871Y-104817393D01*
X192224066Y-105037232D01*
X192224082Y-105037243D01*
X192535322Y-105224509D01*
X192535335Y-105224516D01*
X192813734Y-105353318D01*
X192866312Y-105399332D01*
X192885666Y-105466468D01*
X192865652Y-105533409D01*
X192812623Y-105578904D01*
X192761722Y-105589857D01*
X85962184Y-105636627D01*
X85895136Y-105616972D01*
X85849358Y-105564188D01*
X85839384Y-105495034D01*
X85868382Y-105431465D01*
X85922538Y-105395118D01*
X85976185Y-105377042D01*
X85976194Y-105377039D01*
X86305864Y-105224516D01*
X86305877Y-105224509D01*
X86617117Y-105037243D01*
X86617133Y-105037232D01*
X86906329Y-104817392D01*
X86922510Y-104802064D01*
X86922510Y-104802063D01*
X85678580Y-103558133D01*
X85869270Y-103395270D01*
X86032133Y-103204580D01*
X87273428Y-104445875D01*
X87273429Y-104445875D01*
X87405227Y-104290711D01*
X87405238Y-104290697D01*
X87609081Y-103990051D01*
X87609083Y-103990047D01*
X87779238Y-103669102D01*
X87779247Y-103669084D01*
X87913702Y-103331627D01*
X87913704Y-103331620D01*
X87923094Y-103297800D01*
X100517201Y-103297800D01*
X100517201Y-103547786D01*
X100527694Y-103650496D01*
X100527694Y-103650498D01*
X100582840Y-103816919D01*
X100582845Y-103816930D01*
X100674880Y-103966140D01*
X100674883Y-103966144D01*
X100798855Y-104090116D01*
X100798859Y-104090119D01*
X100948069Y-104182154D01*
X100948080Y-104182159D01*
X101114502Y-104237305D01*
X101217220Y-104247799D01*
X102442199Y-104247799D01*
X102442200Y-104247798D01*
X102442200Y-103297800D01*
X100517201Y-103297800D01*
X87923094Y-103297800D01*
X88010880Y-102981622D01*
X88010882Y-102981614D01*
X88041017Y-102797800D01*
X100517200Y-102797800D01*
X102442200Y-102797800D01*
X102442200Y-101847800D01*
X102942200Y-101847800D01*
X102942200Y-104247799D01*
X104167172Y-104247799D01*
X104167186Y-104247798D01*
X104269896Y-104237305D01*
X104269898Y-104237305D01*
X104436319Y-104182159D01*
X104436330Y-104182154D01*
X104585540Y-104090119D01*
X104585544Y-104090116D01*
X104709516Y-103966144D01*
X104709519Y-103966140D01*
X104801554Y-103816930D01*
X104801559Y-103816919D01*
X104835094Y-103715718D01*
X104874866Y-103658273D01*
X104939382Y-103631450D01*
X105008158Y-103643765D01*
X105059358Y-103691308D01*
X105070506Y-103715718D01*
X105104040Y-103816919D01*
X105104045Y-103816930D01*
X105196080Y-103966140D01*
X105196083Y-103966144D01*
X105320055Y-104090116D01*
X105320059Y-104090119D01*
X105469269Y-104182154D01*
X105469280Y-104182159D01*
X105635702Y-104237305D01*
X105738420Y-104247799D01*
X106963399Y-104247799D01*
X106963400Y-104247798D01*
X106963400Y-103297800D01*
X107463400Y-103297800D01*
X107463400Y-104247799D01*
X108688372Y-104247799D01*
X108688386Y-104247798D01*
X108791096Y-104237305D01*
X108791098Y-104237305D01*
X108957519Y-104182159D01*
X108957530Y-104182154D01*
X109106740Y-104090119D01*
X109106744Y-104090116D01*
X109230716Y-103966144D01*
X109230719Y-103966140D01*
X109322754Y-103816930D01*
X109322759Y-103816919D01*
X109377905Y-103650497D01*
X109388399Y-103547786D01*
X109388400Y-103547773D01*
X109388400Y-103297800D01*
X111998001Y-103297800D01*
X111998001Y-103547786D01*
X112008494Y-103650496D01*
X112008494Y-103650498D01*
X112063640Y-103816919D01*
X112063645Y-103816930D01*
X112155680Y-103966140D01*
X112155683Y-103966144D01*
X112279655Y-104090116D01*
X112279659Y-104090119D01*
X112428869Y-104182154D01*
X112428880Y-104182159D01*
X112595302Y-104237305D01*
X112698020Y-104247799D01*
X113922999Y-104247799D01*
X113923000Y-104247798D01*
X113923000Y-103297800D01*
X114423000Y-103297800D01*
X114423000Y-104247799D01*
X115647972Y-104247799D01*
X115647986Y-104247798D01*
X115750696Y-104237305D01*
X115750698Y-104237305D01*
X115917119Y-104182159D01*
X115917130Y-104182154D01*
X116066340Y-104090119D01*
X116066344Y-104090116D01*
X116190316Y-103966144D01*
X116190319Y-103966140D01*
X116282354Y-103816930D01*
X116282359Y-103816919D01*
X116337505Y-103650497D01*
X116347999Y-103547786D01*
X116348000Y-103547773D01*
X116348000Y-103297800D01*
X116824001Y-103297800D01*
X116824001Y-103547786D01*
X116834494Y-103650496D01*
X116834494Y-103650498D01*
X116889640Y-103816919D01*
X116889645Y-103816930D01*
X116981680Y-103966140D01*
X116981683Y-103966144D01*
X117105655Y-104090116D01*
X117105659Y-104090119D01*
X117254869Y-104182154D01*
X117254880Y-104182159D01*
X117421302Y-104237305D01*
X117524020Y-104247799D01*
X118748999Y-104247799D01*
X118749000Y-104247798D01*
X118749000Y-103297800D01*
X119249000Y-103297800D01*
X119249000Y-104247799D01*
X120473972Y-104247799D01*
X120473986Y-104247798D01*
X120576696Y-104237305D01*
X120576698Y-104237305D01*
X120743119Y-104182159D01*
X120743130Y-104182154D01*
X120892340Y-104090119D01*
X120892344Y-104090116D01*
X121016316Y-103966144D01*
X121016319Y-103966140D01*
X121108354Y-103816930D01*
X121108359Y-103816919D01*
X121163505Y-103650497D01*
X121173999Y-103547786D01*
X121174000Y-103547773D01*
X121174000Y-103297800D01*
X123859801Y-103297800D01*
X123859801Y-103547786D01*
X123870294Y-103650496D01*
X123870294Y-103650498D01*
X123925440Y-103816919D01*
X123925445Y-103816930D01*
X124017480Y-103966140D01*
X124017483Y-103966144D01*
X124141455Y-104090116D01*
X124141459Y-104090119D01*
X124290669Y-104182154D01*
X124290680Y-104182159D01*
X124457102Y-104237305D01*
X124559820Y-104247799D01*
X125784799Y-104247799D01*
X125784800Y-104247798D01*
X125784800Y-103297800D01*
X126284800Y-103297800D01*
X126284800Y-104247799D01*
X127509772Y-104247799D01*
X127509786Y-104247798D01*
X127612496Y-104237305D01*
X127612498Y-104237305D01*
X127778919Y-104182159D01*
X127778930Y-104182154D01*
X127928140Y-104090119D01*
X127928144Y-104090116D01*
X128052116Y-103966144D01*
X128052119Y-103966140D01*
X128144154Y-103816930D01*
X128144159Y-103816919D01*
X128199305Y-103650497D01*
X128209799Y-103547786D01*
X128209800Y-103547773D01*
X128209800Y-103297800D01*
X129092201Y-103297800D01*
X129092201Y-103547786D01*
X129102694Y-103650496D01*
X129102694Y-103650498D01*
X129157840Y-103816919D01*
X129157845Y-103816930D01*
X129249880Y-103966140D01*
X129249883Y-103966144D01*
X129373855Y-104090116D01*
X129373859Y-104090119D01*
X129523069Y-104182154D01*
X129523080Y-104182159D01*
X129689502Y-104237305D01*
X129792220Y-104247799D01*
X131017199Y-104247799D01*
X131017200Y-104247798D01*
X131017200Y-103297800D01*
X131517200Y-103297800D01*
X131517200Y-104247799D01*
X132742172Y-104247799D01*
X132742186Y-104247798D01*
X132844896Y-104237305D01*
X132844898Y-104237305D01*
X133011319Y-104182159D01*
X133011330Y-104182154D01*
X133160540Y-104090119D01*
X133160544Y-104090116D01*
X133284516Y-103966144D01*
X133284519Y-103966140D01*
X133376554Y-103816930D01*
X133376559Y-103816919D01*
X133431705Y-103650497D01*
X133442199Y-103547786D01*
X133442200Y-103547773D01*
X133442200Y-103297800D01*
X135747001Y-103297800D01*
X135747001Y-103547786D01*
X135757494Y-103650496D01*
X135757494Y-103650498D01*
X135812640Y-103816919D01*
X135812645Y-103816930D01*
X135904680Y-103966140D01*
X135904683Y-103966144D01*
X136028655Y-104090116D01*
X136028659Y-104090119D01*
X136177869Y-104182154D01*
X136177880Y-104182159D01*
X136344302Y-104237305D01*
X136447020Y-104247799D01*
X137671999Y-104247799D01*
X137672000Y-104247798D01*
X137672000Y-103297800D01*
X138172000Y-103297800D01*
X138172000Y-104247799D01*
X139396972Y-104247799D01*
X139396986Y-104247798D01*
X139499696Y-104237305D01*
X139499698Y-104237305D01*
X139666119Y-104182159D01*
X139666130Y-104182154D01*
X139815340Y-104090119D01*
X139815344Y-104090116D01*
X139939316Y-103966144D01*
X139939319Y-103966140D01*
X140031354Y-103816930D01*
X140031359Y-103816919D01*
X140086505Y-103650497D01*
X140096999Y-103547786D01*
X140097000Y-103547773D01*
X140097000Y-103297800D01*
X140496801Y-103297800D01*
X140496801Y-103547786D01*
X140507294Y-103650496D01*
X140507294Y-103650498D01*
X140562440Y-103816919D01*
X140562445Y-103816930D01*
X140654480Y-103966140D01*
X140654483Y-103966144D01*
X140778455Y-104090116D01*
X140778459Y-104090119D01*
X140927669Y-104182154D01*
X140927680Y-104182159D01*
X141094102Y-104237305D01*
X141196820Y-104247799D01*
X142421799Y-104247799D01*
X142421800Y-104247798D01*
X142421800Y-103297800D01*
X142921800Y-103297800D01*
X142921800Y-104247799D01*
X144146772Y-104247799D01*
X144146786Y-104247798D01*
X144249496Y-104237305D01*
X144249498Y-104237305D01*
X144415919Y-104182159D01*
X144415930Y-104182154D01*
X144565140Y-104090119D01*
X144565144Y-104090116D01*
X144689116Y-103966144D01*
X144689119Y-103966140D01*
X144781154Y-103816930D01*
X144781159Y-103816919D01*
X144836305Y-103650497D01*
X144846799Y-103547786D01*
X144846800Y-103547773D01*
X144846800Y-103297800D01*
X147202401Y-103297800D01*
X147202401Y-103547786D01*
X147212894Y-103650496D01*
X147212894Y-103650498D01*
X147268040Y-103816919D01*
X147268045Y-103816930D01*
X147360080Y-103966140D01*
X147360083Y-103966144D01*
X147484055Y-104090116D01*
X147484059Y-104090119D01*
X147633269Y-104182154D01*
X147633280Y-104182159D01*
X147799702Y-104237305D01*
X147902420Y-104247799D01*
X149127399Y-104247799D01*
X149127400Y-104247798D01*
X149127400Y-103297800D01*
X149627400Y-103297800D01*
X149627400Y-104247799D01*
X150852372Y-104247799D01*
X150852386Y-104247798D01*
X150955096Y-104237305D01*
X150955098Y-104237305D01*
X151121519Y-104182159D01*
X151121530Y-104182154D01*
X151270740Y-104090119D01*
X151270744Y-104090116D01*
X151394716Y-103966144D01*
X151394719Y-103966140D01*
X151486754Y-103816930D01*
X151486759Y-103816919D01*
X151541905Y-103650497D01*
X151552399Y-103547786D01*
X151552400Y-103547773D01*
X151552400Y-103297800D01*
X151926801Y-103297800D01*
X151926801Y-103547786D01*
X151937294Y-103650496D01*
X151937294Y-103650498D01*
X151992440Y-103816919D01*
X151992445Y-103816930D01*
X152084480Y-103966140D01*
X152084483Y-103966144D01*
X152208455Y-104090116D01*
X152208459Y-104090119D01*
X152357669Y-104182154D01*
X152357680Y-104182159D01*
X152524102Y-104237305D01*
X152626820Y-104247799D01*
X153851799Y-104247799D01*
X153851800Y-104247798D01*
X153851800Y-103297800D01*
X154351800Y-103297800D01*
X154351800Y-104247799D01*
X155576772Y-104247799D01*
X155576786Y-104247798D01*
X155679496Y-104237305D01*
X155679498Y-104237305D01*
X155845919Y-104182159D01*
X155845930Y-104182154D01*
X155995140Y-104090119D01*
X155995144Y-104090116D01*
X156119116Y-103966144D01*
X156119119Y-103966140D01*
X156211154Y-103816930D01*
X156211159Y-103816919D01*
X156266305Y-103650497D01*
X156276799Y-103547786D01*
X156276800Y-103547773D01*
X156276800Y-103297800D01*
X159165801Y-103297800D01*
X159165801Y-103547786D01*
X159176294Y-103650496D01*
X159176294Y-103650498D01*
X159231440Y-103816919D01*
X159231445Y-103816930D01*
X159323480Y-103966140D01*
X159323483Y-103966144D01*
X159447455Y-104090116D01*
X159447459Y-104090119D01*
X159596669Y-104182154D01*
X159596680Y-104182159D01*
X159763102Y-104237305D01*
X159865820Y-104247799D01*
X161090799Y-104247799D01*
X161090800Y-104247798D01*
X161090800Y-103297800D01*
X161590800Y-103297800D01*
X161590800Y-104247799D01*
X162815772Y-104247799D01*
X162815786Y-104247798D01*
X162918496Y-104237305D01*
X162918498Y-104237305D01*
X163084919Y-104182159D01*
X163084930Y-104182154D01*
X163234140Y-104090119D01*
X163234144Y-104090116D01*
X163358116Y-103966144D01*
X163358119Y-103966140D01*
X163406962Y-103886955D01*
X163458910Y-103840230D01*
X163527872Y-103829009D01*
X163591954Y-103856852D01*
X163618038Y-103886955D01*
X163666880Y-103966140D01*
X163666883Y-103966144D01*
X163790855Y-104090116D01*
X163790859Y-104090119D01*
X163940069Y-104182154D01*
X163940080Y-104182159D01*
X164106502Y-104237305D01*
X164209220Y-104247799D01*
X165434199Y-104247799D01*
X165434200Y-104247798D01*
X165434200Y-103297800D01*
X165934200Y-103297800D01*
X165934200Y-104247799D01*
X167159172Y-104247799D01*
X167159186Y-104247798D01*
X167261896Y-104237305D01*
X167261898Y-104237305D01*
X167428319Y-104182159D01*
X167428330Y-104182154D01*
X167577540Y-104090119D01*
X167577544Y-104090116D01*
X167701516Y-103966144D01*
X167701519Y-103966140D01*
X167793554Y-103816930D01*
X167793559Y-103816919D01*
X167848705Y-103650497D01*
X167859199Y-103547786D01*
X167859200Y-103547773D01*
X167859200Y-103297800D01*
X170418001Y-103297800D01*
X170418001Y-103547786D01*
X170428494Y-103650496D01*
X170428494Y-103650498D01*
X170483640Y-103816919D01*
X170483645Y-103816930D01*
X170575680Y-103966140D01*
X170575683Y-103966144D01*
X170699655Y-104090116D01*
X170699659Y-104090119D01*
X170848869Y-104182154D01*
X170848880Y-104182159D01*
X171015302Y-104237305D01*
X171118020Y-104247799D01*
X172342999Y-104247799D01*
X172343000Y-104247798D01*
X172343000Y-103297800D01*
X172843000Y-103297800D01*
X172843000Y-104247799D01*
X174067972Y-104247799D01*
X174067986Y-104247798D01*
X174170696Y-104237305D01*
X174170698Y-104237305D01*
X174337119Y-104182159D01*
X174337130Y-104182154D01*
X174486340Y-104090119D01*
X174486344Y-104090116D01*
X174610316Y-103966144D01*
X174610319Y-103966140D01*
X174702354Y-103816930D01*
X174702359Y-103816919D01*
X174757505Y-103650497D01*
X174767999Y-103547786D01*
X174768000Y-103547773D01*
X174768000Y-103297800D01*
X175320201Y-103297800D01*
X175320201Y-103547786D01*
X175330694Y-103650496D01*
X175330694Y-103650498D01*
X175385840Y-103816919D01*
X175385845Y-103816930D01*
X175477880Y-103966140D01*
X175477883Y-103966144D01*
X175601855Y-104090116D01*
X175601859Y-104090119D01*
X175751069Y-104182154D01*
X175751080Y-104182159D01*
X175917502Y-104237305D01*
X176020220Y-104247799D01*
X177245199Y-104247799D01*
X177245200Y-104247798D01*
X177245200Y-103297800D01*
X177745200Y-103297800D01*
X177745200Y-104247799D01*
X178970172Y-104247799D01*
X178970186Y-104247798D01*
X179072896Y-104237305D01*
X179072898Y-104237305D01*
X179239319Y-104182159D01*
X179239330Y-104182154D01*
X179388540Y-104090119D01*
X179388544Y-104090116D01*
X179512516Y-103966144D01*
X179512519Y-103966140D01*
X179604554Y-103816930D01*
X179604559Y-103816919D01*
X179659705Y-103650497D01*
X179670199Y-103547786D01*
X179670200Y-103547773D01*
X179670200Y-103297800D01*
X177745200Y-103297800D01*
X177245200Y-103297800D01*
X175320201Y-103297800D01*
X174768000Y-103297800D01*
X172843000Y-103297800D01*
X172343000Y-103297800D01*
X170418001Y-103297800D01*
X167859200Y-103297800D01*
X165934200Y-103297800D01*
X165434200Y-103297800D01*
X161590800Y-103297800D01*
X161090800Y-103297800D01*
X159165801Y-103297800D01*
X156276800Y-103297800D01*
X154351800Y-103297800D01*
X153851800Y-103297800D01*
X151926801Y-103297800D01*
X151552400Y-103297800D01*
X149627400Y-103297800D01*
X149127400Y-103297800D01*
X147202401Y-103297800D01*
X144846800Y-103297800D01*
X142921800Y-103297800D01*
X142421800Y-103297800D01*
X140496801Y-103297800D01*
X140097000Y-103297800D01*
X138172000Y-103297800D01*
X137672000Y-103297800D01*
X135747001Y-103297800D01*
X133442200Y-103297800D01*
X131517200Y-103297800D01*
X131017200Y-103297800D01*
X129092201Y-103297800D01*
X128209800Y-103297800D01*
X126284800Y-103297800D01*
X125784800Y-103297800D01*
X123859801Y-103297800D01*
X121174000Y-103297800D01*
X119249000Y-103297800D01*
X118749000Y-103297800D01*
X116824001Y-103297800D01*
X116348000Y-103297800D01*
X114423000Y-103297800D01*
X113923000Y-103297800D01*
X111998001Y-103297800D01*
X109388400Y-103297800D01*
X107463400Y-103297800D01*
X106963400Y-103297800D01*
X106963400Y-101847800D01*
X107463400Y-101847800D01*
X107463400Y-102797800D01*
X109388399Y-102797800D01*
X111998000Y-102797800D01*
X113923000Y-102797800D01*
X113923000Y-101847800D01*
X114423000Y-101847800D01*
X114423000Y-102797800D01*
X116347999Y-102797800D01*
X116824000Y-102797800D01*
X118749000Y-102797800D01*
X118749000Y-101847800D01*
X119249000Y-101847800D01*
X119249000Y-102797800D01*
X121173999Y-102797800D01*
X123859800Y-102797800D01*
X125784800Y-102797800D01*
X125784800Y-101847800D01*
X126284800Y-101847800D01*
X126284800Y-102797800D01*
X128209799Y-102797800D01*
X129092200Y-102797800D01*
X131017200Y-102797800D01*
X131017200Y-101847800D01*
X131517200Y-101847800D01*
X131517200Y-102797800D01*
X133442199Y-102797800D01*
X135747000Y-102797800D01*
X137672000Y-102797800D01*
X137672000Y-101847800D01*
X138172000Y-101847800D01*
X138172000Y-102797800D01*
X140096999Y-102797800D01*
X140496800Y-102797800D01*
X142421800Y-102797800D01*
X142421800Y-101847800D01*
X142921800Y-101847800D01*
X142921800Y-102797800D01*
X144846799Y-102797800D01*
X147202400Y-102797800D01*
X149127400Y-102797800D01*
X149127400Y-101847800D01*
X149627400Y-101847800D01*
X149627400Y-102797800D01*
X151552399Y-102797800D01*
X151926800Y-102797800D01*
X153851800Y-102797800D01*
X153851800Y-101847800D01*
X154351800Y-101847800D01*
X154351800Y-102797800D01*
X156276799Y-102797800D01*
X159165800Y-102797800D01*
X161090800Y-102797800D01*
X161090800Y-101847800D01*
X161590800Y-101847800D01*
X161590800Y-102797800D01*
X165434200Y-102797800D01*
X165434200Y-101847800D01*
X165934200Y-101847800D01*
X165934200Y-102797800D01*
X167859199Y-102797800D01*
X170418000Y-102797800D01*
X172343000Y-102797800D01*
X172343000Y-101847800D01*
X172843000Y-101847800D01*
X172843000Y-102797800D01*
X174767999Y-102797800D01*
X175320200Y-102797800D01*
X177245200Y-102797800D01*
X177245200Y-101847800D01*
X177745200Y-101847800D01*
X177745200Y-102797800D01*
X179670199Y-102797800D01*
X179670199Y-102547828D01*
X179670198Y-102547813D01*
X179659705Y-102445103D01*
X179659705Y-102445101D01*
X179604559Y-102278680D01*
X179604554Y-102278669D01*
X179512519Y-102129459D01*
X179512516Y-102129455D01*
X179388544Y-102005483D01*
X179388540Y-102005480D01*
X179239330Y-101913445D01*
X179239319Y-101913440D01*
X179072897Y-101858294D01*
X178970186Y-101847800D01*
X177745200Y-101847800D01*
X177245200Y-101847800D01*
X176020228Y-101847800D01*
X176020212Y-101847801D01*
X175917503Y-101858294D01*
X175917501Y-101858294D01*
X175751080Y-101913440D01*
X175751069Y-101913445D01*
X175601859Y-102005480D01*
X175601855Y-102005483D01*
X175477883Y-102129455D01*
X175477880Y-102129459D01*
X175385845Y-102278669D01*
X175385840Y-102278680D01*
X175330694Y-102445102D01*
X175320200Y-102547813D01*
X175320200Y-102797800D01*
X174767999Y-102797800D01*
X174767999Y-102547828D01*
X174767998Y-102547813D01*
X174757505Y-102445103D01*
X174757505Y-102445101D01*
X174702359Y-102278680D01*
X174702354Y-102278669D01*
X174610319Y-102129459D01*
X174610316Y-102129455D01*
X174486344Y-102005483D01*
X174486340Y-102005480D01*
X174337130Y-101913445D01*
X174337119Y-101913440D01*
X174170697Y-101858294D01*
X174067986Y-101847800D01*
X172843000Y-101847800D01*
X172343000Y-101847800D01*
X171118028Y-101847800D01*
X171118012Y-101847801D01*
X171015303Y-101858294D01*
X171015301Y-101858294D01*
X170848880Y-101913440D01*
X170848869Y-101913445D01*
X170699659Y-102005480D01*
X170699655Y-102005483D01*
X170575683Y-102129455D01*
X170575680Y-102129459D01*
X170483645Y-102278669D01*
X170483640Y-102278680D01*
X170428494Y-102445102D01*
X170418000Y-102547813D01*
X170418000Y-102797800D01*
X167859199Y-102797800D01*
X167859199Y-102547828D01*
X167859198Y-102547813D01*
X167848705Y-102445103D01*
X167848705Y-102445101D01*
X167793559Y-102278680D01*
X167793554Y-102278669D01*
X167701519Y-102129459D01*
X167701516Y-102129455D01*
X167577544Y-102005483D01*
X167577540Y-102005480D01*
X167428330Y-101913445D01*
X167428319Y-101913440D01*
X167261897Y-101858294D01*
X167159186Y-101847800D01*
X165934200Y-101847800D01*
X165434200Y-101847800D01*
X164209228Y-101847800D01*
X164209212Y-101847801D01*
X164106503Y-101858294D01*
X164106501Y-101858294D01*
X163940080Y-101913440D01*
X163940069Y-101913445D01*
X163790859Y-102005480D01*
X163790855Y-102005483D01*
X163666882Y-102129456D01*
X163618038Y-102208645D01*
X163566090Y-102255369D01*
X163497127Y-102266590D01*
X163433045Y-102238747D01*
X163406962Y-102208645D01*
X163358117Y-102129456D01*
X163234144Y-102005483D01*
X163234140Y-102005480D01*
X163084930Y-101913445D01*
X163084919Y-101913440D01*
X162918497Y-101858294D01*
X162815786Y-101847800D01*
X161590800Y-101847800D01*
X161090800Y-101847800D01*
X159865828Y-101847800D01*
X159865812Y-101847801D01*
X159763103Y-101858294D01*
X159763101Y-101858294D01*
X159596680Y-101913440D01*
X159596669Y-101913445D01*
X159447459Y-102005480D01*
X159447455Y-102005483D01*
X159323483Y-102129455D01*
X159323480Y-102129459D01*
X159231445Y-102278669D01*
X159231440Y-102278680D01*
X159176294Y-102445102D01*
X159165800Y-102547813D01*
X159165800Y-102797800D01*
X156276799Y-102797800D01*
X156276799Y-102547828D01*
X156276798Y-102547813D01*
X156266305Y-102445103D01*
X156266305Y-102445101D01*
X156211159Y-102278680D01*
X156211154Y-102278669D01*
X156119119Y-102129459D01*
X156119116Y-102129455D01*
X155995144Y-102005483D01*
X155995140Y-102005480D01*
X155845930Y-101913445D01*
X155845919Y-101913440D01*
X155679497Y-101858294D01*
X155576786Y-101847800D01*
X154351800Y-101847800D01*
X153851800Y-101847800D01*
X152626828Y-101847800D01*
X152626812Y-101847801D01*
X152524103Y-101858294D01*
X152524101Y-101858294D01*
X152357680Y-101913440D01*
X152357669Y-101913445D01*
X152208459Y-102005480D01*
X152208455Y-102005483D01*
X152084483Y-102129455D01*
X152084480Y-102129459D01*
X151992445Y-102278669D01*
X151992440Y-102278680D01*
X151937294Y-102445102D01*
X151926800Y-102547813D01*
X151926800Y-102797800D01*
X151552399Y-102797800D01*
X151552399Y-102547828D01*
X151552398Y-102547813D01*
X151541905Y-102445103D01*
X151541905Y-102445101D01*
X151486759Y-102278680D01*
X151486754Y-102278669D01*
X151394719Y-102129459D01*
X151394716Y-102129455D01*
X151270744Y-102005483D01*
X151270740Y-102005480D01*
X151121530Y-101913445D01*
X151121519Y-101913440D01*
X150955097Y-101858294D01*
X150852386Y-101847800D01*
X149627400Y-101847800D01*
X149127400Y-101847800D01*
X147902428Y-101847800D01*
X147902412Y-101847801D01*
X147799703Y-101858294D01*
X147799701Y-101858294D01*
X147633280Y-101913440D01*
X147633269Y-101913445D01*
X147484059Y-102005480D01*
X147484055Y-102005483D01*
X147360083Y-102129455D01*
X147360080Y-102129459D01*
X147268045Y-102278669D01*
X147268040Y-102278680D01*
X147212894Y-102445102D01*
X147202400Y-102547813D01*
X147202400Y-102797800D01*
X144846799Y-102797800D01*
X144846799Y-102547828D01*
X144846798Y-102547813D01*
X144836305Y-102445103D01*
X144836305Y-102445101D01*
X144781159Y-102278680D01*
X144781154Y-102278669D01*
X144689119Y-102129459D01*
X144689116Y-102129455D01*
X144565144Y-102005483D01*
X144565140Y-102005480D01*
X144415930Y-101913445D01*
X144415919Y-101913440D01*
X144249497Y-101858294D01*
X144146786Y-101847800D01*
X142921800Y-101847800D01*
X142421800Y-101847800D01*
X141196828Y-101847800D01*
X141196812Y-101847801D01*
X141094103Y-101858294D01*
X141094101Y-101858294D01*
X140927680Y-101913440D01*
X140927669Y-101913445D01*
X140778459Y-102005480D01*
X140778455Y-102005483D01*
X140654483Y-102129455D01*
X140654480Y-102129459D01*
X140562445Y-102278669D01*
X140562440Y-102278680D01*
X140507294Y-102445102D01*
X140496800Y-102547813D01*
X140496800Y-102797800D01*
X140096999Y-102797800D01*
X140096999Y-102547828D01*
X140096998Y-102547813D01*
X140086505Y-102445103D01*
X140086505Y-102445101D01*
X140031359Y-102278680D01*
X140031354Y-102278669D01*
X139939319Y-102129459D01*
X139939316Y-102129455D01*
X139815344Y-102005483D01*
X139815340Y-102005480D01*
X139666130Y-101913445D01*
X139666119Y-101913440D01*
X139499697Y-101858294D01*
X139396986Y-101847800D01*
X138172000Y-101847800D01*
X137672000Y-101847800D01*
X136447028Y-101847800D01*
X136447012Y-101847801D01*
X136344303Y-101858294D01*
X136344301Y-101858294D01*
X136177880Y-101913440D01*
X136177869Y-101913445D01*
X136028659Y-102005480D01*
X136028655Y-102005483D01*
X135904683Y-102129455D01*
X135904680Y-102129459D01*
X135812645Y-102278669D01*
X135812640Y-102278680D01*
X135757494Y-102445102D01*
X135747000Y-102547813D01*
X135747000Y-102797800D01*
X133442199Y-102797800D01*
X133442199Y-102547828D01*
X133442198Y-102547813D01*
X133431705Y-102445103D01*
X133431705Y-102445101D01*
X133376559Y-102278680D01*
X133376554Y-102278669D01*
X133284519Y-102129459D01*
X133284516Y-102129455D01*
X133160544Y-102005483D01*
X133160540Y-102005480D01*
X133011330Y-101913445D01*
X133011319Y-101913440D01*
X132844897Y-101858294D01*
X132742186Y-101847800D01*
X131517200Y-101847800D01*
X131017200Y-101847800D01*
X129792228Y-101847800D01*
X129792212Y-101847801D01*
X129689503Y-101858294D01*
X129689501Y-101858294D01*
X129523080Y-101913440D01*
X129523069Y-101913445D01*
X129373859Y-102005480D01*
X129373855Y-102005483D01*
X129249883Y-102129455D01*
X129249880Y-102129459D01*
X129157845Y-102278669D01*
X129157840Y-102278680D01*
X129102694Y-102445102D01*
X129092200Y-102547813D01*
X129092200Y-102797800D01*
X128209799Y-102797800D01*
X128209799Y-102547828D01*
X128209798Y-102547813D01*
X128199305Y-102445103D01*
X128199305Y-102445101D01*
X128144159Y-102278680D01*
X128144154Y-102278669D01*
X128052119Y-102129459D01*
X128052116Y-102129455D01*
X127928144Y-102005483D01*
X127928140Y-102005480D01*
X127778930Y-101913445D01*
X127778919Y-101913440D01*
X127612497Y-101858294D01*
X127509786Y-101847800D01*
X126284800Y-101847800D01*
X125784800Y-101847800D01*
X124559828Y-101847800D01*
X124559812Y-101847801D01*
X124457103Y-101858294D01*
X124457101Y-101858294D01*
X124290680Y-101913440D01*
X124290669Y-101913445D01*
X124141459Y-102005480D01*
X124141455Y-102005483D01*
X124017483Y-102129455D01*
X124017480Y-102129459D01*
X123925445Y-102278669D01*
X123925440Y-102278680D01*
X123870294Y-102445102D01*
X123859800Y-102547813D01*
X123859800Y-102797800D01*
X121173999Y-102797800D01*
X121173999Y-102547828D01*
X121173998Y-102547813D01*
X121163505Y-102445103D01*
X121163505Y-102445101D01*
X121108359Y-102278680D01*
X121108354Y-102278669D01*
X121016319Y-102129459D01*
X121016316Y-102129455D01*
X120892344Y-102005483D01*
X120892340Y-102005480D01*
X120743130Y-101913445D01*
X120743119Y-101913440D01*
X120576697Y-101858294D01*
X120473986Y-101847800D01*
X119249000Y-101847800D01*
X118749000Y-101847800D01*
X117524028Y-101847800D01*
X117524012Y-101847801D01*
X117421303Y-101858294D01*
X117421301Y-101858294D01*
X117254880Y-101913440D01*
X117254869Y-101913445D01*
X117105659Y-102005480D01*
X117105655Y-102005483D01*
X116981683Y-102129455D01*
X116981680Y-102129459D01*
X116889645Y-102278669D01*
X116889640Y-102278680D01*
X116834494Y-102445102D01*
X116824000Y-102547813D01*
X116824000Y-102797800D01*
X116347999Y-102797800D01*
X116347999Y-102547828D01*
X116347998Y-102547813D01*
X116337505Y-102445103D01*
X116337505Y-102445101D01*
X116282359Y-102278680D01*
X116282354Y-102278669D01*
X116190319Y-102129459D01*
X116190316Y-102129455D01*
X116066344Y-102005483D01*
X116066340Y-102005480D01*
X115917130Y-101913445D01*
X115917119Y-101913440D01*
X115750697Y-101858294D01*
X115647986Y-101847800D01*
X114423000Y-101847800D01*
X113923000Y-101847800D01*
X112698028Y-101847800D01*
X112698012Y-101847801D01*
X112595303Y-101858294D01*
X112595301Y-101858294D01*
X112428880Y-101913440D01*
X112428869Y-101913445D01*
X112279659Y-102005480D01*
X112279655Y-102005483D01*
X112155683Y-102129455D01*
X112155680Y-102129459D01*
X112063645Y-102278669D01*
X112063640Y-102278680D01*
X112008494Y-102445102D01*
X111998000Y-102547813D01*
X111998000Y-102797800D01*
X109388399Y-102797800D01*
X109388399Y-102547828D01*
X109388398Y-102547813D01*
X109377905Y-102445103D01*
X109377905Y-102445101D01*
X109322759Y-102278680D01*
X109322754Y-102278669D01*
X109230719Y-102129459D01*
X109230716Y-102129455D01*
X109106744Y-102005483D01*
X109106740Y-102005480D01*
X108957530Y-101913445D01*
X108957519Y-101913440D01*
X108791097Y-101858294D01*
X108688386Y-101847800D01*
X107463400Y-101847800D01*
X106963400Y-101847800D01*
X105738428Y-101847800D01*
X105738412Y-101847801D01*
X105635703Y-101858294D01*
X105635701Y-101858294D01*
X105469280Y-101913440D01*
X105469269Y-101913445D01*
X105320059Y-102005480D01*
X105320055Y-102005483D01*
X105196083Y-102129455D01*
X105196080Y-102129459D01*
X105104045Y-102278669D01*
X105104040Y-102278680D01*
X105070506Y-102379881D01*
X105030733Y-102437326D01*
X104966218Y-102464149D01*
X104897442Y-102451834D01*
X104846242Y-102404291D01*
X104835094Y-102379881D01*
X104801559Y-102278680D01*
X104801554Y-102278669D01*
X104709519Y-102129459D01*
X104709516Y-102129455D01*
X104585544Y-102005483D01*
X104585540Y-102005480D01*
X104436330Y-101913445D01*
X104436319Y-101913440D01*
X104269897Y-101858294D01*
X104167186Y-101847800D01*
X102942200Y-101847800D01*
X102442200Y-101847800D01*
X101217228Y-101847800D01*
X101217212Y-101847801D01*
X101114503Y-101858294D01*
X101114501Y-101858294D01*
X100948080Y-101913440D01*
X100948069Y-101913445D01*
X100798859Y-102005480D01*
X100798855Y-102005483D01*
X100674883Y-102129455D01*
X100674880Y-102129459D01*
X100582845Y-102278669D01*
X100582840Y-102278680D01*
X100527694Y-102445102D01*
X100517200Y-102547813D01*
X100517200Y-102797800D01*
X88041017Y-102797800D01*
X88069653Y-102623128D01*
X88089320Y-102260402D01*
X88089320Y-102260397D01*
X88069653Y-101897671D01*
X88010882Y-101539185D01*
X88010880Y-101539177D01*
X87913704Y-101189179D01*
X87913702Y-101189172D01*
X87779247Y-100851715D01*
X87779238Y-100851697D01*
X87609083Y-100530752D01*
X87609081Y-100530748D01*
X87405229Y-100230090D01*
X87405222Y-100230080D01*
X87273429Y-100074923D01*
X87273428Y-100074923D01*
X86032132Y-101316218D01*
X85869270Y-101125530D01*
X85678580Y-100962666D01*
X86922510Y-99718736D01*
X86922510Y-99718734D01*
X86906329Y-99703407D01*
X86906328Y-99703406D01*
X86617133Y-99483567D01*
X86617117Y-99483556D01*
X86305877Y-99296290D01*
X86305864Y-99296283D01*
X85976194Y-99143760D01*
X85976189Y-99143759D01*
X85631938Y-99027767D01*
X85277164Y-98949675D01*
X84916033Y-98910400D01*
X84552766Y-98910400D01*
X84191635Y-98949675D01*
X83836861Y-99027767D01*
X83492610Y-99143759D01*
X83492605Y-99143760D01*
X83162935Y-99296283D01*
X83162922Y-99296290D01*
X82851682Y-99483556D01*
X82851666Y-99483567D01*
X82562475Y-99703402D01*
X82546288Y-99718735D01*
X82546287Y-99718735D01*
X83790219Y-100962666D01*
X83599530Y-101125530D01*
X83436666Y-101316218D01*
X82195370Y-100074922D01*
X82195369Y-100074923D01*
X82063577Y-100230080D01*
X82063570Y-100230090D01*
X81859718Y-100530748D01*
X81859716Y-100530752D01*
X81689561Y-100851697D01*
X81689555Y-100851710D01*
X81623891Y-101016512D01*
X81580790Y-101071504D01*
X81514801Y-101094464D01*
X81446874Y-101078102D01*
X81398575Y-101027614D01*
X81384699Y-100970538D01*
X81391025Y-91444000D01*
X85875585Y-91444000D01*
X88891789Y-91444000D01*
X88866666Y-91541030D01*
X88856314Y-91745165D01*
X88886774Y-91944000D01*
X85878993Y-91944000D01*
X85891575Y-92069076D01*
X85891576Y-92069079D01*
X85961408Y-92362107D01*
X85961410Y-92362116D01*
X86069674Y-92643216D01*
X86069681Y-92643231D01*
X86214448Y-92907395D01*
X86214452Y-92907401D01*
X86393135Y-93149911D01*
X86602555Y-93366451D01*
X86602562Y-93366457D01*
X86838968Y-93553145D01*
X87098148Y-93706657D01*
X87098166Y-93706666D01*
X87375483Y-93824260D01*
X87375500Y-93824265D01*
X87666026Y-93903848D01*
X87964584Y-93944000D01*
X89615200Y-93944000D01*
X89615200Y-92668625D01*
X89763001Y-92699000D01*
X89916167Y-92699000D01*
X90068548Y-92683504D01*
X90115200Y-92668867D01*
X90115200Y-93944000D01*
X91690436Y-93944000D01*
X91915764Y-93928915D01*
X91915773Y-93928913D01*
X92210958Y-93868916D01*
X92210973Y-93868912D01*
X92495543Y-93770098D01*
X92495546Y-93770096D01*
X92764398Y-93634240D01*
X93012764Y-93463745D01*
X93236171Y-93261685D01*
X93430664Y-93031638D01*
X93592754Y-92777728D01*
X93592755Y-92777726D01*
X93719551Y-92504485D01*
X93719556Y-92504471D01*
X93808805Y-92216765D01*
X93854815Y-91944000D01*
X90838611Y-91944000D01*
X90863734Y-91846970D01*
X90874086Y-91642835D01*
X90843626Y-91444000D01*
X93851407Y-91444000D01*
X93851407Y-91443999D01*
X93838824Y-91318923D01*
X93838823Y-91318920D01*
X93768991Y-91025892D01*
X93768989Y-91025883D01*
X93660725Y-90744783D01*
X93660718Y-90744768D01*
X93515951Y-90480604D01*
X93515947Y-90480598D01*
X93337264Y-90238088D01*
X93127844Y-90021548D01*
X93127837Y-90021542D01*
X92891431Y-89834854D01*
X92632251Y-89681342D01*
X92632233Y-89681333D01*
X92354916Y-89563739D01*
X92354899Y-89563734D01*
X92064373Y-89484151D01*
X91765817Y-89444000D01*
X90115200Y-89444000D01*
X90115200Y-90719374D01*
X89967399Y-90689000D01*
X89814233Y-90689000D01*
X89661852Y-90704496D01*
X89615200Y-90719132D01*
X89615200Y-89444000D01*
X88039964Y-89444000D01*
X87814635Y-89459084D01*
X87814626Y-89459086D01*
X87519441Y-89519083D01*
X87519426Y-89519087D01*
X87234856Y-89617901D01*
X87234853Y-89617903D01*
X86966001Y-89753759D01*
X86717635Y-89924254D01*
X86494228Y-90126314D01*
X86299735Y-90356361D01*
X86137645Y-90610271D01*
X86137644Y-90610273D01*
X86010848Y-90883514D01*
X86010843Y-90883528D01*
X85921594Y-91171234D01*
X85875585Y-91444000D01*
X81391025Y-91444000D01*
X81394232Y-86614001D01*
X93181702Y-86614001D01*
X93201656Y-86842081D01*
X93201657Y-86842089D01*
X93260914Y-87063238D01*
X93260918Y-87063249D01*
X93357675Y-87270745D01*
X93357677Y-87270749D01*
X93489002Y-87458300D01*
X93650900Y-87620198D01*
X93838451Y-87751523D01*
X93891601Y-87776307D01*
X93944040Y-87822479D01*
X93963192Y-87889673D01*
X93942976Y-87956554D01*
X93891601Y-88001071D01*
X93842717Y-88023865D01*
X93656379Y-88154342D01*
X93495542Y-88315179D01*
X93365065Y-88501517D01*
X93268934Y-88707673D01*
X93268930Y-88707682D01*
X93216327Y-88903999D01*
X93216328Y-88904000D01*
X94575697Y-88904000D01*
X94526283Y-88989587D01*
X94496432Y-89120370D01*
X94506457Y-89254140D01*
X94555466Y-89379013D01*
X94575393Y-89404000D01*
X93216328Y-89404000D01*
X93268930Y-89600317D01*
X93268934Y-89600326D01*
X93365065Y-89806482D01*
X93495542Y-89992820D01*
X93656379Y-90153657D01*
X93842717Y-90284134D01*
X94048873Y-90380265D01*
X94048882Y-90380269D01*
X94268589Y-90439139D01*
X94268600Y-90439141D01*
X94438433Y-90453999D01*
X94438436Y-90454000D01*
X94695200Y-90454000D01*
X94695200Y-89522137D01*
X94749941Y-89559459D01*
X94878127Y-89599000D01*
X94978546Y-89599000D01*
X95077847Y-89584033D01*
X95195200Y-89527518D01*
X95195200Y-90454000D01*
X95451964Y-90454000D01*
X95451966Y-90453999D01*
X95621799Y-90439141D01*
X95621810Y-90439139D01*
X95841517Y-90380269D01*
X95841526Y-90380265D01*
X96047682Y-90284134D01*
X96234020Y-90153657D01*
X96394857Y-89992820D01*
X96525334Y-89806482D01*
X96621465Y-89600326D01*
X96621469Y-89600317D01*
X96674072Y-89404000D01*
X95314703Y-89404000D01*
X95364117Y-89318413D01*
X95393968Y-89187630D01*
X95383943Y-89053860D01*
X95334934Y-88928987D01*
X95315007Y-88904000D01*
X96674072Y-88904000D01*
X96674072Y-88903999D01*
X96621469Y-88707682D01*
X96621465Y-88707673D01*
X96525334Y-88501517D01*
X96394857Y-88315179D01*
X96234020Y-88154342D01*
X96047681Y-88023865D01*
X96047679Y-88023864D01*
X95998799Y-88001071D01*
X95946359Y-87954899D01*
X95927207Y-87887706D01*
X95947423Y-87820824D01*
X95998799Y-87776307D01*
X96051949Y-87751523D01*
X96239500Y-87620198D01*
X96401398Y-87458300D01*
X96532723Y-87270749D01*
X96629484Y-87063243D01*
X96688743Y-86842087D01*
X96708698Y-86614000D01*
X96688743Y-86385913D01*
X96688736Y-86385890D01*
X96688274Y-86383261D01*
X96688406Y-86382070D01*
X96688271Y-86380519D01*
X96688582Y-86380491D01*
X96696013Y-86313821D01*
X96722705Y-86274041D01*
X97358092Y-85638654D01*
X100470547Y-85638654D01*
X100477058Y-85699202D01*
X100477058Y-85699204D01*
X100528158Y-85836204D01*
X100615786Y-85953261D01*
X100732843Y-86040889D01*
X100869846Y-86091989D01*
X100897097Y-86094918D01*
X100930392Y-86098499D01*
X100930409Y-86098500D01*
X101088547Y-86098500D01*
X101155586Y-86118185D01*
X101201341Y-86170989D01*
X101212547Y-86222500D01*
X101212547Y-90936069D01*
X101192862Y-91003108D01*
X101161593Y-91033809D01*
X101162609Y-91035094D01*
X101156948Y-91039569D01*
X101031567Y-91164951D01*
X100938489Y-91315852D01*
X100938484Y-91315863D01*
X100882713Y-91484171D01*
X100872100Y-91588046D01*
X100872100Y-94539153D01*
X100882713Y-94643028D01*
X100938484Y-94811336D01*
X100938489Y-94811347D01*
X101031567Y-94962248D01*
X101036048Y-94967915D01*
X101033878Y-94969630D01*
X101061266Y-95019786D01*
X101064100Y-95046144D01*
X101064100Y-95676499D01*
X101044415Y-95743538D01*
X100991611Y-95789293D01*
X100979106Y-95794204D01*
X100944467Y-95805682D01*
X100944452Y-95805689D01*
X100793551Y-95898767D01*
X100793547Y-95898770D01*
X100668170Y-96024147D01*
X100668167Y-96024151D01*
X100575089Y-96175052D01*
X100575084Y-96175063D01*
X100519313Y-96343371D01*
X100508700Y-96447246D01*
X100508700Y-97448353D01*
X100519313Y-97552228D01*
X100575084Y-97720536D01*
X100575089Y-97720547D01*
X100668167Y-97871448D01*
X100668170Y-97871452D01*
X100793547Y-97996829D01*
X100793551Y-97996832D01*
X100944452Y-98089910D01*
X100944455Y-98089911D01*
X100944461Y-98089915D01*
X101112773Y-98145687D01*
X101216654Y-98156300D01*
X101216659Y-98156300D01*
X104167741Y-98156300D01*
X104167746Y-98156300D01*
X104271627Y-98145687D01*
X104439939Y-98089915D01*
X104590852Y-97996830D01*
X104716230Y-97871452D01*
X104809315Y-97720539D01*
X104835094Y-97642740D01*
X104874866Y-97585296D01*
X104939382Y-97558473D01*
X105008158Y-97570788D01*
X105059358Y-97618331D01*
X105070506Y-97642741D01*
X105096284Y-97720536D01*
X105096289Y-97720547D01*
X105189367Y-97871448D01*
X105189370Y-97871452D01*
X105314747Y-97996829D01*
X105314751Y-97996832D01*
X105465652Y-98089910D01*
X105465655Y-98089911D01*
X105465661Y-98089915D01*
X105633973Y-98145687D01*
X105737854Y-98156300D01*
X105737859Y-98156300D01*
X108688941Y-98156300D01*
X108688946Y-98156300D01*
X108792827Y-98145687D01*
X108961139Y-98089915D01*
X109112052Y-97996830D01*
X109237430Y-97871452D01*
X109330515Y-97720539D01*
X109386287Y-97552227D01*
X109396899Y-97448353D01*
X111989500Y-97448353D01*
X112000113Y-97552228D01*
X112055884Y-97720536D01*
X112055889Y-97720547D01*
X112148967Y-97871448D01*
X112148970Y-97871452D01*
X112274347Y-97996829D01*
X112274351Y-97996832D01*
X112425252Y-98089910D01*
X112425255Y-98089911D01*
X112425261Y-98089915D01*
X112593573Y-98145687D01*
X112697454Y-98156300D01*
X112697459Y-98156300D01*
X115648541Y-98156300D01*
X115648546Y-98156300D01*
X115752427Y-98145687D01*
X115920739Y-98089915D01*
X116071652Y-97996830D01*
X116197030Y-97871452D01*
X116290115Y-97720539D01*
X116345887Y-97552227D01*
X116356499Y-97448353D01*
X116815500Y-97448353D01*
X116826113Y-97552228D01*
X116881884Y-97720536D01*
X116881889Y-97720547D01*
X116974967Y-97871448D01*
X116974970Y-97871452D01*
X117100347Y-97996829D01*
X117100351Y-97996832D01*
X117251252Y-98089910D01*
X117251255Y-98089911D01*
X117251261Y-98089915D01*
X117419573Y-98145687D01*
X117523454Y-98156300D01*
X117523459Y-98156300D01*
X120474541Y-98156300D01*
X120474546Y-98156300D01*
X120578427Y-98145687D01*
X120746739Y-98089915D01*
X120897652Y-97996830D01*
X121023030Y-97871452D01*
X121116115Y-97720539D01*
X121171887Y-97552227D01*
X121182500Y-97448346D01*
X121182500Y-96447254D01*
X121171887Y-96343373D01*
X121116115Y-96175061D01*
X121116111Y-96175055D01*
X121116110Y-96175052D01*
X121023032Y-96024151D01*
X121023031Y-96024150D01*
X121023030Y-96024148D01*
X120919418Y-95920536D01*
X120885934Y-95859213D01*
X120883100Y-95832855D01*
X120883100Y-95046144D01*
X120902785Y-94979105D01*
X120911549Y-94968229D01*
X120911152Y-94967915D01*
X120915624Y-94962257D01*
X120915630Y-94962252D01*
X121008715Y-94811339D01*
X121064487Y-94643027D01*
X121075100Y-94539146D01*
X121075100Y-91588054D01*
X121064487Y-91484173D01*
X121008715Y-91315861D01*
X121008711Y-91315855D01*
X121008710Y-91315852D01*
X120915630Y-91164947D01*
X120914005Y-91162892D01*
X120913329Y-91161217D01*
X120911839Y-91158801D01*
X120912251Y-91158546D01*
X120887865Y-91098097D01*
X120887272Y-91085983D01*
X120887272Y-86222500D01*
X120906957Y-86155461D01*
X120959761Y-86109706D01*
X121011272Y-86098500D01*
X121169410Y-86098500D01*
X121169426Y-86098499D01*
X121196464Y-86095591D01*
X121229973Y-86091989D01*
X121366976Y-86040889D01*
X121484033Y-85953261D01*
X121571661Y-85836204D01*
X121622761Y-85699201D01*
X121626363Y-85665692D01*
X121629271Y-85638654D01*
X123753997Y-85638654D01*
X123760508Y-85699202D01*
X123760508Y-85699204D01*
X123811608Y-85836204D01*
X123899236Y-85953261D01*
X124016293Y-86040889D01*
X124153296Y-86091989D01*
X124180547Y-86094918D01*
X124213842Y-86098499D01*
X124213859Y-86098500D01*
X124371997Y-86098500D01*
X124439036Y-86118185D01*
X124484791Y-86170989D01*
X124495997Y-86222500D01*
X124495997Y-92847231D01*
X124500856Y-92896566D01*
X124510704Y-92996563D01*
X124510705Y-92996566D01*
X124564961Y-93175424D01*
X124570300Y-93211417D01*
X124570300Y-94539153D01*
X124580913Y-94643028D01*
X124636684Y-94811336D01*
X124636689Y-94811347D01*
X124729767Y-94962248D01*
X124734248Y-94967915D01*
X124732078Y-94969630D01*
X124759466Y-95019786D01*
X124762300Y-95046144D01*
X124762300Y-95615300D01*
X124742615Y-95682339D01*
X124689811Y-95728094D01*
X124638300Y-95739300D01*
X124559246Y-95739300D01*
X124455371Y-95749913D01*
X124287063Y-95805684D01*
X124287052Y-95805689D01*
X124136151Y-95898767D01*
X124136147Y-95898770D01*
X124010770Y-96024147D01*
X124010767Y-96024151D01*
X123917689Y-96175052D01*
X123917684Y-96175063D01*
X123861913Y-96343371D01*
X123851300Y-96447246D01*
X123851300Y-97448353D01*
X123861913Y-97552228D01*
X123917684Y-97720536D01*
X123917689Y-97720547D01*
X124010767Y-97871448D01*
X124010770Y-97871452D01*
X124136147Y-97996829D01*
X124136151Y-97996832D01*
X124287052Y-98089910D01*
X124287055Y-98089911D01*
X124287061Y-98089915D01*
X124455373Y-98145687D01*
X124559254Y-98156300D01*
X124559259Y-98156300D01*
X127510341Y-98156300D01*
X127510346Y-98156300D01*
X127614227Y-98145687D01*
X127782539Y-98089915D01*
X127933452Y-97996830D01*
X128058830Y-97871452D01*
X128151915Y-97720539D01*
X128207687Y-97552227D01*
X128218299Y-97448353D01*
X129083700Y-97448353D01*
X129094313Y-97552228D01*
X129150084Y-97720536D01*
X129150089Y-97720547D01*
X129243167Y-97871448D01*
X129243170Y-97871452D01*
X129368547Y-97996829D01*
X129368551Y-97996832D01*
X129519452Y-98089910D01*
X129519455Y-98089911D01*
X129519461Y-98089915D01*
X129687773Y-98145687D01*
X129791654Y-98156300D01*
X129791659Y-98156300D01*
X132742741Y-98156300D01*
X132742746Y-98156300D01*
X132846627Y-98145687D01*
X133014939Y-98089915D01*
X133165852Y-97996830D01*
X133291230Y-97871452D01*
X133384315Y-97720539D01*
X133440087Y-97552227D01*
X133450700Y-97448346D01*
X133450700Y-96447254D01*
X133440087Y-96343373D01*
X133384315Y-96175061D01*
X133384311Y-96175055D01*
X133384310Y-96175052D01*
X133291232Y-96024151D01*
X133291229Y-96024147D01*
X133165852Y-95898770D01*
X133165848Y-95898767D01*
X133014947Y-95805689D01*
X133014940Y-95805686D01*
X133014939Y-95805685D01*
X133014937Y-95805684D01*
X133014932Y-95805682D01*
X132980294Y-95794204D01*
X132922850Y-95754431D01*
X132896028Y-95689914D01*
X132895300Y-95676499D01*
X132895300Y-95046144D01*
X132914985Y-94979105D01*
X132923749Y-94968229D01*
X132923352Y-94967915D01*
X132927824Y-94962257D01*
X132927830Y-94962252D01*
X133020915Y-94811339D01*
X133076687Y-94643027D01*
X133087300Y-94539146D01*
X133087300Y-91588054D01*
X133076687Y-91484173D01*
X133020915Y-91315861D01*
X133020911Y-91315855D01*
X133020910Y-91315852D01*
X132927832Y-91164951D01*
X132927829Y-91164947D01*
X132802452Y-91039570D01*
X132802448Y-91039567D01*
X132651547Y-90946489D01*
X132651540Y-90946486D01*
X132651539Y-90946485D01*
X132651537Y-90946484D01*
X132651532Y-90946482D01*
X132613991Y-90934042D01*
X132556547Y-90894269D01*
X132529725Y-90829752D01*
X132528997Y-90816337D01*
X132528997Y-86222500D01*
X132548682Y-86155461D01*
X132601486Y-86109706D01*
X132652997Y-86098500D01*
X132811135Y-86098500D01*
X132811151Y-86098499D01*
X132838189Y-86095591D01*
X132871698Y-86091989D01*
X133008701Y-86040889D01*
X133125758Y-85953261D01*
X133213386Y-85836204D01*
X133264486Y-85699201D01*
X133268088Y-85665692D01*
X133270996Y-85638654D01*
X135395722Y-85638654D01*
X135402233Y-85699202D01*
X135402233Y-85699204D01*
X135453333Y-85836204D01*
X135540961Y-85953261D01*
X135658018Y-86040889D01*
X135795021Y-86091989D01*
X135822272Y-86094918D01*
X135855567Y-86098499D01*
X135855584Y-86098500D01*
X136013722Y-86098500D01*
X136080761Y-86118185D01*
X136126516Y-86170989D01*
X136137722Y-86222500D01*
X136137722Y-91388086D01*
X136131428Y-91427090D01*
X136112513Y-91484171D01*
X136101900Y-91588046D01*
X136101900Y-94539153D01*
X136112513Y-94643028D01*
X136168284Y-94811336D01*
X136168289Y-94811347D01*
X136261367Y-94962248D01*
X136265848Y-94967915D01*
X136263678Y-94969630D01*
X136291066Y-95019786D01*
X136293900Y-95046144D01*
X136293900Y-95676499D01*
X136274215Y-95743538D01*
X136221411Y-95789293D01*
X136208906Y-95794204D01*
X136174267Y-95805682D01*
X136174252Y-95805689D01*
X136023351Y-95898767D01*
X136023347Y-95898770D01*
X135897970Y-96024147D01*
X135897967Y-96024151D01*
X135804889Y-96175052D01*
X135804884Y-96175063D01*
X135749113Y-96343371D01*
X135738500Y-96447246D01*
X135738500Y-97448353D01*
X135749113Y-97552228D01*
X135804884Y-97720536D01*
X135804889Y-97720547D01*
X135897967Y-97871448D01*
X135897970Y-97871452D01*
X136023347Y-97996829D01*
X136023351Y-97996832D01*
X136174252Y-98089910D01*
X136174255Y-98089911D01*
X136174261Y-98089915D01*
X136342573Y-98145687D01*
X136446454Y-98156300D01*
X136446459Y-98156300D01*
X139397541Y-98156300D01*
X139397546Y-98156300D01*
X139501427Y-98145687D01*
X139669739Y-98089915D01*
X139820652Y-97996830D01*
X139946030Y-97871452D01*
X140039115Y-97720539D01*
X140094887Y-97552227D01*
X140105499Y-97448353D01*
X140488300Y-97448353D01*
X140498913Y-97552228D01*
X140554684Y-97720536D01*
X140554689Y-97720547D01*
X140647767Y-97871448D01*
X140647770Y-97871452D01*
X140773147Y-97996829D01*
X140773151Y-97996832D01*
X140924052Y-98089910D01*
X140924055Y-98089911D01*
X140924061Y-98089915D01*
X141092373Y-98145687D01*
X141196254Y-98156300D01*
X141196259Y-98156300D01*
X144147341Y-98156300D01*
X144147346Y-98156300D01*
X144251227Y-98145687D01*
X144419539Y-98089915D01*
X144570452Y-97996830D01*
X144695830Y-97871452D01*
X144788915Y-97720539D01*
X144844687Y-97552227D01*
X144855300Y-97448346D01*
X144855300Y-96447254D01*
X144844687Y-96343373D01*
X144788915Y-96175061D01*
X144788911Y-96175055D01*
X144788910Y-96175052D01*
X144695832Y-96024151D01*
X144695829Y-96024147D01*
X144570451Y-95898769D01*
X144485802Y-95846556D01*
X144439078Y-95794607D01*
X144426900Y-95741018D01*
X144426900Y-95046144D01*
X144446585Y-94979105D01*
X144455349Y-94968229D01*
X144454952Y-94967915D01*
X144459424Y-94962257D01*
X144459430Y-94962252D01*
X144552515Y-94811339D01*
X144608287Y-94643027D01*
X144618900Y-94539146D01*
X144618900Y-91588054D01*
X144608287Y-91484173D01*
X144552515Y-91315861D01*
X144552511Y-91315855D01*
X144552510Y-91315852D01*
X144459432Y-91164951D01*
X144459429Y-91164947D01*
X144334051Y-91039569D01*
X144229624Y-90975157D01*
X144182900Y-90923209D01*
X144170722Y-90869619D01*
X144170722Y-86222500D01*
X144190407Y-86155461D01*
X144243211Y-86109706D01*
X144294722Y-86098500D01*
X144452860Y-86098500D01*
X144452876Y-86098499D01*
X144479914Y-86095591D01*
X144513423Y-86091989D01*
X144650426Y-86040889D01*
X144767483Y-85953261D01*
X144855111Y-85836204D01*
X144906211Y-85699201D01*
X144909813Y-85665692D01*
X144912721Y-85638654D01*
X147037447Y-85638654D01*
X147043958Y-85699202D01*
X147043958Y-85699204D01*
X147095058Y-85836204D01*
X147182686Y-85953261D01*
X147299743Y-86040889D01*
X147436746Y-86091989D01*
X147463997Y-86094918D01*
X147497292Y-86098499D01*
X147497309Y-86098500D01*
X147655447Y-86098500D01*
X147722486Y-86118185D01*
X147768241Y-86170989D01*
X147779447Y-86222500D01*
X147779447Y-91234064D01*
X147760986Y-91299160D01*
X147750683Y-91315862D01*
X147750683Y-91315863D01*
X147694913Y-91484169D01*
X147694913Y-91484170D01*
X147684300Y-91588046D01*
X147684300Y-94539153D01*
X147694913Y-94643028D01*
X147750684Y-94811336D01*
X147750689Y-94811347D01*
X147843767Y-94962248D01*
X147848248Y-94967915D01*
X147846078Y-94969630D01*
X147873466Y-95019786D01*
X147876300Y-95046144D01*
X147876300Y-95634417D01*
X147856615Y-95701456D01*
X147803811Y-95747211D01*
X147791303Y-95752123D01*
X147629665Y-95805683D01*
X147629652Y-95805689D01*
X147478751Y-95898767D01*
X147478747Y-95898770D01*
X147353370Y-96024147D01*
X147353367Y-96024151D01*
X147260289Y-96175052D01*
X147260284Y-96175063D01*
X147204513Y-96343371D01*
X147193900Y-96447246D01*
X147193900Y-97448353D01*
X147204513Y-97552228D01*
X147260284Y-97720536D01*
X147260289Y-97720547D01*
X147353367Y-97871448D01*
X147353370Y-97871452D01*
X147478747Y-97996829D01*
X147478751Y-97996832D01*
X147629652Y-98089910D01*
X147629655Y-98089911D01*
X147629661Y-98089915D01*
X147797973Y-98145687D01*
X147901854Y-98156300D01*
X147901859Y-98156300D01*
X150852941Y-98156300D01*
X150852946Y-98156300D01*
X150956827Y-98145687D01*
X151125139Y-98089915D01*
X151276052Y-97996830D01*
X151401430Y-97871452D01*
X151494515Y-97720539D01*
X151550287Y-97552227D01*
X151560899Y-97448353D01*
X151918300Y-97448353D01*
X151928913Y-97552228D01*
X151984684Y-97720536D01*
X151984689Y-97720547D01*
X152077767Y-97871448D01*
X152077770Y-97871452D01*
X152203147Y-97996829D01*
X152203151Y-97996832D01*
X152354052Y-98089910D01*
X152354055Y-98089911D01*
X152354061Y-98089915D01*
X152522373Y-98145687D01*
X152626254Y-98156300D01*
X152626259Y-98156300D01*
X155577341Y-98156300D01*
X155577346Y-98156300D01*
X155681227Y-98145687D01*
X155849539Y-98089915D01*
X156000452Y-97996830D01*
X156125830Y-97871452D01*
X156218915Y-97720539D01*
X156274687Y-97552227D01*
X156285300Y-97448346D01*
X156285300Y-96447254D01*
X156274687Y-96343373D01*
X156218915Y-96175061D01*
X156218911Y-96175055D01*
X156218910Y-96175052D01*
X156125832Y-96024151D01*
X156125829Y-96024147D01*
X156045619Y-95943937D01*
X156012134Y-95882614D01*
X156009300Y-95856256D01*
X156009300Y-95046144D01*
X156028985Y-94979105D01*
X156037749Y-94968229D01*
X156037352Y-94967915D01*
X156041824Y-94962257D01*
X156041830Y-94962252D01*
X156134915Y-94811339D01*
X156190687Y-94643027D01*
X156201300Y-94539146D01*
X156201300Y-91588054D01*
X156190687Y-91484173D01*
X156134915Y-91315861D01*
X156134911Y-91315855D01*
X156134910Y-91315852D01*
X156041832Y-91164951D01*
X156041831Y-91164950D01*
X156041830Y-91164948D01*
X155916452Y-91039570D01*
X155916451Y-91039569D01*
X155916450Y-91039568D01*
X155871348Y-91011748D01*
X155824625Y-90959800D01*
X155812447Y-90906211D01*
X155812447Y-86222500D01*
X155832132Y-86155461D01*
X155884936Y-86109706D01*
X155936447Y-86098500D01*
X156094585Y-86098500D01*
X156094601Y-86098499D01*
X156121639Y-86095591D01*
X156155148Y-86091989D01*
X156292151Y-86040889D01*
X156409208Y-85953261D01*
X156496836Y-85836204D01*
X156547936Y-85699201D01*
X156551538Y-85665692D01*
X156554446Y-85638654D01*
X158679172Y-85638654D01*
X158685683Y-85699202D01*
X158685683Y-85699204D01*
X158736783Y-85836204D01*
X158824411Y-85953261D01*
X158941468Y-86040889D01*
X159078471Y-86091989D01*
X159105722Y-86094918D01*
X159139017Y-86098499D01*
X159139034Y-86098500D01*
X159297172Y-86098500D01*
X159364211Y-86118185D01*
X159409966Y-86170989D01*
X159421172Y-86222500D01*
X159421172Y-91096704D01*
X159402711Y-91161801D01*
X159307686Y-91315858D01*
X159307684Y-91315863D01*
X159251913Y-91484171D01*
X159241300Y-91588046D01*
X159241300Y-94539153D01*
X159251913Y-94643028D01*
X159307684Y-94811336D01*
X159307689Y-94811347D01*
X159400767Y-94962248D01*
X159405248Y-94967915D01*
X159403078Y-94969630D01*
X159430466Y-95019786D01*
X159433300Y-95046144D01*
X159433300Y-95856256D01*
X159413615Y-95923295D01*
X159396981Y-95943937D01*
X159316770Y-96024147D01*
X159316767Y-96024151D01*
X159223689Y-96175052D01*
X159223684Y-96175063D01*
X159167913Y-96343371D01*
X159157300Y-96447246D01*
X159157300Y-97448353D01*
X159167913Y-97552228D01*
X159223684Y-97720536D01*
X159223689Y-97720547D01*
X159316767Y-97871448D01*
X159316770Y-97871452D01*
X159442147Y-97996829D01*
X159442151Y-97996832D01*
X159593052Y-98089910D01*
X159593055Y-98089911D01*
X159593061Y-98089915D01*
X159761373Y-98145687D01*
X159865254Y-98156300D01*
X159865259Y-98156300D01*
X162816341Y-98156300D01*
X162816346Y-98156300D01*
X162920227Y-98145687D01*
X163088539Y-98089915D01*
X163239452Y-97996830D01*
X163364830Y-97871452D01*
X163406963Y-97803144D01*
X163458909Y-97756422D01*
X163527872Y-97745199D01*
X163591954Y-97773043D01*
X163618035Y-97803142D01*
X163660168Y-97871448D01*
X163660171Y-97871453D01*
X163785547Y-97996829D01*
X163785551Y-97996832D01*
X163936452Y-98089910D01*
X163936455Y-98089911D01*
X163936461Y-98089915D01*
X164104773Y-98145687D01*
X164208654Y-98156300D01*
X164208659Y-98156300D01*
X167159741Y-98156300D01*
X167159746Y-98156300D01*
X167263627Y-98145687D01*
X167431939Y-98089915D01*
X167582852Y-97996830D01*
X167708230Y-97871452D01*
X167801315Y-97720539D01*
X167857087Y-97552227D01*
X167867700Y-97448346D01*
X167867700Y-96447254D01*
X167857087Y-96343373D01*
X167801315Y-96175061D01*
X167801311Y-96175055D01*
X167801310Y-96175052D01*
X167708232Y-96024151D01*
X167708231Y-96024150D01*
X167708230Y-96024148D01*
X167602618Y-95918536D01*
X167569134Y-95857213D01*
X167566300Y-95830855D01*
X167566300Y-95046144D01*
X167585985Y-94979105D01*
X167594749Y-94968229D01*
X167594352Y-94967915D01*
X167598824Y-94962257D01*
X167598830Y-94962252D01*
X167691915Y-94811339D01*
X167747687Y-94643027D01*
X167758300Y-94539146D01*
X167758300Y-91588054D01*
X167747687Y-91484173D01*
X167691915Y-91315861D01*
X167691911Y-91315855D01*
X167691910Y-91315852D01*
X167598832Y-91164951D01*
X167598829Y-91164947D01*
X167490491Y-91056609D01*
X167457006Y-90995286D01*
X167454172Y-90968928D01*
X167454172Y-86222500D01*
X167473857Y-86155461D01*
X167526661Y-86109706D01*
X167578172Y-86098500D01*
X167736310Y-86098500D01*
X167736326Y-86098499D01*
X167763364Y-86095591D01*
X167796873Y-86091989D01*
X167933876Y-86040889D01*
X168050933Y-85953261D01*
X168138561Y-85836204D01*
X168189661Y-85699201D01*
X168193263Y-85665692D01*
X168196171Y-85638654D01*
X170320899Y-85638654D01*
X170327410Y-85699202D01*
X170327410Y-85699204D01*
X170378510Y-85836204D01*
X170466138Y-85953261D01*
X170583195Y-86040889D01*
X170720198Y-86091989D01*
X170747449Y-86094918D01*
X170780744Y-86098499D01*
X170780761Y-86098500D01*
X171321899Y-86098500D01*
X171388938Y-86118185D01*
X171434693Y-86170989D01*
X171445899Y-86222500D01*
X171445899Y-89806966D01*
X171444160Y-89822713D01*
X171444431Y-89822739D01*
X171443697Y-89830505D01*
X171443697Y-89830508D01*
X171443697Y-89830509D01*
X171445232Y-89879347D01*
X171445838Y-89898616D01*
X171445899Y-89902512D01*
X171445899Y-90086466D01*
X171460925Y-90205397D01*
X171460925Y-90205400D01*
X171519846Y-90354216D01*
X171519849Y-90354221D01*
X171527417Y-90364637D01*
X171550898Y-90430443D01*
X171551100Y-90437524D01*
X171551100Y-90810805D01*
X171531415Y-90877844D01*
X171478611Y-90923599D01*
X171466108Y-90928509D01*
X171457687Y-90931300D01*
X171411863Y-90946484D01*
X171411852Y-90946489D01*
X171260951Y-91039567D01*
X171260947Y-91039570D01*
X171135570Y-91164947D01*
X171135567Y-91164951D01*
X171042489Y-91315852D01*
X171042484Y-91315863D01*
X170986713Y-91484171D01*
X170976100Y-91588046D01*
X170976100Y-94539153D01*
X170986713Y-94643028D01*
X171042484Y-94811336D01*
X171042489Y-94811347D01*
X171135567Y-94962248D01*
X171140048Y-94967915D01*
X171137878Y-94969630D01*
X171165266Y-95019786D01*
X171168100Y-95046144D01*
X171168100Y-95622148D01*
X171148415Y-95689187D01*
X171095611Y-95734942D01*
X171056704Y-95745506D01*
X171013571Y-95749913D01*
X170845263Y-95805684D01*
X170845252Y-95805689D01*
X170694351Y-95898767D01*
X170694347Y-95898770D01*
X170568970Y-96024147D01*
X170568967Y-96024151D01*
X170475889Y-96175052D01*
X170475884Y-96175063D01*
X170420113Y-96343371D01*
X170409500Y-96447246D01*
X170409500Y-97448353D01*
X170420113Y-97552228D01*
X170475884Y-97720536D01*
X170475889Y-97720547D01*
X170568967Y-97871448D01*
X170568970Y-97871452D01*
X170694347Y-97996829D01*
X170694351Y-97996832D01*
X170845252Y-98089910D01*
X170845255Y-98089911D01*
X170845261Y-98089915D01*
X171013573Y-98145687D01*
X171117454Y-98156300D01*
X171117459Y-98156300D01*
X174068541Y-98156300D01*
X174068546Y-98156300D01*
X174172427Y-98145687D01*
X174340739Y-98089915D01*
X174491652Y-97996830D01*
X174617030Y-97871452D01*
X174710115Y-97720539D01*
X174765887Y-97552227D01*
X174776499Y-97448353D01*
X175311700Y-97448353D01*
X175322313Y-97552228D01*
X175378084Y-97720536D01*
X175378089Y-97720547D01*
X175471167Y-97871448D01*
X175471170Y-97871452D01*
X175596547Y-97996829D01*
X175596551Y-97996832D01*
X175747452Y-98089910D01*
X175747455Y-98089911D01*
X175747461Y-98089915D01*
X175915773Y-98145687D01*
X176019654Y-98156300D01*
X176019659Y-98156300D01*
X178970741Y-98156300D01*
X178970746Y-98156300D01*
X179074627Y-98145687D01*
X179242939Y-98089915D01*
X179393852Y-97996830D01*
X179519230Y-97871452D01*
X179612315Y-97720539D01*
X179668087Y-97552227D01*
X179678700Y-97448346D01*
X179678700Y-96447254D01*
X179668087Y-96343373D01*
X179612315Y-96175061D01*
X179612311Y-96175055D01*
X179612310Y-96175052D01*
X179519232Y-96024151D01*
X179519231Y-96024150D01*
X179519230Y-96024148D01*
X179393852Y-95898770D01*
X179393851Y-95898769D01*
X179393850Y-95898768D01*
X179360001Y-95877889D01*
X179313277Y-95825940D01*
X179301100Y-95772352D01*
X179301100Y-95046144D01*
X179320785Y-94979105D01*
X179329549Y-94968229D01*
X179329152Y-94967915D01*
X179333624Y-94962257D01*
X179333630Y-94962252D01*
X179426715Y-94811339D01*
X179482487Y-94643027D01*
X179493100Y-94539146D01*
X179493100Y-91588054D01*
X179482487Y-91484173D01*
X179469175Y-91444000D01*
X185113385Y-91444000D01*
X188129589Y-91444000D01*
X188104466Y-91541030D01*
X188094114Y-91745165D01*
X188124574Y-91944000D01*
X185116793Y-91944000D01*
X185129375Y-92069076D01*
X185129376Y-92069079D01*
X185199208Y-92362107D01*
X185199210Y-92362116D01*
X185307474Y-92643216D01*
X185307481Y-92643231D01*
X185452248Y-92907395D01*
X185452252Y-92907401D01*
X185630935Y-93149911D01*
X185840355Y-93366451D01*
X185840362Y-93366457D01*
X186076768Y-93553145D01*
X186335948Y-93706657D01*
X186335966Y-93706666D01*
X186613283Y-93824260D01*
X186613300Y-93824265D01*
X186903826Y-93903848D01*
X187202384Y-93944000D01*
X188853000Y-93944000D01*
X188853000Y-92668625D01*
X189000801Y-92699000D01*
X189153967Y-92699000D01*
X189306348Y-92683504D01*
X189353000Y-92668867D01*
X189353000Y-93944000D01*
X190928236Y-93944000D01*
X191153564Y-93928915D01*
X191153573Y-93928913D01*
X191448758Y-93868916D01*
X191448773Y-93868912D01*
X191733343Y-93770098D01*
X191733346Y-93770096D01*
X192002198Y-93634240D01*
X192250564Y-93463745D01*
X192473971Y-93261685D01*
X192668464Y-93031638D01*
X192830554Y-92777728D01*
X192830555Y-92777726D01*
X192957351Y-92504485D01*
X192957356Y-92504471D01*
X193046605Y-92216765D01*
X193092615Y-91944000D01*
X190076411Y-91944000D01*
X190101534Y-91846970D01*
X190111886Y-91642835D01*
X190081426Y-91444000D01*
X193089207Y-91444000D01*
X193089207Y-91443999D01*
X193076624Y-91318923D01*
X193076623Y-91318920D01*
X193006791Y-91025892D01*
X193006789Y-91025883D01*
X192898525Y-90744783D01*
X192898518Y-90744768D01*
X192753751Y-90480604D01*
X192753747Y-90480598D01*
X192575064Y-90238088D01*
X192365644Y-90021548D01*
X192365637Y-90021542D01*
X192129231Y-89834854D01*
X191870051Y-89681342D01*
X191870033Y-89681333D01*
X191592716Y-89563739D01*
X191592699Y-89563734D01*
X191302173Y-89484151D01*
X191003617Y-89444000D01*
X189353000Y-89444000D01*
X189353000Y-90719374D01*
X189205199Y-90689000D01*
X189052033Y-90689000D01*
X188899652Y-90704496D01*
X188853000Y-90719132D01*
X188853000Y-89444000D01*
X187277764Y-89444000D01*
X187052435Y-89459084D01*
X187052426Y-89459086D01*
X186757241Y-89519083D01*
X186757226Y-89519087D01*
X186472656Y-89617901D01*
X186472653Y-89617903D01*
X186203801Y-89753759D01*
X185955435Y-89924254D01*
X185732028Y-90126314D01*
X185537535Y-90356361D01*
X185375445Y-90610271D01*
X185375444Y-90610273D01*
X185248648Y-90883514D01*
X185248643Y-90883528D01*
X185159394Y-91171234D01*
X185113385Y-91444000D01*
X179469175Y-91444000D01*
X179426715Y-91315861D01*
X179426711Y-91315855D01*
X179426710Y-91315852D01*
X179333632Y-91164951D01*
X179333629Y-91164947D01*
X179208252Y-91039570D01*
X179208248Y-91039567D01*
X179057347Y-90946489D01*
X179057341Y-90946486D01*
X179057339Y-90946485D01*
X179003095Y-90928510D01*
X178945651Y-90888738D01*
X178918828Y-90824222D01*
X178918100Y-90810805D01*
X178918100Y-90306432D01*
X178919838Y-90290682D01*
X178919568Y-90290657D01*
X178920301Y-90282895D01*
X178920302Y-90282892D01*
X178918161Y-90214783D01*
X178918100Y-90210887D01*
X178918100Y-90182947D01*
X178917582Y-90178850D01*
X178916664Y-90167191D01*
X178916239Y-90153657D01*
X178915273Y-90122912D01*
X178909577Y-90103310D01*
X178905632Y-90084260D01*
X178903074Y-90064004D01*
X178886762Y-90022805D01*
X178882979Y-90011757D01*
X178870618Y-89969208D01*
X178860222Y-89951630D01*
X178851666Y-89934163D01*
X178847743Y-89924254D01*
X178844152Y-89915184D01*
X178818110Y-89879340D01*
X178811699Y-89869582D01*
X178789142Y-89831439D01*
X178774708Y-89817005D01*
X178762071Y-89802210D01*
X178750072Y-89785694D01*
X178750071Y-89785693D01*
X178746502Y-89781892D01*
X178714963Y-89719545D01*
X178712899Y-89697013D01*
X178712899Y-86222500D01*
X178732584Y-86155461D01*
X178785388Y-86109706D01*
X178836899Y-86098500D01*
X179378037Y-86098500D01*
X179378053Y-86098499D01*
X179405091Y-86095591D01*
X179438600Y-86091989D01*
X179575603Y-86040889D01*
X179692660Y-85953261D01*
X179780288Y-85836204D01*
X179831388Y-85699201D01*
X179834990Y-85665692D01*
X179837898Y-85638654D01*
X179837899Y-85638637D01*
X179837899Y-85283409D01*
X179857584Y-85216370D01*
X179910388Y-85170615D01*
X179979546Y-85160671D01*
X180043102Y-85189696D01*
X180049580Y-85195728D01*
X182221928Y-87368077D01*
X182337928Y-87463277D01*
X182337935Y-87463281D01*
X182514512Y-87557663D01*
X182514513Y-87557663D01*
X182514520Y-87557667D01*
X182706131Y-87615791D01*
X182706133Y-87615791D01*
X182711961Y-87617559D01*
X182711592Y-87618773D01*
X182750219Y-87635265D01*
X182916251Y-87751523D01*
X182969401Y-87776307D01*
X183123750Y-87848281D01*
X183123752Y-87848281D01*
X183123757Y-87848284D01*
X183344913Y-87907543D01*
X183515871Y-87922499D01*
X183515872Y-87922500D01*
X183515873Y-87922500D01*
X184530128Y-87922500D01*
X184530128Y-87922499D01*
X184701087Y-87907543D01*
X184922243Y-87848284D01*
X185129749Y-87751523D01*
X185317300Y-87620198D01*
X185479198Y-87458300D01*
X185610523Y-87270749D01*
X185707284Y-87063243D01*
X185766543Y-86842087D01*
X185786498Y-86614000D01*
X185766543Y-86385913D01*
X185707284Y-86164757D01*
X185681613Y-86109706D01*
X185610524Y-85957254D01*
X185610523Y-85957252D01*
X185610523Y-85957251D01*
X185479198Y-85769700D01*
X185317300Y-85607802D01*
X185129749Y-85476477D01*
X185076596Y-85451691D01*
X185024158Y-85405519D01*
X185005007Y-85338325D01*
X185025223Y-85271444D01*
X185076600Y-85226927D01*
X185125483Y-85204133D01*
X185311820Y-85073657D01*
X185472657Y-84912820D01*
X185603134Y-84726482D01*
X185699265Y-84520326D01*
X185699269Y-84520317D01*
X185751872Y-84324000D01*
X184392503Y-84324000D01*
X184441917Y-84238413D01*
X184471768Y-84107630D01*
X184461743Y-83973860D01*
X184412734Y-83848987D01*
X184392807Y-83824000D01*
X185751872Y-83824000D01*
X185751872Y-83823999D01*
X185699269Y-83627682D01*
X185699265Y-83627673D01*
X185603134Y-83421517D01*
X185472657Y-83235179D01*
X185311820Y-83074342D01*
X185125482Y-82943865D01*
X184919326Y-82847734D01*
X184919317Y-82847730D01*
X184699610Y-82788860D01*
X184699599Y-82788858D01*
X184529766Y-82774000D01*
X184273000Y-82774000D01*
X184273000Y-83705862D01*
X184218259Y-83668541D01*
X184090073Y-83629000D01*
X183989654Y-83629000D01*
X183890353Y-83643967D01*
X183773000Y-83700481D01*
X183773000Y-82774000D01*
X183516233Y-82774000D01*
X183346400Y-82788858D01*
X183346389Y-82788860D01*
X183126682Y-82847730D01*
X183126673Y-82847734D01*
X182920517Y-82943865D01*
X182734179Y-83074342D01*
X182573342Y-83235179D01*
X182442865Y-83421517D01*
X182346734Y-83627673D01*
X182346730Y-83627682D01*
X182294127Y-83823999D01*
X182294128Y-83824000D01*
X183653497Y-83824000D01*
X183604083Y-83909587D01*
X183574232Y-84040370D01*
X183584257Y-84174140D01*
X183633266Y-84299013D01*
X183653193Y-84324000D01*
X182294128Y-84324000D01*
X182275488Y-84348291D01*
X182219060Y-84389493D01*
X182149314Y-84393647D01*
X182089432Y-84360484D01*
X179874218Y-82145270D01*
X179840733Y-82083947D01*
X179837899Y-82057589D01*
X179837899Y-82041362D01*
X179837898Y-82041345D01*
X179834556Y-82010270D01*
X179831388Y-81980799D01*
X179780288Y-81843796D01*
X179692660Y-81726739D01*
X179575603Y-81639111D01*
X179575600Y-81639110D01*
X179438602Y-81588011D01*
X179378053Y-81581500D01*
X179378037Y-81581500D01*
X179018651Y-81581500D01*
X179006496Y-81580903D01*
X178881400Y-81568581D01*
X178756304Y-81580903D01*
X178744149Y-81581500D01*
X176780744Y-81581500D01*
X176720196Y-81588011D01*
X176720194Y-81588011D01*
X176583194Y-81639111D01*
X176466138Y-81726739D01*
X176378510Y-81843795D01*
X176327410Y-81980795D01*
X176327410Y-81980797D01*
X176320899Y-82041345D01*
X176320899Y-83138654D01*
X176327410Y-83199202D01*
X176327410Y-83199204D01*
X176366403Y-83303745D01*
X176378510Y-83336204D01*
X176466138Y-83453261D01*
X176583195Y-83540889D01*
X176720198Y-83591989D01*
X176747449Y-83594918D01*
X176780744Y-83598499D01*
X176780761Y-83598500D01*
X178400990Y-83598500D01*
X178468029Y-83618185D01*
X178488671Y-83634819D01*
X178723671Y-83869819D01*
X178757156Y-83931142D01*
X178752172Y-84000834D01*
X178710300Y-84056767D01*
X178644836Y-84081184D01*
X178635990Y-84081500D01*
X176780744Y-84081500D01*
X176720196Y-84088011D01*
X176720194Y-84088011D01*
X176583194Y-84139111D01*
X176466138Y-84226739D01*
X176378510Y-84343795D01*
X176327410Y-84480795D01*
X176327410Y-84480797D01*
X176320899Y-84541345D01*
X176320899Y-85638654D01*
X176327410Y-85699202D01*
X176327410Y-85699204D01*
X176378510Y-85836204D01*
X176466138Y-85953261D01*
X176583195Y-86040889D01*
X176720198Y-86091989D01*
X176747449Y-86094918D01*
X176780744Y-86098499D01*
X176780761Y-86098500D01*
X177321899Y-86098500D01*
X177388938Y-86118185D01*
X177434693Y-86170989D01*
X177445899Y-86222500D01*
X177445899Y-89933966D01*
X177444160Y-89949713D01*
X177444431Y-89949739D01*
X177443697Y-89957505D01*
X177445838Y-90025616D01*
X177445899Y-90029512D01*
X177445899Y-90131664D01*
X177460925Y-90250595D01*
X177460925Y-90250598D01*
X177519846Y-90399414D01*
X177519849Y-90399419D01*
X177613927Y-90528906D01*
X177617488Y-90532697D01*
X177649033Y-90595040D01*
X177651100Y-90617585D01*
X177651100Y-90810805D01*
X177631415Y-90877844D01*
X177578611Y-90923599D01*
X177566108Y-90928509D01*
X177557687Y-90931300D01*
X177511863Y-90946484D01*
X177511852Y-90946489D01*
X177360951Y-91039567D01*
X177360947Y-91039570D01*
X177235570Y-91164947D01*
X177235567Y-91164951D01*
X177142489Y-91315852D01*
X177142484Y-91315863D01*
X177086713Y-91484171D01*
X177076100Y-91588046D01*
X177076100Y-94539153D01*
X177086713Y-94643028D01*
X177142484Y-94811336D01*
X177142489Y-94811347D01*
X177235567Y-94962248D01*
X177240048Y-94967915D01*
X177237878Y-94969630D01*
X177265266Y-95019786D01*
X177268100Y-95046144D01*
X177268100Y-95615300D01*
X177248415Y-95682339D01*
X177195611Y-95728094D01*
X177144100Y-95739300D01*
X176019646Y-95739300D01*
X175915771Y-95749913D01*
X175747463Y-95805684D01*
X175747452Y-95805689D01*
X175596551Y-95898767D01*
X175596547Y-95898770D01*
X175471170Y-96024147D01*
X175471167Y-96024151D01*
X175378089Y-96175052D01*
X175378084Y-96175063D01*
X175322313Y-96343371D01*
X175311700Y-96447246D01*
X175311700Y-97448353D01*
X174776499Y-97448353D01*
X174776500Y-97448346D01*
X174776500Y-96447254D01*
X174765887Y-96343373D01*
X174710115Y-96175061D01*
X174710111Y-96175055D01*
X174710110Y-96175052D01*
X174617032Y-96024151D01*
X174617029Y-96024147D01*
X174491652Y-95898770D01*
X174491648Y-95898767D01*
X174340747Y-95805689D01*
X174340741Y-95805686D01*
X174340739Y-95805685D01*
X174306091Y-95794204D01*
X174172428Y-95749913D01*
X174068553Y-95739300D01*
X174068546Y-95739300D01*
X173325100Y-95739300D01*
X173258061Y-95719615D01*
X173212306Y-95666811D01*
X173201100Y-95615300D01*
X173201100Y-95046144D01*
X173220785Y-94979105D01*
X173229549Y-94968229D01*
X173229152Y-94967915D01*
X173233624Y-94962257D01*
X173233630Y-94962252D01*
X173326715Y-94811339D01*
X173382487Y-94643027D01*
X173393100Y-94539146D01*
X173393100Y-91588054D01*
X173382487Y-91484173D01*
X173326715Y-91315861D01*
X173326711Y-91315855D01*
X173326710Y-91315852D01*
X173233632Y-91164951D01*
X173233629Y-91164947D01*
X173108252Y-91039570D01*
X173108248Y-91039567D01*
X172957347Y-90946489D01*
X172957341Y-90946486D01*
X172957339Y-90946485D01*
X172903095Y-90928510D01*
X172845651Y-90888738D01*
X172818828Y-90824222D01*
X172818100Y-90810805D01*
X172818100Y-90079433D01*
X172819839Y-90063681D01*
X172819568Y-90063656D01*
X172820300Y-90055900D01*
X172820302Y-90055893D01*
X172818161Y-89987769D01*
X172818100Y-89983874D01*
X172818100Y-89955948D01*
X172818100Y-89955945D01*
X172817582Y-89951848D01*
X172816665Y-89940199D01*
X172816582Y-89937570D01*
X172815274Y-89895912D01*
X172809574Y-89876293D01*
X172805631Y-89857247D01*
X172803074Y-89837005D01*
X172803074Y-89837004D01*
X172786756Y-89795791D01*
X172782986Y-89784776D01*
X172770619Y-89742208D01*
X172760220Y-89724625D01*
X172751666Y-89707164D01*
X172744152Y-89688184D01*
X172744151Y-89688181D01*
X172736580Y-89677761D01*
X172713101Y-89611955D01*
X172712899Y-89604877D01*
X172712899Y-86222500D01*
X172732584Y-86155461D01*
X172785388Y-86109706D01*
X172836899Y-86098500D01*
X173378037Y-86098500D01*
X173378053Y-86098499D01*
X173405091Y-86095591D01*
X173438600Y-86091989D01*
X173575603Y-86040889D01*
X173692660Y-85953261D01*
X173780288Y-85836204D01*
X173831388Y-85699201D01*
X173834990Y-85665692D01*
X173837898Y-85638654D01*
X173837899Y-85638637D01*
X173837899Y-84541362D01*
X173837898Y-84541345D01*
X173833886Y-84504033D01*
X173831388Y-84480799D01*
X173830888Y-84479459D01*
X173802703Y-84403892D01*
X173780288Y-84343796D01*
X173692660Y-84226739D01*
X173575603Y-84139111D01*
X173438602Y-84088011D01*
X173378053Y-84081500D01*
X173378037Y-84081500D01*
X170780761Y-84081500D01*
X170780744Y-84081500D01*
X170720196Y-84088011D01*
X170720194Y-84088011D01*
X170583194Y-84139111D01*
X170466138Y-84226739D01*
X170378510Y-84343795D01*
X170327410Y-84480795D01*
X170327410Y-84480797D01*
X170320899Y-84541345D01*
X170320899Y-85638654D01*
X168196171Y-85638654D01*
X168196172Y-85638637D01*
X168196172Y-84541362D01*
X168196171Y-84541345D01*
X168192159Y-84504033D01*
X168189661Y-84480799D01*
X168189161Y-84479459D01*
X168160976Y-84403892D01*
X168138561Y-84343796D01*
X168050933Y-84226739D01*
X167933876Y-84139111D01*
X167796875Y-84088011D01*
X167736326Y-84081500D01*
X167736310Y-84081500D01*
X166574925Y-84081500D01*
X166562771Y-84080903D01*
X166437672Y-84068582D01*
X166312573Y-84080903D01*
X166300419Y-84081500D01*
X165139017Y-84081500D01*
X165078469Y-84088011D01*
X165078467Y-84088011D01*
X164941467Y-84139111D01*
X164824411Y-84226739D01*
X164736783Y-84343795D01*
X164685683Y-84480795D01*
X164685683Y-84480797D01*
X164679172Y-84541345D01*
X164679172Y-85638654D01*
X164685683Y-85699202D01*
X164685683Y-85699204D01*
X164736783Y-85836204D01*
X164824411Y-85953261D01*
X164941468Y-86040889D01*
X165078471Y-86091989D01*
X165105722Y-86094918D01*
X165139017Y-86098499D01*
X165139034Y-86098500D01*
X165297172Y-86098500D01*
X165364211Y-86118185D01*
X165409966Y-86170989D01*
X165421172Y-86222500D01*
X165421172Y-91259447D01*
X165409554Y-91311853D01*
X165407682Y-91315866D01*
X165351913Y-91484169D01*
X165351913Y-91484170D01*
X165341300Y-91588046D01*
X165341300Y-94539153D01*
X165351913Y-94643028D01*
X165407684Y-94811336D01*
X165407689Y-94811347D01*
X165500767Y-94962248D01*
X165505248Y-94967915D01*
X165503078Y-94969630D01*
X165530466Y-95019786D01*
X165533300Y-95046144D01*
X165533300Y-95615300D01*
X165513615Y-95682339D01*
X165460811Y-95728094D01*
X165409300Y-95739300D01*
X164208646Y-95739300D01*
X164104771Y-95749913D01*
X163936463Y-95805684D01*
X163936452Y-95805689D01*
X163785551Y-95898767D01*
X163785547Y-95898770D01*
X163660170Y-96024147D01*
X163660167Y-96024151D01*
X163618038Y-96092453D01*
X163566090Y-96139178D01*
X163497127Y-96150399D01*
X163433046Y-96122556D01*
X163406962Y-96092453D01*
X163364832Y-96024151D01*
X163364829Y-96024147D01*
X163239452Y-95898770D01*
X163239448Y-95898767D01*
X163088547Y-95805689D01*
X163088541Y-95805686D01*
X163088539Y-95805685D01*
X163053891Y-95794204D01*
X162920228Y-95749913D01*
X162816353Y-95739300D01*
X162816346Y-95739300D01*
X161590300Y-95739300D01*
X161523261Y-95719615D01*
X161477506Y-95666811D01*
X161466300Y-95615300D01*
X161466300Y-95046144D01*
X161485985Y-94979105D01*
X161494749Y-94968229D01*
X161494352Y-94967915D01*
X161498824Y-94962257D01*
X161498830Y-94962252D01*
X161591915Y-94811339D01*
X161647687Y-94643027D01*
X161658300Y-94539146D01*
X161658300Y-91588054D01*
X161647687Y-91484173D01*
X161591915Y-91315861D01*
X161591911Y-91315855D01*
X161591910Y-91315852D01*
X161498832Y-91164951D01*
X161498829Y-91164947D01*
X161490491Y-91156609D01*
X161457006Y-91095286D01*
X161454172Y-91068928D01*
X161454172Y-86222500D01*
X161473857Y-86155461D01*
X161526661Y-86109706D01*
X161578172Y-86098500D01*
X161736310Y-86098500D01*
X161736326Y-86098499D01*
X161763364Y-86095591D01*
X161796873Y-86091989D01*
X161933876Y-86040889D01*
X162050933Y-85953261D01*
X162138561Y-85836204D01*
X162189661Y-85699201D01*
X162193263Y-85665692D01*
X162196171Y-85638654D01*
X162196172Y-85638637D01*
X162196172Y-84541362D01*
X162196171Y-84541345D01*
X162192159Y-84504033D01*
X162189661Y-84480799D01*
X162189161Y-84479459D01*
X162160976Y-84403892D01*
X162138561Y-84343796D01*
X162050933Y-84226739D01*
X161933876Y-84139111D01*
X161796875Y-84088011D01*
X161736326Y-84081500D01*
X161736310Y-84081500D01*
X160574925Y-84081500D01*
X160562771Y-84080903D01*
X160437672Y-84068582D01*
X160312573Y-84080903D01*
X160300419Y-84081500D01*
X159139017Y-84081500D01*
X159078469Y-84088011D01*
X159078467Y-84088011D01*
X158941467Y-84139111D01*
X158824411Y-84226739D01*
X158736783Y-84343795D01*
X158685683Y-84480795D01*
X158685683Y-84480797D01*
X158679172Y-84541345D01*
X158679172Y-85638654D01*
X156554446Y-85638654D01*
X156554447Y-85638637D01*
X156554447Y-84541362D01*
X156554446Y-84541345D01*
X156550434Y-84504033D01*
X156547936Y-84480799D01*
X156547436Y-84479459D01*
X156519251Y-84403892D01*
X156496836Y-84343796D01*
X156409208Y-84226739D01*
X156292151Y-84139111D01*
X156155150Y-84088011D01*
X156094601Y-84081500D01*
X156094585Y-84081500D01*
X154933200Y-84081500D01*
X154921046Y-84080903D01*
X154795947Y-84068582D01*
X154670848Y-84080903D01*
X154658694Y-84081500D01*
X153497292Y-84081500D01*
X153436744Y-84088011D01*
X153436742Y-84088011D01*
X153299742Y-84139111D01*
X153182686Y-84226739D01*
X153095058Y-84343795D01*
X153043958Y-84480795D01*
X153043958Y-84480797D01*
X153037447Y-84541345D01*
X153037447Y-85638654D01*
X153043958Y-85699202D01*
X153043958Y-85699204D01*
X153095058Y-85836204D01*
X153182686Y-85953261D01*
X153299743Y-86040889D01*
X153436746Y-86091989D01*
X153463997Y-86094918D01*
X153497292Y-86098499D01*
X153497309Y-86098500D01*
X153655447Y-86098500D01*
X153722486Y-86118185D01*
X153768241Y-86170989D01*
X153779447Y-86222500D01*
X153779447Y-92916678D01*
X153783703Y-92959894D01*
X153784300Y-92972047D01*
X153784300Y-94539153D01*
X153794913Y-94643028D01*
X153850684Y-94811336D01*
X153850689Y-94811347D01*
X153943767Y-94962248D01*
X153948248Y-94967915D01*
X153946078Y-94969630D01*
X153973466Y-95019786D01*
X153976300Y-95046144D01*
X153976300Y-95615300D01*
X153956615Y-95682339D01*
X153903811Y-95728094D01*
X153852300Y-95739300D01*
X152626246Y-95739300D01*
X152522371Y-95749913D01*
X152354063Y-95805684D01*
X152354052Y-95805689D01*
X152203151Y-95898767D01*
X152203147Y-95898770D01*
X152077770Y-96024147D01*
X152077767Y-96024151D01*
X151984689Y-96175052D01*
X151984684Y-96175063D01*
X151928913Y-96343371D01*
X151918300Y-96447246D01*
X151918300Y-97448353D01*
X151560899Y-97448353D01*
X151560900Y-97448346D01*
X151560900Y-96447254D01*
X151550287Y-96343373D01*
X151494515Y-96175061D01*
X151494511Y-96175055D01*
X151494510Y-96175052D01*
X151401432Y-96024151D01*
X151401429Y-96024147D01*
X151276052Y-95898770D01*
X151276048Y-95898767D01*
X151125147Y-95805689D01*
X151125141Y-95805686D01*
X151125139Y-95805685D01*
X151090491Y-95794204D01*
X150956828Y-95749913D01*
X150852953Y-95739300D01*
X150852946Y-95739300D01*
X150033300Y-95739300D01*
X149966261Y-95719615D01*
X149920506Y-95666811D01*
X149909300Y-95615300D01*
X149909300Y-95046144D01*
X149928985Y-94979105D01*
X149937749Y-94968229D01*
X149937352Y-94967915D01*
X149941824Y-94962257D01*
X149941830Y-94962252D01*
X150034915Y-94811339D01*
X150090687Y-94643027D01*
X150101300Y-94539146D01*
X150101300Y-91588054D01*
X150090687Y-91484173D01*
X150034915Y-91315861D01*
X150034911Y-91315855D01*
X150034910Y-91315852D01*
X149941832Y-91164951D01*
X149941829Y-91164947D01*
X149848766Y-91071884D01*
X149815281Y-91010561D01*
X149812447Y-90984203D01*
X149812447Y-86222500D01*
X149832132Y-86155461D01*
X149884936Y-86109706D01*
X149936447Y-86098500D01*
X150094585Y-86098500D01*
X150094601Y-86098499D01*
X150121639Y-86095591D01*
X150155148Y-86091989D01*
X150292151Y-86040889D01*
X150409208Y-85953261D01*
X150496836Y-85836204D01*
X150547936Y-85699201D01*
X150551538Y-85665692D01*
X150554446Y-85638654D01*
X150554447Y-85638637D01*
X150554447Y-84541362D01*
X150554446Y-84541345D01*
X150550434Y-84504033D01*
X150547936Y-84480799D01*
X150547436Y-84479459D01*
X150519251Y-84403892D01*
X150496836Y-84343796D01*
X150409208Y-84226739D01*
X150292151Y-84139111D01*
X150155150Y-84088011D01*
X150094601Y-84081500D01*
X150094585Y-84081500D01*
X148933200Y-84081500D01*
X148921046Y-84080903D01*
X148795947Y-84068582D01*
X148670848Y-84080903D01*
X148658694Y-84081500D01*
X147497292Y-84081500D01*
X147436744Y-84088011D01*
X147436742Y-84088011D01*
X147299742Y-84139111D01*
X147182686Y-84226739D01*
X147095058Y-84343795D01*
X147043958Y-84480795D01*
X147043958Y-84480797D01*
X147037447Y-84541345D01*
X147037447Y-85638654D01*
X144912721Y-85638654D01*
X144912722Y-85638637D01*
X144912722Y-84541362D01*
X144912721Y-84541345D01*
X144908709Y-84504033D01*
X144906211Y-84480799D01*
X144905711Y-84479459D01*
X144877526Y-84403892D01*
X144855111Y-84343796D01*
X144767483Y-84226739D01*
X144650426Y-84139111D01*
X144513425Y-84088011D01*
X144452876Y-84081500D01*
X144452860Y-84081500D01*
X143291475Y-84081500D01*
X143279321Y-84080903D01*
X143154222Y-84068582D01*
X143029123Y-84080903D01*
X143016969Y-84081500D01*
X141855567Y-84081500D01*
X141795019Y-84088011D01*
X141795017Y-84088011D01*
X141658017Y-84139111D01*
X141540961Y-84226739D01*
X141453333Y-84343795D01*
X141402233Y-84480795D01*
X141402233Y-84480797D01*
X141395722Y-84541345D01*
X141395722Y-85638654D01*
X141402233Y-85699202D01*
X141402233Y-85699204D01*
X141453333Y-85836204D01*
X141540961Y-85953261D01*
X141658018Y-86040889D01*
X141795021Y-86091989D01*
X141822272Y-86094918D01*
X141855567Y-86098499D01*
X141855584Y-86098500D01*
X142013722Y-86098500D01*
X142080761Y-86118185D01*
X142126516Y-86170989D01*
X142137722Y-86222500D01*
X142137722Y-92857356D01*
X142142651Y-92907401D01*
X142152430Y-93006693D01*
X142196560Y-93152166D01*
X142201900Y-93188162D01*
X142201900Y-94539153D01*
X142212513Y-94643028D01*
X142268284Y-94811336D01*
X142268289Y-94811347D01*
X142361367Y-94962248D01*
X142365848Y-94967915D01*
X142363678Y-94969630D01*
X142391066Y-95019786D01*
X142393900Y-95046144D01*
X142393900Y-95615300D01*
X142374215Y-95682339D01*
X142321411Y-95728094D01*
X142269900Y-95739300D01*
X141196246Y-95739300D01*
X141092371Y-95749913D01*
X140924063Y-95805684D01*
X140924052Y-95805689D01*
X140773151Y-95898767D01*
X140773147Y-95898770D01*
X140647770Y-96024147D01*
X140647767Y-96024151D01*
X140554689Y-96175052D01*
X140554684Y-96175063D01*
X140498913Y-96343371D01*
X140488300Y-96447246D01*
X140488300Y-97448353D01*
X140105499Y-97448353D01*
X140105500Y-97448346D01*
X140105500Y-96447254D01*
X140094887Y-96343373D01*
X140039115Y-96175061D01*
X140039111Y-96175055D01*
X140039110Y-96175052D01*
X139946032Y-96024151D01*
X139946029Y-96024147D01*
X139820652Y-95898770D01*
X139820648Y-95898767D01*
X139669747Y-95805689D01*
X139669741Y-95805686D01*
X139669739Y-95805685D01*
X139635091Y-95794204D01*
X139501428Y-95749913D01*
X139397553Y-95739300D01*
X139397546Y-95739300D01*
X138450900Y-95739300D01*
X138383861Y-95719615D01*
X138338106Y-95666811D01*
X138326900Y-95615300D01*
X138326900Y-95046144D01*
X138346585Y-94979105D01*
X138355349Y-94968229D01*
X138354952Y-94967915D01*
X138359424Y-94962257D01*
X138359430Y-94962252D01*
X138452515Y-94811339D01*
X138508287Y-94643027D01*
X138518900Y-94539146D01*
X138518900Y-91588054D01*
X138508287Y-91484173D01*
X138452515Y-91315861D01*
X138452511Y-91315855D01*
X138452510Y-91315852D01*
X138359432Y-91164951D01*
X138359431Y-91164950D01*
X138359430Y-91164948D01*
X138234052Y-91039570D01*
X138234051Y-91039569D01*
X138229619Y-91036835D01*
X138182897Y-90984884D01*
X138170722Y-90931300D01*
X138170722Y-86222500D01*
X138190407Y-86155461D01*
X138243211Y-86109706D01*
X138294722Y-86098500D01*
X138452860Y-86098500D01*
X138452876Y-86098499D01*
X138479914Y-86095591D01*
X138513423Y-86091989D01*
X138650426Y-86040889D01*
X138767483Y-85953261D01*
X138855111Y-85836204D01*
X138906211Y-85699201D01*
X138909813Y-85665692D01*
X138912721Y-85638654D01*
X138912722Y-85638637D01*
X138912722Y-84541362D01*
X138912721Y-84541345D01*
X138908709Y-84504033D01*
X138906211Y-84480799D01*
X138905711Y-84479459D01*
X138877526Y-84403892D01*
X138855111Y-84343796D01*
X138767483Y-84226739D01*
X138650426Y-84139111D01*
X138513425Y-84088011D01*
X138452876Y-84081500D01*
X138452860Y-84081500D01*
X137291475Y-84081500D01*
X137279321Y-84080903D01*
X137154222Y-84068582D01*
X137029123Y-84080903D01*
X137016969Y-84081500D01*
X135855567Y-84081500D01*
X135795019Y-84088011D01*
X135795017Y-84088011D01*
X135658017Y-84139111D01*
X135540961Y-84226739D01*
X135453333Y-84343795D01*
X135402233Y-84480795D01*
X135402233Y-84480797D01*
X135395722Y-84541345D01*
X135395722Y-85638654D01*
X133270996Y-85638654D01*
X133270997Y-85638637D01*
X133270997Y-84541362D01*
X133270996Y-84541345D01*
X133266984Y-84504033D01*
X133264486Y-84480799D01*
X133263986Y-84479459D01*
X133235801Y-84403892D01*
X133213386Y-84343796D01*
X133125758Y-84226739D01*
X133008701Y-84139111D01*
X132871700Y-84088011D01*
X132811151Y-84081500D01*
X132811135Y-84081500D01*
X131649750Y-84081500D01*
X131637596Y-84080903D01*
X131512497Y-84068582D01*
X131387398Y-84080903D01*
X131375244Y-84081500D01*
X130213842Y-84081500D01*
X130153294Y-84088011D01*
X130153292Y-84088011D01*
X130016292Y-84139111D01*
X129899236Y-84226739D01*
X129811608Y-84343795D01*
X129760508Y-84480795D01*
X129760508Y-84480797D01*
X129753997Y-84541345D01*
X129753997Y-85638654D01*
X129760508Y-85699202D01*
X129760508Y-85699204D01*
X129811608Y-85836204D01*
X129899236Y-85953261D01*
X130016293Y-86040889D01*
X130153296Y-86091989D01*
X130180547Y-86094918D01*
X130213842Y-86098499D01*
X130213859Y-86098500D01*
X130371997Y-86098500D01*
X130439036Y-86118185D01*
X130484791Y-86170989D01*
X130495997Y-86222500D01*
X130495997Y-92747231D01*
X130499001Y-92777728D01*
X130510705Y-92896568D01*
X130568829Y-93088176D01*
X130568830Y-93088177D01*
X130655658Y-93250621D01*
X130670300Y-93309073D01*
X130670300Y-94539153D01*
X130680913Y-94643028D01*
X130736684Y-94811336D01*
X130736689Y-94811347D01*
X130829767Y-94962248D01*
X130834248Y-94967915D01*
X130832078Y-94969630D01*
X130859466Y-95019786D01*
X130862300Y-95046144D01*
X130862300Y-95615300D01*
X130842615Y-95682339D01*
X130789811Y-95728094D01*
X130738300Y-95739300D01*
X129791646Y-95739300D01*
X129687771Y-95749913D01*
X129519463Y-95805684D01*
X129519452Y-95805689D01*
X129368551Y-95898767D01*
X129368547Y-95898770D01*
X129243170Y-96024147D01*
X129243167Y-96024151D01*
X129150089Y-96175052D01*
X129150084Y-96175063D01*
X129094313Y-96343371D01*
X129083700Y-96447246D01*
X129083700Y-97448353D01*
X128218299Y-97448353D01*
X128218300Y-97448346D01*
X128218300Y-96447254D01*
X128207687Y-96343373D01*
X128151915Y-96175061D01*
X128151911Y-96175055D01*
X128151910Y-96175052D01*
X128058832Y-96024151D01*
X128058829Y-96024147D01*
X127933452Y-95898770D01*
X127933448Y-95898767D01*
X127782547Y-95805689D01*
X127782541Y-95805686D01*
X127782539Y-95805685D01*
X127747891Y-95794204D01*
X127614228Y-95749913D01*
X127510353Y-95739300D01*
X127510346Y-95739300D01*
X126919300Y-95739300D01*
X126852261Y-95719615D01*
X126806506Y-95666811D01*
X126795300Y-95615300D01*
X126795300Y-95046144D01*
X126814985Y-94979105D01*
X126823749Y-94968229D01*
X126823352Y-94967915D01*
X126827824Y-94962257D01*
X126827830Y-94962252D01*
X126920915Y-94811339D01*
X126976687Y-94643027D01*
X126987300Y-94539146D01*
X126987300Y-91588054D01*
X126976687Y-91484173D01*
X126920915Y-91315861D01*
X126920911Y-91315855D01*
X126920910Y-91315852D01*
X126827832Y-91164951D01*
X126827829Y-91164947D01*
X126702451Y-91039569D01*
X126587899Y-90968911D01*
X126541175Y-90916962D01*
X126528997Y-90863373D01*
X126528997Y-86222500D01*
X126548682Y-86155461D01*
X126601486Y-86109706D01*
X126652997Y-86098500D01*
X126811135Y-86098500D01*
X126811151Y-86098499D01*
X126838189Y-86095591D01*
X126871698Y-86091989D01*
X127008701Y-86040889D01*
X127125758Y-85953261D01*
X127213386Y-85836204D01*
X127264486Y-85699201D01*
X127268088Y-85665692D01*
X127270996Y-85638654D01*
X127270997Y-85638637D01*
X127270997Y-84541362D01*
X127270996Y-84541345D01*
X127266984Y-84504033D01*
X127264486Y-84480799D01*
X127263986Y-84479459D01*
X127235801Y-84403892D01*
X127213386Y-84343796D01*
X127125758Y-84226739D01*
X127008701Y-84139111D01*
X126871700Y-84088011D01*
X126811151Y-84081500D01*
X126811135Y-84081500D01*
X125649750Y-84081500D01*
X125637596Y-84080903D01*
X125512497Y-84068582D01*
X125387398Y-84080903D01*
X125375244Y-84081500D01*
X124213842Y-84081500D01*
X124153294Y-84088011D01*
X124153292Y-84088011D01*
X124016292Y-84139111D01*
X123899236Y-84226739D01*
X123811608Y-84343795D01*
X123760508Y-84480795D01*
X123760508Y-84480797D01*
X123753997Y-84541345D01*
X123753997Y-85638654D01*
X121629271Y-85638654D01*
X121629272Y-85638637D01*
X121629272Y-84541362D01*
X121629271Y-84541345D01*
X121625259Y-84504033D01*
X121622761Y-84480799D01*
X121622261Y-84479459D01*
X121594076Y-84403892D01*
X121571661Y-84343796D01*
X121484033Y-84226739D01*
X121366976Y-84139111D01*
X121229975Y-84088011D01*
X121169426Y-84081500D01*
X121169410Y-84081500D01*
X120008025Y-84081500D01*
X119995871Y-84080903D01*
X119870772Y-84068582D01*
X119745673Y-84080903D01*
X119733519Y-84081500D01*
X118572117Y-84081500D01*
X118511569Y-84088011D01*
X118511567Y-84088011D01*
X118374567Y-84139111D01*
X118257511Y-84226739D01*
X118169883Y-84343795D01*
X118118783Y-84480795D01*
X118118783Y-84480797D01*
X118112272Y-84541345D01*
X118112272Y-85638654D01*
X118118783Y-85699202D01*
X118118783Y-85699204D01*
X118169883Y-85836204D01*
X118257511Y-85953261D01*
X118374568Y-86040889D01*
X118511571Y-86091989D01*
X118538822Y-86094918D01*
X118572117Y-86098499D01*
X118572134Y-86098500D01*
X118730272Y-86098500D01*
X118797311Y-86118185D01*
X118843066Y-86170989D01*
X118854272Y-86222500D01*
X118854272Y-91076884D01*
X118834587Y-91143923D01*
X118817953Y-91164565D01*
X118817570Y-91164947D01*
X118817567Y-91164951D01*
X118724489Y-91315852D01*
X118724484Y-91315863D01*
X118668713Y-91484171D01*
X118658100Y-91588046D01*
X118658100Y-94539153D01*
X118668713Y-94643028D01*
X118724484Y-94811336D01*
X118724489Y-94811347D01*
X118817567Y-94962248D01*
X118822048Y-94967915D01*
X118819878Y-94969630D01*
X118847266Y-95019786D01*
X118850100Y-95046144D01*
X118850100Y-95615300D01*
X118830415Y-95682339D01*
X118777611Y-95728094D01*
X118726100Y-95739300D01*
X117523446Y-95739300D01*
X117419571Y-95749913D01*
X117251263Y-95805684D01*
X117251252Y-95805689D01*
X117100351Y-95898767D01*
X117100347Y-95898770D01*
X116974970Y-96024147D01*
X116974967Y-96024151D01*
X116881889Y-96175052D01*
X116881884Y-96175063D01*
X116826113Y-96343371D01*
X116815500Y-96447246D01*
X116815500Y-97448353D01*
X116356499Y-97448353D01*
X116356500Y-97448346D01*
X116356500Y-96447254D01*
X116345887Y-96343373D01*
X116290115Y-96175061D01*
X116290111Y-96175055D01*
X116290110Y-96175052D01*
X116197032Y-96024151D01*
X116197029Y-96024147D01*
X116071652Y-95898770D01*
X116071648Y-95898767D01*
X115920747Y-95805689D01*
X115920741Y-95805686D01*
X115920739Y-95805685D01*
X115886091Y-95794204D01*
X115752428Y-95749913D01*
X115648553Y-95739300D01*
X115648546Y-95739300D01*
X114907100Y-95739300D01*
X114840061Y-95719615D01*
X114794306Y-95666811D01*
X114783100Y-95615300D01*
X114783100Y-95046144D01*
X114802785Y-94979105D01*
X114811549Y-94968229D01*
X114811152Y-94967915D01*
X114815624Y-94962257D01*
X114815630Y-94962252D01*
X114908715Y-94811339D01*
X114964487Y-94643027D01*
X114975100Y-94539146D01*
X114975100Y-91588054D01*
X114964487Y-91484173D01*
X114964486Y-91484169D01*
X114908718Y-91315868D01*
X114908716Y-91315865D01*
X114908715Y-91315861D01*
X114905729Y-91311021D01*
X114887272Y-91245930D01*
X114887272Y-86222500D01*
X114906957Y-86155461D01*
X114959761Y-86109706D01*
X115011272Y-86098500D01*
X115169410Y-86098500D01*
X115169426Y-86098499D01*
X115196464Y-86095591D01*
X115229973Y-86091989D01*
X115366976Y-86040889D01*
X115484033Y-85953261D01*
X115571661Y-85836204D01*
X115622761Y-85699201D01*
X115626363Y-85665692D01*
X115629271Y-85638654D01*
X115629272Y-85638637D01*
X115629272Y-84541362D01*
X115629271Y-84541345D01*
X115625259Y-84504033D01*
X115622761Y-84480799D01*
X115622261Y-84479459D01*
X115594076Y-84403892D01*
X115571661Y-84343796D01*
X115484033Y-84226739D01*
X115366976Y-84139111D01*
X115229975Y-84088011D01*
X115169426Y-84081500D01*
X115169410Y-84081500D01*
X114008025Y-84081500D01*
X113995871Y-84080903D01*
X113870772Y-84068582D01*
X113745673Y-84080903D01*
X113733519Y-84081500D01*
X112572117Y-84081500D01*
X112511569Y-84088011D01*
X112511567Y-84088011D01*
X112374567Y-84139111D01*
X112257511Y-84226739D01*
X112169883Y-84343795D01*
X112118783Y-84480795D01*
X112118783Y-84480797D01*
X112112272Y-84541345D01*
X112112272Y-85638654D01*
X112118783Y-85699202D01*
X112118783Y-85699204D01*
X112169883Y-85836204D01*
X112257511Y-85953261D01*
X112374568Y-86040889D01*
X112511571Y-86091989D01*
X112538822Y-86094918D01*
X112572117Y-86098499D01*
X112572134Y-86098500D01*
X112730272Y-86098500D01*
X112797311Y-86118185D01*
X112843066Y-86170989D01*
X112854272Y-86222500D01*
X112854272Y-90976883D01*
X112834587Y-91043922D01*
X112817954Y-91064564D01*
X112717567Y-91164951D01*
X112624489Y-91315852D01*
X112624484Y-91315863D01*
X112568713Y-91484171D01*
X112558100Y-91588046D01*
X112558100Y-94539153D01*
X112568713Y-94643028D01*
X112624484Y-94811336D01*
X112624489Y-94811347D01*
X112717567Y-94962248D01*
X112722048Y-94967915D01*
X112719878Y-94969630D01*
X112747266Y-95019786D01*
X112750100Y-95046144D01*
X112750100Y-95621944D01*
X112730415Y-95688983D01*
X112677611Y-95734738D01*
X112638703Y-95745302D01*
X112593572Y-95749912D01*
X112425263Y-95805684D01*
X112425252Y-95805689D01*
X112274351Y-95898767D01*
X112274347Y-95898770D01*
X112148970Y-96024147D01*
X112148967Y-96024151D01*
X112055889Y-96175052D01*
X112055884Y-96175063D01*
X112000113Y-96343371D01*
X111989500Y-96447246D01*
X111989500Y-97448353D01*
X109396899Y-97448353D01*
X109396900Y-97448346D01*
X109396900Y-96447254D01*
X109386287Y-96343373D01*
X109330515Y-96175061D01*
X109330511Y-96175055D01*
X109330510Y-96175052D01*
X109237432Y-96024151D01*
X109237429Y-96024147D01*
X109233419Y-96020137D01*
X109199934Y-95958814D01*
X109197100Y-95932456D01*
X109197100Y-95046144D01*
X109216785Y-94979105D01*
X109225549Y-94968229D01*
X109225152Y-94967915D01*
X109229624Y-94962257D01*
X109229630Y-94962252D01*
X109322715Y-94811339D01*
X109378487Y-94643027D01*
X109389100Y-94539146D01*
X109389100Y-91588054D01*
X109378487Y-91484173D01*
X109322715Y-91315861D01*
X109322711Y-91315855D01*
X109322710Y-91315852D01*
X109264009Y-91220684D01*
X109245547Y-91155587D01*
X109245547Y-86222500D01*
X109265232Y-86155461D01*
X109318036Y-86109706D01*
X109369547Y-86098500D01*
X109527685Y-86098500D01*
X109527701Y-86098499D01*
X109554739Y-86095591D01*
X109588248Y-86091989D01*
X109725251Y-86040889D01*
X109842308Y-85953261D01*
X109929936Y-85836204D01*
X109981036Y-85699201D01*
X109984638Y-85665692D01*
X109987546Y-85638654D01*
X109987547Y-85638637D01*
X109987547Y-84541362D01*
X109987546Y-84541345D01*
X109983534Y-84504033D01*
X109981036Y-84480799D01*
X109980536Y-84479459D01*
X109952351Y-84403892D01*
X109929936Y-84343796D01*
X109842308Y-84226739D01*
X109725251Y-84139111D01*
X109588250Y-84088011D01*
X109527701Y-84081500D01*
X109527685Y-84081500D01*
X108366300Y-84081500D01*
X108354146Y-84080903D01*
X108229047Y-84068582D01*
X108103948Y-84080903D01*
X108091794Y-84081500D01*
X106930392Y-84081500D01*
X106869844Y-84088011D01*
X106869842Y-84088011D01*
X106732842Y-84139111D01*
X106615786Y-84226739D01*
X106528158Y-84343795D01*
X106477058Y-84480795D01*
X106477058Y-84480797D01*
X106470547Y-84541345D01*
X106470547Y-85638654D01*
X106477058Y-85699202D01*
X106477058Y-85699204D01*
X106528158Y-85836204D01*
X106615786Y-85953261D01*
X106732843Y-86040889D01*
X106869846Y-86091989D01*
X106897097Y-86094918D01*
X106930392Y-86098499D01*
X106930409Y-86098500D01*
X107088547Y-86098500D01*
X107155586Y-86118185D01*
X107201341Y-86170989D01*
X107212547Y-86222500D01*
X107212547Y-91032609D01*
X107192862Y-91099648D01*
X107176228Y-91120290D01*
X107131570Y-91164947D01*
X107131567Y-91164951D01*
X107038489Y-91315852D01*
X107038484Y-91315863D01*
X106982713Y-91484171D01*
X106972100Y-91588046D01*
X106972100Y-94539153D01*
X106982713Y-94643028D01*
X107038484Y-94811336D01*
X107038489Y-94811347D01*
X107131567Y-94962248D01*
X107136048Y-94967915D01*
X107133878Y-94969630D01*
X107161266Y-95019786D01*
X107164100Y-95046144D01*
X107164100Y-95615300D01*
X107144415Y-95682339D01*
X107091611Y-95728094D01*
X107040100Y-95739300D01*
X105737846Y-95739300D01*
X105633971Y-95749913D01*
X105465663Y-95805684D01*
X105465652Y-95805689D01*
X105314751Y-95898767D01*
X105314747Y-95898770D01*
X105189370Y-96024147D01*
X105189367Y-96024151D01*
X105096289Y-96175052D01*
X105096284Y-96175063D01*
X105070506Y-96252858D01*
X105030733Y-96310303D01*
X104966217Y-96337126D01*
X104897442Y-96324811D01*
X104846242Y-96277268D01*
X104835094Y-96252858D01*
X104831048Y-96240649D01*
X104809315Y-96175061D01*
X104809311Y-96175055D01*
X104809310Y-96175052D01*
X104716232Y-96024151D01*
X104716229Y-96024147D01*
X104590852Y-95898770D01*
X104590848Y-95898767D01*
X104439947Y-95805689D01*
X104439941Y-95805686D01*
X104439939Y-95805685D01*
X104405291Y-95794204D01*
X104271628Y-95749913D01*
X104167753Y-95739300D01*
X104167746Y-95739300D01*
X103221100Y-95739300D01*
X103154061Y-95719615D01*
X103108306Y-95666811D01*
X103097100Y-95615300D01*
X103097100Y-95046144D01*
X103116785Y-94979105D01*
X103125549Y-94968229D01*
X103125152Y-94967915D01*
X103129624Y-94962257D01*
X103129630Y-94962252D01*
X103222715Y-94811339D01*
X103278487Y-94643027D01*
X103289100Y-94539146D01*
X103289100Y-91588054D01*
X103278487Y-91484173D01*
X103251840Y-91403758D01*
X103245547Y-91364755D01*
X103245547Y-86222500D01*
X103265232Y-86155461D01*
X103318036Y-86109706D01*
X103369547Y-86098500D01*
X103527685Y-86098500D01*
X103527701Y-86098499D01*
X103554739Y-86095591D01*
X103588248Y-86091989D01*
X103725251Y-86040889D01*
X103842308Y-85953261D01*
X103929936Y-85836204D01*
X103981036Y-85699201D01*
X103984638Y-85665692D01*
X103987546Y-85638654D01*
X103987547Y-85638637D01*
X103987547Y-84541362D01*
X103987546Y-84541345D01*
X103983534Y-84504033D01*
X103981036Y-84480799D01*
X103980536Y-84479459D01*
X103952351Y-84403892D01*
X103929936Y-84343796D01*
X103842308Y-84226739D01*
X103725251Y-84139111D01*
X103588250Y-84088011D01*
X103527701Y-84081500D01*
X103527685Y-84081500D01*
X102366300Y-84081500D01*
X102354146Y-84080903D01*
X102229047Y-84068582D01*
X102103948Y-84080903D01*
X102091794Y-84081500D01*
X100930392Y-84081500D01*
X100869844Y-84088011D01*
X100869842Y-84088011D01*
X100732842Y-84139111D01*
X100615786Y-84226739D01*
X100528158Y-84343795D01*
X100477058Y-84480795D01*
X100477058Y-84480797D01*
X100470547Y-84541345D01*
X100470547Y-85638654D01*
X97358092Y-85638654D01*
X99353929Y-83642819D01*
X99415252Y-83609334D01*
X99441610Y-83606500D01*
X102278979Y-83606500D01*
X102278981Y-83606500D01*
X102337592Y-83600727D01*
X102354147Y-83599097D01*
X102366300Y-83598500D01*
X103527685Y-83598500D01*
X103527701Y-83598499D01*
X103554739Y-83595591D01*
X103588248Y-83591989D01*
X103725251Y-83540889D01*
X103842308Y-83453261D01*
X103929936Y-83336204D01*
X103981036Y-83199201D01*
X103984638Y-83165692D01*
X103987546Y-83138654D01*
X106470547Y-83138654D01*
X106477058Y-83199202D01*
X106477058Y-83199204D01*
X106516051Y-83303745D01*
X106528158Y-83336204D01*
X106615786Y-83453261D01*
X106732843Y-83540889D01*
X106869846Y-83591989D01*
X106897097Y-83594918D01*
X106930392Y-83598499D01*
X106930409Y-83598500D01*
X108091794Y-83598500D01*
X108103947Y-83599097D01*
X108120501Y-83600727D01*
X108179113Y-83606500D01*
X108179115Y-83606500D01*
X113920704Y-83606500D01*
X113920706Y-83606500D01*
X113979317Y-83600727D01*
X113995872Y-83599097D01*
X114008025Y-83598500D01*
X115169410Y-83598500D01*
X115169426Y-83598499D01*
X115196464Y-83595591D01*
X115229973Y-83591989D01*
X115366976Y-83540889D01*
X115484033Y-83453261D01*
X115571661Y-83336204D01*
X115622761Y-83199201D01*
X115626363Y-83165692D01*
X115629271Y-83138654D01*
X118112272Y-83138654D01*
X118118783Y-83199202D01*
X118118783Y-83199204D01*
X118157776Y-83303745D01*
X118169883Y-83336204D01*
X118257511Y-83453261D01*
X118374568Y-83540889D01*
X118511571Y-83591989D01*
X118538822Y-83594918D01*
X118572117Y-83598499D01*
X118572134Y-83598500D01*
X119733519Y-83598500D01*
X119745672Y-83599097D01*
X119762226Y-83600727D01*
X119820838Y-83606500D01*
X119820840Y-83606500D01*
X125562429Y-83606500D01*
X125562431Y-83606500D01*
X125621042Y-83600727D01*
X125637597Y-83599097D01*
X125649750Y-83598500D01*
X126811135Y-83598500D01*
X126811151Y-83598499D01*
X126838189Y-83595591D01*
X126871698Y-83591989D01*
X127008701Y-83540889D01*
X127125758Y-83453261D01*
X127213386Y-83336204D01*
X127264486Y-83199201D01*
X127268088Y-83165692D01*
X127270996Y-83138654D01*
X129753997Y-83138654D01*
X129760508Y-83199202D01*
X129760508Y-83199204D01*
X129799501Y-83303745D01*
X129811608Y-83336204D01*
X129899236Y-83453261D01*
X130016293Y-83540889D01*
X130153296Y-83591989D01*
X130180547Y-83594918D01*
X130213842Y-83598499D01*
X130213859Y-83598500D01*
X131375244Y-83598500D01*
X131387397Y-83599097D01*
X131403951Y-83600727D01*
X131462563Y-83606500D01*
X131462565Y-83606500D01*
X137204154Y-83606500D01*
X137204156Y-83606500D01*
X137262767Y-83600727D01*
X137279322Y-83599097D01*
X137291475Y-83598500D01*
X138452860Y-83598500D01*
X138452876Y-83598499D01*
X138479914Y-83595591D01*
X138513423Y-83591989D01*
X138650426Y-83540889D01*
X138767483Y-83453261D01*
X138855111Y-83336204D01*
X138906211Y-83199201D01*
X138909813Y-83165692D01*
X138912721Y-83138654D01*
X141395722Y-83138654D01*
X141402233Y-83199202D01*
X141402233Y-83199204D01*
X141441226Y-83303745D01*
X141453333Y-83336204D01*
X141540961Y-83453261D01*
X141658018Y-83540889D01*
X141795021Y-83591989D01*
X141822272Y-83594918D01*
X141855567Y-83598499D01*
X141855584Y-83598500D01*
X143016969Y-83598500D01*
X143029122Y-83599097D01*
X143045676Y-83600727D01*
X143104288Y-83606500D01*
X143104290Y-83606500D01*
X148845879Y-83606500D01*
X148845881Y-83606500D01*
X148904492Y-83600727D01*
X148921047Y-83599097D01*
X148933200Y-83598500D01*
X150094585Y-83598500D01*
X150094601Y-83598499D01*
X150121639Y-83595591D01*
X150155148Y-83591989D01*
X150292151Y-83540889D01*
X150409208Y-83453261D01*
X150496836Y-83336204D01*
X150547936Y-83199201D01*
X150551538Y-83165692D01*
X150554446Y-83138654D01*
X153037447Y-83138654D01*
X153043958Y-83199202D01*
X153043958Y-83199204D01*
X153082951Y-83303745D01*
X153095058Y-83336204D01*
X153182686Y-83453261D01*
X153299743Y-83540889D01*
X153436746Y-83591989D01*
X153463997Y-83594918D01*
X153497292Y-83598499D01*
X153497309Y-83598500D01*
X154658694Y-83598500D01*
X154670847Y-83599097D01*
X154687401Y-83600727D01*
X154746013Y-83606500D01*
X154746015Y-83606500D01*
X160487604Y-83606500D01*
X160487606Y-83606500D01*
X160546217Y-83600727D01*
X160562772Y-83599097D01*
X160574925Y-83598500D01*
X161736310Y-83598500D01*
X161736326Y-83598499D01*
X161763364Y-83595591D01*
X161796873Y-83591989D01*
X161933876Y-83540889D01*
X162050933Y-83453261D01*
X162138561Y-83336204D01*
X162189661Y-83199201D01*
X162193263Y-83165692D01*
X162196171Y-83138654D01*
X164679172Y-83138654D01*
X164685683Y-83199202D01*
X164685683Y-83199204D01*
X164724676Y-83303745D01*
X164736783Y-83336204D01*
X164824411Y-83453261D01*
X164941468Y-83540889D01*
X165078471Y-83591989D01*
X165105722Y-83594918D01*
X165139017Y-83598499D01*
X165139034Y-83598500D01*
X166300419Y-83598500D01*
X166312572Y-83599097D01*
X166329126Y-83600727D01*
X166387738Y-83606500D01*
X166387740Y-83606500D01*
X172129331Y-83606500D01*
X172129333Y-83606500D01*
X172187944Y-83600727D01*
X172204499Y-83599097D01*
X172216652Y-83598500D01*
X173378037Y-83598500D01*
X173378053Y-83598499D01*
X173405091Y-83595591D01*
X173438600Y-83591989D01*
X173575603Y-83540889D01*
X173692660Y-83453261D01*
X173780288Y-83336204D01*
X173831388Y-83199201D01*
X173834990Y-83165692D01*
X173837898Y-83138654D01*
X173837899Y-83138637D01*
X173837899Y-82041362D01*
X173837898Y-82041345D01*
X173834556Y-82010270D01*
X173831388Y-81980799D01*
X173780288Y-81843796D01*
X173692660Y-81726739D01*
X173575603Y-81639111D01*
X173575600Y-81639110D01*
X173438602Y-81588011D01*
X173378053Y-81581500D01*
X173378037Y-81581500D01*
X172216652Y-81581500D01*
X172204499Y-81580903D01*
X172187944Y-81579272D01*
X172129333Y-81573500D01*
X166387738Y-81573500D01*
X166329126Y-81579272D01*
X166312572Y-81580903D01*
X166300419Y-81581500D01*
X165139017Y-81581500D01*
X165078469Y-81588011D01*
X165078467Y-81588011D01*
X164941467Y-81639111D01*
X164824411Y-81726739D01*
X164736783Y-81843795D01*
X164685683Y-81980795D01*
X164685683Y-81980797D01*
X164679172Y-82041345D01*
X164679172Y-83138654D01*
X162196171Y-83138654D01*
X162196172Y-83138637D01*
X162196172Y-82041362D01*
X162196171Y-82041345D01*
X162192829Y-82010270D01*
X162189661Y-81980799D01*
X162138561Y-81843796D01*
X162050933Y-81726739D01*
X161933876Y-81639111D01*
X161933873Y-81639110D01*
X161796875Y-81588011D01*
X161736326Y-81581500D01*
X161736310Y-81581500D01*
X160574925Y-81581500D01*
X160562772Y-81580903D01*
X160546217Y-81579272D01*
X160487606Y-81573500D01*
X154746013Y-81573500D01*
X154687401Y-81579272D01*
X154670847Y-81580903D01*
X154658694Y-81581500D01*
X153497292Y-81581500D01*
X153436744Y-81588011D01*
X153436742Y-81588011D01*
X153299742Y-81639111D01*
X153182686Y-81726739D01*
X153095058Y-81843795D01*
X153043958Y-81980795D01*
X153043958Y-81980797D01*
X153037447Y-82041345D01*
X153037447Y-83138654D01*
X150554446Y-83138654D01*
X150554447Y-83138637D01*
X150554447Y-82041362D01*
X150554446Y-82041345D01*
X150551104Y-82010270D01*
X150547936Y-81980799D01*
X150496836Y-81843796D01*
X150409208Y-81726739D01*
X150292151Y-81639111D01*
X150292148Y-81639110D01*
X150155150Y-81588011D01*
X150094601Y-81581500D01*
X150094585Y-81581500D01*
X148933200Y-81581500D01*
X148921047Y-81580903D01*
X148904492Y-81579272D01*
X148845881Y-81573500D01*
X143104288Y-81573500D01*
X143045676Y-81579272D01*
X143029122Y-81580903D01*
X143016969Y-81581500D01*
X141855567Y-81581500D01*
X141795019Y-81588011D01*
X141795017Y-81588011D01*
X141658017Y-81639111D01*
X141540961Y-81726739D01*
X141453333Y-81843795D01*
X141402233Y-81980795D01*
X141402233Y-81980797D01*
X141395722Y-82041345D01*
X141395722Y-83138654D01*
X138912721Y-83138654D01*
X138912722Y-83138637D01*
X138912722Y-82041362D01*
X138912721Y-82041345D01*
X138909379Y-82010270D01*
X138906211Y-81980799D01*
X138855111Y-81843796D01*
X138767483Y-81726739D01*
X138650426Y-81639111D01*
X138650423Y-81639110D01*
X138513425Y-81588011D01*
X138452876Y-81581500D01*
X138452860Y-81581500D01*
X137291475Y-81581500D01*
X137279322Y-81580903D01*
X137262767Y-81579272D01*
X137204156Y-81573500D01*
X131462563Y-81573500D01*
X131403951Y-81579272D01*
X131387397Y-81580903D01*
X131375244Y-81581500D01*
X130213842Y-81581500D01*
X130153294Y-81588011D01*
X130153292Y-81588011D01*
X130016292Y-81639111D01*
X129899236Y-81726739D01*
X129811608Y-81843795D01*
X129760508Y-81980795D01*
X129760508Y-81980797D01*
X129753997Y-82041345D01*
X129753997Y-83138654D01*
X127270996Y-83138654D01*
X127270997Y-83138637D01*
X127270997Y-82041362D01*
X127270996Y-82041345D01*
X127267654Y-82010270D01*
X127264486Y-81980799D01*
X127213386Y-81843796D01*
X127125758Y-81726739D01*
X127008701Y-81639111D01*
X127008698Y-81639110D01*
X126871700Y-81588011D01*
X126811151Y-81581500D01*
X126811135Y-81581500D01*
X125649750Y-81581500D01*
X125637597Y-81580903D01*
X125621042Y-81579272D01*
X125562431Y-81573500D01*
X119820838Y-81573500D01*
X119762226Y-81579272D01*
X119745672Y-81580903D01*
X119733519Y-81581500D01*
X118572117Y-81581500D01*
X118511569Y-81588011D01*
X118511567Y-81588011D01*
X118374567Y-81639111D01*
X118257511Y-81726739D01*
X118169883Y-81843795D01*
X118118783Y-81980795D01*
X118118783Y-81980797D01*
X118112272Y-82041345D01*
X118112272Y-83138654D01*
X115629271Y-83138654D01*
X115629272Y-83138637D01*
X115629272Y-82041362D01*
X115629271Y-82041345D01*
X115625929Y-82010270D01*
X115622761Y-81980799D01*
X115571661Y-81843796D01*
X115484033Y-81726739D01*
X115366976Y-81639111D01*
X115366973Y-81639110D01*
X115229975Y-81588011D01*
X115169426Y-81581500D01*
X115169410Y-81581500D01*
X114008025Y-81581500D01*
X113995872Y-81580903D01*
X113979317Y-81579272D01*
X113920706Y-81573500D01*
X108179113Y-81573500D01*
X108120501Y-81579272D01*
X108103947Y-81580903D01*
X108091794Y-81581500D01*
X106930392Y-81581500D01*
X106869844Y-81588011D01*
X106869842Y-81588011D01*
X106732842Y-81639111D01*
X106615786Y-81726739D01*
X106528158Y-81843795D01*
X106477058Y-81980795D01*
X106477058Y-81980797D01*
X106470547Y-82041345D01*
X106470547Y-83138654D01*
X103987546Y-83138654D01*
X103987547Y-83138637D01*
X103987547Y-82041362D01*
X103987546Y-82041345D01*
X103984204Y-82010270D01*
X103981036Y-81980799D01*
X103929936Y-81843796D01*
X103842308Y-81726739D01*
X103725251Y-81639111D01*
X103725248Y-81639110D01*
X103588250Y-81588011D01*
X103527701Y-81581500D01*
X103527685Y-81581500D01*
X102366300Y-81581500D01*
X102354147Y-81580903D01*
X102337592Y-81579272D01*
X102278981Y-81573500D01*
X102278979Y-81573500D01*
X99025225Y-81573500D01*
X99013071Y-81572903D01*
X98969200Y-81568582D01*
X98919268Y-81573500D01*
X98919266Y-81573500D01*
X98892489Y-81576137D01*
X98769932Y-81588207D01*
X98602127Y-81639111D01*
X98602126Y-81639110D01*
X98578324Y-81646331D01*
X98578312Y-81646336D01*
X98401736Y-81740718D01*
X98401729Y-81740722D01*
X98333059Y-81797078D01*
X98246949Y-81867746D01*
X98218976Y-81901830D01*
X98210806Y-81910844D01*
X94852471Y-85269181D01*
X94791148Y-85302666D01*
X94764790Y-85305500D01*
X94438069Y-85305500D01*
X94267118Y-85320456D01*
X94267110Y-85320457D01*
X94045961Y-85379714D01*
X94045950Y-85379718D01*
X93838454Y-85476475D01*
X93838452Y-85476476D01*
X93768056Y-85525767D01*
X93650900Y-85607802D01*
X93650898Y-85607803D01*
X93650895Y-85607806D01*
X93489006Y-85769695D01*
X93357676Y-85957252D01*
X93357675Y-85957254D01*
X93260918Y-86164750D01*
X93260914Y-86164761D01*
X93201657Y-86385910D01*
X93201656Y-86385918D01*
X93181702Y-86613998D01*
X93181702Y-86614001D01*
X81394232Y-86614001D01*
X81397771Y-81284000D01*
X85875585Y-81284000D01*
X88891789Y-81284000D01*
X88866666Y-81381030D01*
X88856314Y-81585165D01*
X88886774Y-81784000D01*
X85878993Y-81784000D01*
X85891575Y-81909076D01*
X85891576Y-81909079D01*
X85961408Y-82202107D01*
X85961410Y-82202116D01*
X86069674Y-82483216D01*
X86069681Y-82483231D01*
X86214448Y-82747395D01*
X86214452Y-82747401D01*
X86393135Y-82989911D01*
X86602555Y-83206451D01*
X86602562Y-83206457D01*
X86838968Y-83393145D01*
X87098148Y-83546657D01*
X87098166Y-83546666D01*
X87375483Y-83664260D01*
X87375500Y-83664265D01*
X87666026Y-83743848D01*
X87964584Y-83784000D01*
X89615200Y-83784000D01*
X89615200Y-82508625D01*
X89763001Y-82539000D01*
X89916167Y-82539000D01*
X90068548Y-82523504D01*
X90115200Y-82508867D01*
X90115200Y-83784000D01*
X91690436Y-83784000D01*
X91915764Y-83768915D01*
X91915773Y-83768913D01*
X92210958Y-83708916D01*
X92210973Y-83708912D01*
X92495543Y-83610098D01*
X92495546Y-83610096D01*
X92764398Y-83474240D01*
X93012764Y-83303745D01*
X93236171Y-83101685D01*
X93430664Y-82871638D01*
X93592754Y-82617728D01*
X93592755Y-82617726D01*
X93719551Y-82344485D01*
X93719556Y-82344471D01*
X93808805Y-82056765D01*
X93854815Y-81784000D01*
X90838611Y-81784000D01*
X90863734Y-81686970D01*
X90874086Y-81482835D01*
X90843626Y-81284000D01*
X93851407Y-81284000D01*
X185113385Y-81284000D01*
X188129589Y-81284000D01*
X188104466Y-81381030D01*
X188094114Y-81585165D01*
X188124574Y-81784000D01*
X185116793Y-81784000D01*
X185129375Y-81909076D01*
X185129376Y-81909079D01*
X185199208Y-82202107D01*
X185199210Y-82202116D01*
X185307474Y-82483216D01*
X185307481Y-82483231D01*
X185452248Y-82747395D01*
X185452252Y-82747401D01*
X185630935Y-82989911D01*
X185840355Y-83206451D01*
X185840362Y-83206457D01*
X186076768Y-83393145D01*
X186335948Y-83546657D01*
X186335966Y-83546666D01*
X186613283Y-83664260D01*
X186613300Y-83664265D01*
X186903826Y-83743848D01*
X187202384Y-83784000D01*
X188853000Y-83784000D01*
X188853000Y-82508625D01*
X189000801Y-82539000D01*
X189153967Y-82539000D01*
X189306348Y-82523504D01*
X189353000Y-82508867D01*
X189353000Y-83784000D01*
X190928236Y-83784000D01*
X191153564Y-83768915D01*
X191153573Y-83768913D01*
X191448758Y-83708916D01*
X191448773Y-83708912D01*
X191733343Y-83610098D01*
X191733346Y-83610096D01*
X192002198Y-83474240D01*
X192250564Y-83303745D01*
X192473971Y-83101685D01*
X192668464Y-82871638D01*
X192830554Y-82617728D01*
X192830555Y-82617726D01*
X192957351Y-82344485D01*
X192957356Y-82344471D01*
X193046605Y-82056765D01*
X193092615Y-81784000D01*
X190076411Y-81784000D01*
X190101534Y-81686970D01*
X190111886Y-81482835D01*
X190081426Y-81284000D01*
X193089207Y-81284000D01*
X193089207Y-81283999D01*
X193076624Y-81158923D01*
X193076623Y-81158920D01*
X193006791Y-80865892D01*
X193006789Y-80865883D01*
X192898525Y-80584783D01*
X192898518Y-80584768D01*
X192753751Y-80320604D01*
X192753747Y-80320598D01*
X192575064Y-80078088D01*
X192365644Y-79861548D01*
X192365637Y-79861542D01*
X192129231Y-79674854D01*
X191870051Y-79521342D01*
X191870033Y-79521333D01*
X191592716Y-79403739D01*
X191592699Y-79403734D01*
X191302173Y-79324151D01*
X191003617Y-79284000D01*
X189353000Y-79284000D01*
X189353000Y-80559374D01*
X189205199Y-80529000D01*
X189052033Y-80529000D01*
X188899652Y-80544496D01*
X188853000Y-80559132D01*
X188853000Y-79284000D01*
X187277764Y-79284000D01*
X187052435Y-79299084D01*
X187052426Y-79299086D01*
X186757241Y-79359083D01*
X186757226Y-79359087D01*
X186472656Y-79457901D01*
X186472653Y-79457903D01*
X186203801Y-79593759D01*
X185955435Y-79764254D01*
X185732028Y-79966314D01*
X185537535Y-80196361D01*
X185375445Y-80450271D01*
X185375444Y-80450273D01*
X185248648Y-80723514D01*
X185248643Y-80723528D01*
X185159394Y-81011234D01*
X185113385Y-81284000D01*
X93851407Y-81284000D01*
X93851407Y-81283999D01*
X93838824Y-81158923D01*
X93838823Y-81158920D01*
X93768991Y-80865892D01*
X93768989Y-80865883D01*
X93681473Y-80638654D01*
X100470547Y-80638654D01*
X100477058Y-80699202D01*
X100477058Y-80699204D01*
X100502538Y-80767515D01*
X100528158Y-80836204D01*
X100615786Y-80953261D01*
X100732843Y-81040889D01*
X100847996Y-81083839D01*
X100862156Y-81089121D01*
X100869846Y-81091989D01*
X100897097Y-81094918D01*
X100930392Y-81098499D01*
X100930409Y-81098500D01*
X102091794Y-81098500D01*
X102103947Y-81099097D01*
X102120501Y-81100727D01*
X102179113Y-81106500D01*
X102179115Y-81106500D01*
X108278979Y-81106500D01*
X108278981Y-81106500D01*
X108337592Y-81100727D01*
X108354147Y-81099097D01*
X108366300Y-81098500D01*
X109527685Y-81098500D01*
X109527701Y-81098499D01*
X109554739Y-81095591D01*
X109588248Y-81091989D01*
X109725251Y-81040889D01*
X109842308Y-80953261D01*
X109929936Y-80836204D01*
X109981036Y-80699201D01*
X109986245Y-80650750D01*
X109987546Y-80638654D01*
X112112272Y-80638654D01*
X112118783Y-80699202D01*
X112118783Y-80699204D01*
X112144263Y-80767515D01*
X112169883Y-80836204D01*
X112257511Y-80953261D01*
X112374568Y-81040889D01*
X112489721Y-81083839D01*
X112503881Y-81089121D01*
X112511571Y-81091989D01*
X112538822Y-81094918D01*
X112572117Y-81098499D01*
X112572134Y-81098500D01*
X113733519Y-81098500D01*
X113745672Y-81099097D01*
X113762226Y-81100727D01*
X113820838Y-81106500D01*
X113820840Y-81106500D01*
X119920704Y-81106500D01*
X119920706Y-81106500D01*
X119979317Y-81100727D01*
X119995872Y-81099097D01*
X120008025Y-81098500D01*
X121169410Y-81098500D01*
X121169426Y-81098499D01*
X121196464Y-81095591D01*
X121229973Y-81091989D01*
X121366976Y-81040889D01*
X121484033Y-80953261D01*
X121571661Y-80836204D01*
X121622761Y-80699201D01*
X121627970Y-80650750D01*
X121629271Y-80638654D01*
X123753997Y-80638654D01*
X123760508Y-80699202D01*
X123760508Y-80699204D01*
X123785988Y-80767515D01*
X123811608Y-80836204D01*
X123899236Y-80953261D01*
X124016293Y-81040889D01*
X124131446Y-81083839D01*
X124145606Y-81089121D01*
X124153296Y-81091989D01*
X124180547Y-81094918D01*
X124213842Y-81098499D01*
X124213859Y-81098500D01*
X125375244Y-81098500D01*
X125387397Y-81099097D01*
X125403951Y-81100727D01*
X125462563Y-81106500D01*
X125462565Y-81106500D01*
X131562429Y-81106500D01*
X131562431Y-81106500D01*
X131621042Y-81100727D01*
X131637597Y-81099097D01*
X131649750Y-81098500D01*
X132811135Y-81098500D01*
X132811151Y-81098499D01*
X132838189Y-81095591D01*
X132871698Y-81091989D01*
X133008701Y-81040889D01*
X133125758Y-80953261D01*
X133213386Y-80836204D01*
X133264486Y-80699201D01*
X133269695Y-80650750D01*
X133270996Y-80638654D01*
X135395722Y-80638654D01*
X135402233Y-80699202D01*
X135402233Y-80699204D01*
X135427713Y-80767515D01*
X135453333Y-80836204D01*
X135540961Y-80953261D01*
X135658018Y-81040889D01*
X135773171Y-81083839D01*
X135787331Y-81089121D01*
X135795021Y-81091989D01*
X135822272Y-81094918D01*
X135855567Y-81098499D01*
X135855584Y-81098500D01*
X137016969Y-81098500D01*
X137029122Y-81099097D01*
X137045676Y-81100727D01*
X137104288Y-81106500D01*
X137104290Y-81106500D01*
X143204154Y-81106500D01*
X143204156Y-81106500D01*
X143262767Y-81100727D01*
X143279322Y-81099097D01*
X143291475Y-81098500D01*
X144452860Y-81098500D01*
X144452876Y-81098499D01*
X144479914Y-81095591D01*
X144513423Y-81091989D01*
X144650426Y-81040889D01*
X144767483Y-80953261D01*
X144855111Y-80836204D01*
X144906211Y-80699201D01*
X144911420Y-80650750D01*
X144912721Y-80638654D01*
X147037447Y-80638654D01*
X147043958Y-80699202D01*
X147043958Y-80699204D01*
X147069438Y-80767515D01*
X147095058Y-80836204D01*
X147182686Y-80953261D01*
X147299743Y-81040889D01*
X147414896Y-81083839D01*
X147429056Y-81089121D01*
X147436746Y-81091989D01*
X147463997Y-81094918D01*
X147497292Y-81098499D01*
X147497309Y-81098500D01*
X148658694Y-81098500D01*
X148670847Y-81099097D01*
X148687401Y-81100727D01*
X148746013Y-81106500D01*
X148746015Y-81106500D01*
X154845879Y-81106500D01*
X154845881Y-81106500D01*
X154904492Y-81100727D01*
X154921047Y-81099097D01*
X154933200Y-81098500D01*
X156094585Y-81098500D01*
X156094601Y-81098499D01*
X156121639Y-81095591D01*
X156155148Y-81091989D01*
X156292151Y-81040889D01*
X156409208Y-80953261D01*
X156496836Y-80836204D01*
X156547936Y-80699201D01*
X156553145Y-80650750D01*
X156554446Y-80638654D01*
X158679172Y-80638654D01*
X158685683Y-80699202D01*
X158685683Y-80699204D01*
X158711163Y-80767515D01*
X158736783Y-80836204D01*
X158824411Y-80953261D01*
X158941468Y-81040889D01*
X159056621Y-81083839D01*
X159070781Y-81089121D01*
X159078471Y-81091989D01*
X159105722Y-81094918D01*
X159139017Y-81098499D01*
X159139034Y-81098500D01*
X160300419Y-81098500D01*
X160312572Y-81099097D01*
X160329126Y-81100727D01*
X160387738Y-81106500D01*
X160387740Y-81106500D01*
X166487604Y-81106500D01*
X166487606Y-81106500D01*
X166546217Y-81100727D01*
X166562772Y-81099097D01*
X166574925Y-81098500D01*
X167736310Y-81098500D01*
X167736326Y-81098499D01*
X167763364Y-81095591D01*
X167796873Y-81091989D01*
X167933876Y-81040889D01*
X168050933Y-80953261D01*
X168138561Y-80836204D01*
X168189661Y-80699201D01*
X168194870Y-80650750D01*
X168196171Y-80638654D01*
X170320899Y-80638654D01*
X170327410Y-80699202D01*
X170327410Y-80699204D01*
X170352890Y-80767515D01*
X170378510Y-80836204D01*
X170466138Y-80953261D01*
X170583195Y-81040889D01*
X170698348Y-81083839D01*
X170712508Y-81089121D01*
X170720198Y-81091989D01*
X170747449Y-81094918D01*
X170780744Y-81098499D01*
X170780761Y-81098500D01*
X171942146Y-81098500D01*
X171954299Y-81099097D01*
X171970853Y-81100727D01*
X172029465Y-81106500D01*
X172029467Y-81106500D01*
X178129331Y-81106500D01*
X178129333Y-81106500D01*
X178187944Y-81100727D01*
X178204499Y-81099097D01*
X178216652Y-81098500D01*
X179378037Y-81098500D01*
X179378053Y-81098499D01*
X179405091Y-81095591D01*
X179438600Y-81091989D01*
X179575603Y-81040889D01*
X179692660Y-80953261D01*
X179780288Y-80836204D01*
X179831388Y-80699201D01*
X179836597Y-80650750D01*
X179837898Y-80638654D01*
X179837899Y-80638637D01*
X179837899Y-79541362D01*
X179837898Y-79541345D01*
X179834556Y-79510270D01*
X179831388Y-79480799D01*
X179822847Y-79457901D01*
X179785991Y-79359087D01*
X179780288Y-79343796D01*
X179692660Y-79226739D01*
X179575603Y-79139111D01*
X179438602Y-79088011D01*
X179378053Y-79081500D01*
X179378037Y-79081500D01*
X178216652Y-79081500D01*
X178204499Y-79080903D01*
X178187944Y-79079272D01*
X178129333Y-79073500D01*
X172029465Y-79073500D01*
X171970853Y-79079272D01*
X171954299Y-79080903D01*
X171942146Y-79081500D01*
X170780744Y-79081500D01*
X170720196Y-79088011D01*
X170720194Y-79088011D01*
X170583194Y-79139111D01*
X170466138Y-79226739D01*
X170378510Y-79343795D01*
X170327410Y-79480795D01*
X170327410Y-79480797D01*
X170320899Y-79541345D01*
X170320899Y-80638654D01*
X168196171Y-80638654D01*
X168196172Y-80638637D01*
X168196172Y-79541362D01*
X168196171Y-79541345D01*
X168192829Y-79510270D01*
X168189661Y-79480799D01*
X168181120Y-79457901D01*
X168144264Y-79359087D01*
X168138561Y-79343796D01*
X168050933Y-79226739D01*
X167933876Y-79139111D01*
X167796875Y-79088011D01*
X167736326Y-79081500D01*
X167736310Y-79081500D01*
X166574925Y-79081500D01*
X166562772Y-79080903D01*
X166546217Y-79079272D01*
X166487606Y-79073500D01*
X160387738Y-79073500D01*
X160329126Y-79079272D01*
X160312572Y-79080903D01*
X160300419Y-79081500D01*
X159139017Y-79081500D01*
X159078469Y-79088011D01*
X159078467Y-79088011D01*
X158941467Y-79139111D01*
X158824411Y-79226739D01*
X158736783Y-79343795D01*
X158685683Y-79480795D01*
X158685683Y-79480797D01*
X158679172Y-79541345D01*
X158679172Y-80638654D01*
X156554446Y-80638654D01*
X156554447Y-80638637D01*
X156554447Y-79541362D01*
X156554446Y-79541345D01*
X156551104Y-79510270D01*
X156547936Y-79480799D01*
X156539395Y-79457901D01*
X156502539Y-79359087D01*
X156496836Y-79343796D01*
X156409208Y-79226739D01*
X156292151Y-79139111D01*
X156155150Y-79088011D01*
X156094601Y-79081500D01*
X156094585Y-79081500D01*
X154933200Y-79081500D01*
X154921047Y-79080903D01*
X154904492Y-79079272D01*
X154845881Y-79073500D01*
X148746013Y-79073500D01*
X148687401Y-79079272D01*
X148670847Y-79080903D01*
X148658694Y-79081500D01*
X147497292Y-79081500D01*
X147436744Y-79088011D01*
X147436742Y-79088011D01*
X147299742Y-79139111D01*
X147182686Y-79226739D01*
X147095058Y-79343795D01*
X147043958Y-79480795D01*
X147043958Y-79480797D01*
X147037447Y-79541345D01*
X147037447Y-80638654D01*
X144912721Y-80638654D01*
X144912722Y-80638637D01*
X144912722Y-79541362D01*
X144912721Y-79541345D01*
X144909379Y-79510270D01*
X144906211Y-79480799D01*
X144897670Y-79457901D01*
X144860814Y-79359087D01*
X144855111Y-79343796D01*
X144767483Y-79226739D01*
X144650426Y-79139111D01*
X144513425Y-79088011D01*
X144452876Y-79081500D01*
X144452860Y-79081500D01*
X143291475Y-79081500D01*
X143279322Y-79080903D01*
X143262767Y-79079272D01*
X143204156Y-79073500D01*
X137104288Y-79073500D01*
X137045676Y-79079272D01*
X137029122Y-79080903D01*
X137016969Y-79081500D01*
X135855567Y-79081500D01*
X135795019Y-79088011D01*
X135795017Y-79088011D01*
X135658017Y-79139111D01*
X135540961Y-79226739D01*
X135453333Y-79343795D01*
X135402233Y-79480795D01*
X135402233Y-79480797D01*
X135395722Y-79541345D01*
X135395722Y-80638654D01*
X133270996Y-80638654D01*
X133270997Y-80638637D01*
X133270997Y-79541362D01*
X133270996Y-79541345D01*
X133267654Y-79510270D01*
X133264486Y-79480799D01*
X133255945Y-79457901D01*
X133219089Y-79359087D01*
X133213386Y-79343796D01*
X133125758Y-79226739D01*
X133008701Y-79139111D01*
X132871700Y-79088011D01*
X132811151Y-79081500D01*
X132811135Y-79081500D01*
X131649750Y-79081500D01*
X131637597Y-79080903D01*
X131621042Y-79079272D01*
X131562431Y-79073500D01*
X125462563Y-79073500D01*
X125403951Y-79079272D01*
X125387397Y-79080903D01*
X125375244Y-79081500D01*
X124213842Y-79081500D01*
X124153294Y-79088011D01*
X124153292Y-79088011D01*
X124016292Y-79139111D01*
X123899236Y-79226739D01*
X123811608Y-79343795D01*
X123760508Y-79480795D01*
X123760508Y-79480797D01*
X123753997Y-79541345D01*
X123753997Y-80638654D01*
X121629271Y-80638654D01*
X121629272Y-80638637D01*
X121629272Y-79541362D01*
X121629271Y-79541345D01*
X121625929Y-79510270D01*
X121622761Y-79480799D01*
X121614220Y-79457901D01*
X121577364Y-79359087D01*
X121571661Y-79343796D01*
X121484033Y-79226739D01*
X121366976Y-79139111D01*
X121229975Y-79088011D01*
X121169426Y-79081500D01*
X121169410Y-79081500D01*
X120008025Y-79081500D01*
X119995872Y-79080903D01*
X119979317Y-79079272D01*
X119920706Y-79073500D01*
X113820838Y-79073500D01*
X113762226Y-79079272D01*
X113745672Y-79080903D01*
X113733519Y-79081500D01*
X112572117Y-79081500D01*
X112511569Y-79088011D01*
X112511567Y-79088011D01*
X112374567Y-79139111D01*
X112257511Y-79226739D01*
X112169883Y-79343795D01*
X112118783Y-79480795D01*
X112118783Y-79480797D01*
X112112272Y-79541345D01*
X112112272Y-80638654D01*
X109987546Y-80638654D01*
X109987547Y-80638637D01*
X109987547Y-79541362D01*
X109987546Y-79541345D01*
X109984204Y-79510270D01*
X109981036Y-79480799D01*
X109972495Y-79457901D01*
X109935639Y-79359087D01*
X109929936Y-79343796D01*
X109842308Y-79226739D01*
X109725251Y-79139111D01*
X109588250Y-79088011D01*
X109527701Y-79081500D01*
X109527685Y-79081500D01*
X108366300Y-79081500D01*
X108354147Y-79080903D01*
X108337592Y-79079272D01*
X108278981Y-79073500D01*
X102179113Y-79073500D01*
X102120501Y-79079272D01*
X102103947Y-79080903D01*
X102091794Y-79081500D01*
X100930392Y-79081500D01*
X100869844Y-79088011D01*
X100869842Y-79088011D01*
X100732842Y-79139111D01*
X100615786Y-79226739D01*
X100528158Y-79343795D01*
X100477058Y-79480795D01*
X100477058Y-79480797D01*
X100470547Y-79541345D01*
X100470547Y-80638654D01*
X93681473Y-80638654D01*
X93660725Y-80584783D01*
X93660718Y-80584768D01*
X93515951Y-80320604D01*
X93515947Y-80320598D01*
X93337264Y-80078088D01*
X93127844Y-79861548D01*
X93127837Y-79861542D01*
X92891431Y-79674854D01*
X92632251Y-79521342D01*
X92632233Y-79521333D01*
X92354916Y-79403739D01*
X92354899Y-79403734D01*
X92064373Y-79324151D01*
X91765817Y-79284000D01*
X90115200Y-79284000D01*
X90115200Y-80559374D01*
X89967399Y-80529000D01*
X89814233Y-80529000D01*
X89661852Y-80544496D01*
X89615200Y-80559132D01*
X89615200Y-79284000D01*
X88039964Y-79284000D01*
X87814635Y-79299084D01*
X87814626Y-79299086D01*
X87519441Y-79359083D01*
X87519426Y-79359087D01*
X87234856Y-79457901D01*
X87234853Y-79457903D01*
X86966001Y-79593759D01*
X86717635Y-79764254D01*
X86494228Y-79966314D01*
X86299735Y-80196361D01*
X86137645Y-80450271D01*
X86137644Y-80450273D01*
X86010848Y-80723514D01*
X86010843Y-80723528D01*
X85921594Y-81011234D01*
X85875585Y-81284000D01*
X81397771Y-81284000D01*
X81403902Y-72050999D01*
X81423631Y-71983974D01*
X81476465Y-71938254D01*
X81545631Y-71928357D01*
X81609167Y-71957424D01*
X81643095Y-72005186D01*
X81740352Y-72249284D01*
X81740361Y-72249302D01*
X81910516Y-72570247D01*
X81910518Y-72570251D01*
X82114370Y-72870909D01*
X82114377Y-72870919D01*
X82246169Y-73026075D01*
X82246170Y-73026075D01*
X83487466Y-71784780D01*
X83650330Y-71975470D01*
X83841018Y-72138332D01*
X82597088Y-73382262D01*
X82597088Y-73382264D01*
X82613270Y-73397592D01*
X82613271Y-73397593D01*
X82902466Y-73617432D01*
X82902482Y-73617443D01*
X83213722Y-73804709D01*
X83213735Y-73804716D01*
X83543405Y-73957239D01*
X83543410Y-73957240D01*
X83887661Y-74073232D01*
X84242435Y-74151324D01*
X84603566Y-74190599D01*
X84603574Y-74190600D01*
X84966826Y-74190600D01*
X84966833Y-74190599D01*
X85327964Y-74151324D01*
X85682738Y-74073232D01*
X86026989Y-73957240D01*
X86026994Y-73957239D01*
X86356664Y-73804716D01*
X86356677Y-73804709D01*
X86667917Y-73617443D01*
X86667933Y-73617432D01*
X86957129Y-73397592D01*
X86973310Y-73382264D01*
X86973310Y-73382263D01*
X85729380Y-72138333D01*
X85920070Y-71975470D01*
X86082933Y-71784780D01*
X87324228Y-73026075D01*
X87324229Y-73026075D01*
X87456027Y-72870911D01*
X87456038Y-72870897D01*
X87659881Y-72570251D01*
X87659883Y-72570247D01*
X87830038Y-72249302D01*
X87830047Y-72249284D01*
X87964502Y-71911827D01*
X87964504Y-71911820D01*
X88061680Y-71561822D01*
X88061682Y-71561814D01*
X88120453Y-71203328D01*
X88140120Y-70840602D01*
X88140120Y-70840597D01*
X88120453Y-70477871D01*
X88061682Y-70119385D01*
X88061680Y-70119377D01*
X87964504Y-69769379D01*
X87964502Y-69769372D01*
X87830047Y-69431915D01*
X87830038Y-69431897D01*
X87659883Y-69110952D01*
X87659881Y-69110948D01*
X87456029Y-68810290D01*
X87456022Y-68810280D01*
X87324229Y-68655123D01*
X87324228Y-68655123D01*
X86082932Y-69896418D01*
X85920070Y-69705730D01*
X85729380Y-69542866D01*
X86973310Y-68298936D01*
X86973310Y-68298934D01*
X86957129Y-68283607D01*
X86957128Y-68283606D01*
X86667933Y-68063767D01*
X86667917Y-68063756D01*
X86356677Y-67876490D01*
X86356664Y-67876483D01*
X86026994Y-67723960D01*
X86026990Y-67723959D01*
X85738489Y-67626752D01*
X85681244Y-67586692D01*
X85654744Y-67522043D01*
X85667404Y-67453329D01*
X85715203Y-67402368D01*
X85778054Y-67385243D01*
X193365721Y-67361690D01*
X193432763Y-67381360D01*
G37*
%TD.AperFunction*%
%TA.AperFunction,Conductor*%
G36*
X196645828Y-104445875D02*
G01*
X196645829Y-104445875D01*
X196777627Y-104290711D01*
X196777638Y-104290697D01*
X196981481Y-103990051D01*
X196981483Y-103990047D01*
X197151638Y-103669102D01*
X197151647Y-103669084D01*
X197219049Y-103499917D01*
X197262149Y-103444925D01*
X197328138Y-103421964D01*
X197396065Y-103438325D01*
X197444364Y-103488813D01*
X197458242Y-103545732D01*
X197459100Y-104835486D01*
X197459100Y-105463854D01*
X197439415Y-105530893D01*
X197386611Y-105576648D01*
X197335154Y-105587854D01*
X195454536Y-105588677D01*
X195387488Y-105569022D01*
X195341710Y-105516238D01*
X195331736Y-105447084D01*
X195360734Y-105383515D01*
X195402416Y-105352138D01*
X195678264Y-105224516D01*
X195678277Y-105224509D01*
X195989517Y-105037243D01*
X195989533Y-105037232D01*
X196278729Y-104817392D01*
X196294910Y-104802064D01*
X196294910Y-104802063D01*
X195050980Y-103558133D01*
X195241670Y-103395270D01*
X195404533Y-103204580D01*
X196645828Y-104445875D01*
G37*
%TD.AperFunction*%
%TA.AperFunction,Conductor*%
G36*
X83858043Y-67405348D02*
G01*
X83903809Y-67458142D01*
X83913768Y-67527298D01*
X83884757Y-67590860D01*
X83830619Y-67627187D01*
X83543410Y-67723959D01*
X83543405Y-67723960D01*
X83213735Y-67876483D01*
X83213722Y-67876490D01*
X82902482Y-68063756D01*
X82902466Y-68063767D01*
X82613275Y-68283602D01*
X82597088Y-68298935D01*
X82597087Y-68298935D01*
X83841019Y-69542866D01*
X83650330Y-69705730D01*
X83487466Y-69896418D01*
X82246170Y-68655122D01*
X82246169Y-68655123D01*
X82114377Y-68810280D01*
X82114370Y-68810290D01*
X81910518Y-69110948D01*
X81910516Y-69110952D01*
X81740361Y-69431897D01*
X81740352Y-69431916D01*
X81644705Y-69671971D01*
X81601604Y-69726963D01*
X81535615Y-69749924D01*
X81467688Y-69733563D01*
X81419390Y-69683075D01*
X81405512Y-69625995D01*
X81406917Y-67510087D01*
X81426646Y-67443063D01*
X81479480Y-67397343D01*
X81530885Y-67386172D01*
X83790999Y-67385678D01*
X83858043Y-67405348D01*
G37*
%TD.AperFunction*%
%TA.AperFunction,Conductor*%
G36*
X197377321Y-67380985D02*
G01*
X197423076Y-67433789D01*
X197434282Y-67485218D01*
X197435377Y-69133022D01*
X197415737Y-69200074D01*
X197362963Y-69245864D01*
X197293812Y-69255854D01*
X197230237Y-69226871D01*
X197201822Y-69191187D01*
X197159284Y-69110952D01*
X197159281Y-69110948D01*
X196955429Y-68810290D01*
X196955422Y-68810280D01*
X196823629Y-68655123D01*
X196823628Y-68655123D01*
X195582332Y-69896418D01*
X195419470Y-69705730D01*
X195228780Y-69542866D01*
X196472710Y-68298936D01*
X196472710Y-68298934D01*
X196456529Y-68283607D01*
X196456528Y-68283606D01*
X196167333Y-68063767D01*
X196167317Y-68063756D01*
X195856077Y-67876490D01*
X195856064Y-67876483D01*
X195526394Y-67723960D01*
X195526389Y-67723959D01*
X195182142Y-67607968D01*
X195175021Y-67606401D01*
X195113781Y-67572764D01*
X195080448Y-67511359D01*
X195085605Y-67441679D01*
X195127614Y-67385849D01*
X195193139Y-67361594D01*
X195201679Y-67361300D01*
X197310282Y-67361300D01*
X197377321Y-67380985D01*
G37*
%TD.AperFunction*%
%TD*%
M02*
