M48
; DRILL file {KiCad 7.0.10-7.0.10~ubuntu22.04.1} date Sat 08 Jun 2024 07:04:48 AM PDT
; FORMAT={-:-/ absolute / inch / decimal}
; #@! TF.CreationDate,2024-06-08T07:04:48-07:00
; #@! TF.GenerationSoftware,Kicad,Pcbnew,7.0.10-7.0.10~ubuntu22.04.1
; #@! TF.FileFunction,Plated,1,2,PTH
FMAT,2
INCH
; #@! TA.AperFunction,Plated,PTH,ViaDrill
T1C0.0157
; #@! TA.AperFunction,Plated,PTH,ComponentDrill
T2C0.0350
; #@! TA.AperFunction,Plated,PTH,ComponentDrill
T3C0.0791
; #@! TA.AperFunction,Plated,PTH,ComponentDrill
T4C0.1260
%
G90
G05
T1
X3.32Y-3.252
X3.401Y-3.466
X3.456Y-3.366
X3.606Y-3.421
X3.638Y-3.979
X3.716Y-2.862
X3.736Y-3.219
X3.9Y-3.014
X3.9Y-3.186
X3.9Y-3.358
X3.9Y-3.53
X3.9Y-3.702
X3.9Y-3.874
X3.9Y-4.046
X4.197Y-2.856
X4.37Y-3.008
X4.37Y-3.18
X4.37Y-3.352
X4.37Y-3.524
X4.37Y-3.696
X4.37Y-3.868
X4.37Y-4.04
X4.693Y-2.823
X4.826Y-3.006
X4.826Y-3.178
X4.826Y-3.35
X4.826Y-3.522
X4.826Y-3.694
X4.826Y-3.866
X4.826Y-4.038
X5.288Y-3.011
X5.288Y-3.183
X5.288Y-3.355
X5.288Y-3.527
X5.288Y-3.699
X5.288Y-3.871
X5.288Y-4.043
X5.411Y-2.833
X5.749Y-3.011
X5.749Y-3.183
X5.749Y-3.355
X5.749Y-3.527
X5.749Y-3.699
X5.749Y-3.871
X5.749Y-4.043
X5.921Y-2.947
X6.205Y-2.998
X6.205Y-3.17
X6.205Y-3.342
X6.205Y-3.514
X6.205Y-3.686
X6.205Y-3.858
X6.205Y-4.03
X6.45Y-2.927
X6.66Y-3.011
X6.66Y-3.183
X6.66Y-3.355
X6.66Y-3.527
X6.66Y-3.699
X6.66Y-3.871
X6.66Y-4.043
X6.684Y-2.901
X7.103Y-2.856
X7.115Y-3.009
X7.115Y-3.181
X7.115Y-3.525
X7.115Y-3.697
X7.115Y-3.869
X7.115Y-4.041
X7.12Y-3.422
X7.181Y-3.875
X7.226Y-3.184
X7.249Y-3.528
X7.356Y-3.797
X7.382Y-3.437
X7.496Y-3.008
X7.535Y-3.434
X7.642Y-3.544
X7.658Y-3.236
T2
X3.738Y-3.41
X3.738Y-3.51
X7.245Y-3.31
X7.245Y-3.41
T3
X3.538Y-3.21
X3.538Y-3.61
X7.445Y-3.21
X7.445Y-3.61
T4
X3.336Y-4.026
X3.338Y-2.789
X7.642Y-4.026
X7.649Y-2.789
M30
