%TF.GenerationSoftware,KiCad,Pcbnew,7.0.10-7.0.10~ubuntu22.04.1*%
%TF.CreationDate,2024-06-08T07:05:10-07:00*%
%TF.ProjectId,rf_attenuator_r3,72665f61-7474-4656-9e75-61746f725f72,rev?*%
%TF.SameCoordinates,Original*%
%TF.FileFunction,Copper,L2,Bot*%
%TF.FilePolarity,Positive*%
%FSLAX46Y46*%
G04 Gerber Fmt 4.6, Leading zero omitted, Abs format (unit mm)*
G04 Created by KiCad (PCBNEW 7.0.10-7.0.10~ubuntu22.04.1) date 2024-06-08 07:05:10*
%MOMM*%
%LPD*%
G01*
G04 APERTURE LIST*
%TA.AperFunction,ComponentPad*%
%ADD10C,3.600000*%
%TD*%
%TA.AperFunction,ConnectorPad*%
%ADD11C,5.700000*%
%TD*%
%TA.AperFunction,ComponentPad*%
%ADD12O,7.000000X3.500000*%
%TD*%
%TA.AperFunction,ComponentPad*%
%ADD13O,2.500000X1.600000*%
%TD*%
%TA.AperFunction,ViaPad*%
%ADD14C,0.800000*%
%TD*%
G04 APERTURE END LIST*
D10*
%TO.P,H2,1,1*%
%TO.N,GND*%
X194106800Y-102260400D03*
D11*
X194106800Y-102260400D03*
%TD*%
D12*
%TO.P,J1,2,Ext*%
%TO.N,GND*%
X89865200Y-81534000D03*
D13*
X94945200Y-89154000D03*
D12*
X89865200Y-91694000D03*
D13*
%TO.P,J1,1,In*%
%TO.N,Net-(J1-In)*%
X94945200Y-86614000D03*
%TD*%
D10*
%TO.P,H3,1,1*%
%TO.N,GND*%
X84785200Y-70840600D03*
D11*
X84785200Y-70840600D03*
%TD*%
D13*
%TO.P,J2,1,In*%
%TO.N,Net-(J2-In)*%
X184023000Y-86614000D03*
D12*
%TO.P,J2,2,Ext*%
%TO.N,GND*%
X189103000Y-81534000D03*
D13*
X184023000Y-84074000D03*
D12*
X189103000Y-91694000D03*
%TD*%
D10*
%TO.P,H1,1,1*%
%TO.N,GND*%
X194284600Y-70840600D03*
D11*
X194284600Y-70840600D03*
%TD*%
D10*
%TO.P,H4,1,1*%
%TO.N,GND*%
X84734400Y-102260400D03*
D11*
X84734400Y-102260400D03*
%TD*%
D14*
%TO.N,GND*%
X180721000Y-76428600D03*
X180721000Y-80797400D03*
X180848000Y-86918800D03*
X180721000Y-98272600D03*
X180721000Y-89535000D03*
X180721000Y-93903800D03*
X180721000Y-102641400D03*
X169164000Y-76479400D03*
X169164000Y-80848200D03*
X169164000Y-85217000D03*
X169164000Y-98323400D03*
X169164000Y-89585800D03*
X169164000Y-93954600D03*
X169164000Y-102692200D03*
X157607000Y-76149200D03*
X157607000Y-80518000D03*
X157607000Y-84886800D03*
X157607000Y-97993200D03*
X157607000Y-89255600D03*
X157607000Y-93624400D03*
X157607000Y-102362000D03*
X146024600Y-76479400D03*
X146024600Y-80848200D03*
X146024600Y-85217000D03*
X146024600Y-98323400D03*
X146024600Y-89585800D03*
X146024600Y-93954600D03*
X146024600Y-102692200D03*
X134315200Y-76479400D03*
X134315200Y-80848200D03*
X134315200Y-85217000D03*
X134315200Y-98323400D03*
X134315200Y-89585800D03*
X134315200Y-93954600D03*
X134315200Y-102692200D03*
X122580400Y-76352400D03*
X122580400Y-80721200D03*
X122580400Y-85090000D03*
X122580400Y-98196400D03*
X122580400Y-89458800D03*
X122580400Y-93827600D03*
X122580400Y-102565200D03*
X110998000Y-93878400D03*
X110998000Y-80772000D03*
X110998000Y-98247200D03*
X110998000Y-89509600D03*
X110998000Y-85140800D03*
X110998000Y-102616000D03*
X110998000Y-76403200D03*
X99060000Y-102768400D03*
X99060000Y-76555600D03*
X190398400Y-76403200D03*
X183540400Y-80873600D03*
X106603800Y-72542400D03*
X94386400Y-72694800D03*
X99060000Y-85293200D03*
X194106800Y-90017600D03*
X163830000Y-74345800D03*
X92405200Y-101066600D03*
X186842400Y-96443800D03*
X169773600Y-73685400D03*
X150393400Y-74853800D03*
X87782400Y-85496400D03*
X99060000Y-89662000D03*
X180416200Y-72542400D03*
X194513200Y-82194400D03*
X182397400Y-98425000D03*
X137439400Y-71958200D03*
X184124600Y-89611200D03*
X86385400Y-88036400D03*
X91592400Y-86893400D03*
X99060000Y-98399600D03*
X187502800Y-87299800D03*
X119202200Y-71704200D03*
X84328000Y-82600800D03*
X99060000Y-80924400D03*
X99060000Y-94030800D03*
X191389000Y-87223600D03*
X94894400Y-81762600D03*
%TD*%
%TA.AperFunction,Conductor*%
%TO.N,GND*%
G36*
X83599530Y-103395270D02*
G01*
X83790218Y-103558132D01*
X82546288Y-104802062D01*
X82546288Y-104802064D01*
X82562470Y-104817392D01*
X82562471Y-104817393D01*
X82851666Y-105037232D01*
X82851682Y-105037243D01*
X83162922Y-105224509D01*
X83162935Y-105224516D01*
X83492605Y-105377039D01*
X83492609Y-105377040D01*
X83624583Y-105421507D01*
X83681828Y-105461567D01*
X83708328Y-105526216D01*
X83695668Y-105594929D01*
X83647870Y-105645890D01*
X83585017Y-105663016D01*
X81733451Y-105663421D01*
X81666407Y-105643751D01*
X81620641Y-105590957D01*
X81609425Y-105539508D01*
X81608415Y-104014738D01*
X81628055Y-103947688D01*
X81680829Y-103901898D01*
X81749981Y-103891908D01*
X81813556Y-103920891D01*
X81841971Y-103956576D01*
X81859719Y-103990052D01*
X82063570Y-104290709D01*
X82063577Y-104290719D01*
X82195369Y-104445875D01*
X82195370Y-104445875D01*
X83436666Y-103204580D01*
X83599530Y-103395270D01*
G37*
%TD.AperFunction*%
%TA.AperFunction,Conductor*%
G36*
X193434560Y-67380985D02*
G01*
X193480315Y-67433789D01*
X193490259Y-67502947D01*
X193461234Y-67566503D01*
X193402456Y-67604277D01*
X193394179Y-67606401D01*
X193387057Y-67607968D01*
X193042810Y-67723959D01*
X193042805Y-67723960D01*
X192713135Y-67876483D01*
X192713122Y-67876490D01*
X192401882Y-68063756D01*
X192401866Y-68063767D01*
X192112675Y-68283602D01*
X192096488Y-68298935D01*
X192096487Y-68298935D01*
X193340419Y-69542866D01*
X193149730Y-69705730D01*
X192986866Y-69896418D01*
X191745570Y-68655122D01*
X191745569Y-68655123D01*
X191613777Y-68810280D01*
X191613770Y-68810290D01*
X191409918Y-69110948D01*
X191409916Y-69110952D01*
X191239761Y-69431897D01*
X191239752Y-69431915D01*
X191105297Y-69769372D01*
X191105295Y-69769379D01*
X191008119Y-70119377D01*
X191008117Y-70119385D01*
X190949346Y-70477871D01*
X190929680Y-70840597D01*
X190929680Y-70840602D01*
X190949346Y-71203328D01*
X191008117Y-71561814D01*
X191008119Y-71561822D01*
X191105295Y-71911820D01*
X191105297Y-71911827D01*
X191239752Y-72249284D01*
X191239761Y-72249302D01*
X191409916Y-72570247D01*
X191409918Y-72570251D01*
X191613770Y-72870909D01*
X191613777Y-72870919D01*
X191745569Y-73026075D01*
X191745570Y-73026075D01*
X192986866Y-71784780D01*
X193149730Y-71975470D01*
X193340418Y-72138332D01*
X192096488Y-73382262D01*
X192096488Y-73382264D01*
X192112670Y-73397592D01*
X192112671Y-73397593D01*
X192401866Y-73617432D01*
X192401882Y-73617443D01*
X192713122Y-73804709D01*
X192713135Y-73804716D01*
X193042805Y-73957239D01*
X193042810Y-73957240D01*
X193387061Y-74073232D01*
X193741835Y-74151324D01*
X194102966Y-74190599D01*
X194102974Y-74190600D01*
X194466226Y-74190600D01*
X194466233Y-74190599D01*
X194827364Y-74151324D01*
X195182138Y-74073232D01*
X195526389Y-73957240D01*
X195526394Y-73957239D01*
X195856064Y-73804716D01*
X195856077Y-73804709D01*
X196167317Y-73617443D01*
X196167333Y-73617432D01*
X196456529Y-73397592D01*
X196472710Y-73382264D01*
X196472710Y-73382263D01*
X195228780Y-72138333D01*
X195419470Y-71975470D01*
X195582333Y-71784780D01*
X196823628Y-73026075D01*
X196823629Y-73026075D01*
X196955427Y-72870911D01*
X196955438Y-72870897D01*
X197159278Y-72570256D01*
X197225544Y-72445266D01*
X197274338Y-72395257D01*
X197342423Y-72379565D01*
X197408183Y-72403175D01*
X197450740Y-72458588D01*
X197459100Y-72503349D01*
X197459100Y-100977137D01*
X197439415Y-101044176D01*
X197386611Y-101089931D01*
X197317453Y-101099875D01*
X197253897Y-101070850D01*
X197219907Y-101023034D01*
X197151647Y-100851715D01*
X197151638Y-100851697D01*
X196981483Y-100530752D01*
X196981481Y-100530748D01*
X196777629Y-100230090D01*
X196777622Y-100230080D01*
X196645829Y-100074923D01*
X196645828Y-100074923D01*
X195404532Y-101316218D01*
X195241670Y-101125530D01*
X195050980Y-100962666D01*
X196294910Y-99718736D01*
X196294910Y-99718734D01*
X196278729Y-99703407D01*
X196278728Y-99703406D01*
X195989533Y-99483567D01*
X195989517Y-99483556D01*
X195678277Y-99296290D01*
X195678264Y-99296283D01*
X195348594Y-99143760D01*
X195348589Y-99143759D01*
X195004338Y-99027767D01*
X194649564Y-98949675D01*
X194288433Y-98910400D01*
X193925166Y-98910400D01*
X193564035Y-98949675D01*
X193209261Y-99027767D01*
X192865010Y-99143759D01*
X192865005Y-99143760D01*
X192535335Y-99296283D01*
X192535322Y-99296290D01*
X192224082Y-99483556D01*
X192224066Y-99483567D01*
X191934875Y-99703402D01*
X191918688Y-99718735D01*
X191918687Y-99718735D01*
X193162619Y-100962666D01*
X192971930Y-101125530D01*
X192809066Y-101316218D01*
X191567770Y-100074922D01*
X191567769Y-100074923D01*
X191435977Y-100230080D01*
X191435970Y-100230090D01*
X191232118Y-100530748D01*
X191232116Y-100530752D01*
X191061961Y-100851697D01*
X191061952Y-100851715D01*
X190927497Y-101189172D01*
X190927495Y-101189179D01*
X190830319Y-101539177D01*
X190830317Y-101539185D01*
X190771546Y-101897671D01*
X190751880Y-102260397D01*
X190751880Y-102260402D01*
X190771546Y-102623128D01*
X190830317Y-102981614D01*
X190830319Y-102981622D01*
X190927495Y-103331620D01*
X190927497Y-103331627D01*
X191061952Y-103669084D01*
X191061961Y-103669102D01*
X191232116Y-103990047D01*
X191232118Y-103990051D01*
X191435970Y-104290709D01*
X191435977Y-104290719D01*
X191567769Y-104445875D01*
X191567770Y-104445875D01*
X192809066Y-103204580D01*
X192971930Y-103395270D01*
X193162618Y-103558132D01*
X191918688Y-104802062D01*
X191918688Y-104802064D01*
X191934870Y-104817392D01*
X191934871Y-104817393D01*
X192224066Y-105037232D01*
X192224082Y-105037243D01*
X192535322Y-105224509D01*
X192535335Y-105224516D01*
X192818282Y-105355422D01*
X192870860Y-105401436D01*
X192890214Y-105468572D01*
X192870200Y-105535513D01*
X192817171Y-105581008D01*
X192766325Y-105591961D01*
X121025063Y-105654824D01*
X121024981Y-105654824D01*
X85885330Y-105662513D01*
X85818286Y-105642843D01*
X85772520Y-105590049D01*
X85762561Y-105520893D01*
X85791572Y-105457331D01*
X85845710Y-105421004D01*
X85976190Y-105377040D01*
X85976194Y-105377039D01*
X86305864Y-105224516D01*
X86305877Y-105224509D01*
X86617117Y-105037243D01*
X86617133Y-105037232D01*
X86906329Y-104817392D01*
X86922510Y-104802064D01*
X86922510Y-104802063D01*
X85678580Y-103558133D01*
X85869270Y-103395270D01*
X86032133Y-103204580D01*
X87273428Y-104445875D01*
X87273429Y-104445875D01*
X87405227Y-104290711D01*
X87405238Y-104290697D01*
X87609081Y-103990051D01*
X87609083Y-103990047D01*
X87779238Y-103669102D01*
X87779247Y-103669084D01*
X87913702Y-103331627D01*
X87913704Y-103331620D01*
X88010880Y-102981622D01*
X88010882Y-102981614D01*
X88069653Y-102623128D01*
X88089320Y-102260402D01*
X88089320Y-102260397D01*
X88069653Y-101897671D01*
X88010882Y-101539185D01*
X88010880Y-101539177D01*
X87913704Y-101189179D01*
X87913702Y-101189172D01*
X87779247Y-100851715D01*
X87779238Y-100851697D01*
X87609083Y-100530752D01*
X87609081Y-100530748D01*
X87405229Y-100230090D01*
X87405222Y-100230080D01*
X87273429Y-100074923D01*
X87273428Y-100074923D01*
X86032132Y-101316218D01*
X85869270Y-101125530D01*
X85678580Y-100962666D01*
X86922510Y-99718736D01*
X86922510Y-99718734D01*
X86906329Y-99703407D01*
X86906328Y-99703406D01*
X86617133Y-99483567D01*
X86617117Y-99483556D01*
X86305877Y-99296290D01*
X86305864Y-99296283D01*
X85976194Y-99143760D01*
X85976189Y-99143759D01*
X85631938Y-99027767D01*
X85277164Y-98949675D01*
X84916033Y-98910400D01*
X84552766Y-98910400D01*
X84191635Y-98949675D01*
X83836861Y-99027767D01*
X83492610Y-99143759D01*
X83492605Y-99143760D01*
X83162935Y-99296283D01*
X83162922Y-99296290D01*
X82851682Y-99483556D01*
X82851666Y-99483567D01*
X82562475Y-99703402D01*
X82546288Y-99718735D01*
X82546287Y-99718735D01*
X83790219Y-100962666D01*
X83599530Y-101125530D01*
X83436666Y-101316218D01*
X82195370Y-100074922D01*
X82195369Y-100074923D01*
X82063577Y-100230080D01*
X82063570Y-100230090D01*
X81859719Y-100530747D01*
X81839648Y-100568603D01*
X81790853Y-100618611D01*
X81722768Y-100634300D01*
X81657008Y-100610689D01*
X81614453Y-100555274D01*
X81606094Y-100510603D01*
X81600090Y-91444000D01*
X85875585Y-91444000D01*
X88891789Y-91444000D01*
X88866666Y-91541030D01*
X88856314Y-91745165D01*
X88886774Y-91944000D01*
X85878993Y-91944000D01*
X85891575Y-92069076D01*
X85891576Y-92069079D01*
X85961408Y-92362107D01*
X85961410Y-92362116D01*
X86069674Y-92643216D01*
X86069681Y-92643231D01*
X86214448Y-92907395D01*
X86214452Y-92907401D01*
X86393135Y-93149911D01*
X86602555Y-93366451D01*
X86602562Y-93366457D01*
X86838968Y-93553145D01*
X87098148Y-93706657D01*
X87098166Y-93706666D01*
X87375483Y-93824260D01*
X87375500Y-93824265D01*
X87666026Y-93903848D01*
X87964584Y-93944000D01*
X89615200Y-93944000D01*
X89615200Y-92668625D01*
X89763001Y-92699000D01*
X89916167Y-92699000D01*
X90068548Y-92683504D01*
X90115200Y-92668867D01*
X90115200Y-93944000D01*
X91690436Y-93944000D01*
X91915764Y-93928915D01*
X91915773Y-93928913D01*
X92210958Y-93868916D01*
X92210973Y-93868912D01*
X92495543Y-93770098D01*
X92495546Y-93770096D01*
X92764398Y-93634240D01*
X93012764Y-93463745D01*
X93236171Y-93261685D01*
X93430664Y-93031638D01*
X93592754Y-92777728D01*
X93592755Y-92777726D01*
X93719551Y-92504485D01*
X93719556Y-92504471D01*
X93808805Y-92216765D01*
X93854815Y-91944000D01*
X90838611Y-91944000D01*
X90863734Y-91846970D01*
X90874086Y-91642835D01*
X90843626Y-91444000D01*
X93851407Y-91444000D01*
X185113385Y-91444000D01*
X188129589Y-91444000D01*
X188104466Y-91541030D01*
X188094114Y-91745165D01*
X188124574Y-91944000D01*
X185116793Y-91944000D01*
X185129375Y-92069076D01*
X185129376Y-92069079D01*
X185199208Y-92362107D01*
X185199210Y-92362116D01*
X185307474Y-92643216D01*
X185307481Y-92643231D01*
X185452248Y-92907395D01*
X185452252Y-92907401D01*
X185630935Y-93149911D01*
X185840355Y-93366451D01*
X185840362Y-93366457D01*
X186076768Y-93553145D01*
X186335948Y-93706657D01*
X186335966Y-93706666D01*
X186613283Y-93824260D01*
X186613300Y-93824265D01*
X186903826Y-93903848D01*
X187202384Y-93944000D01*
X188853000Y-93944000D01*
X188853000Y-92668625D01*
X189000801Y-92699000D01*
X189153967Y-92699000D01*
X189306348Y-92683504D01*
X189353000Y-92668867D01*
X189353000Y-93944000D01*
X190928236Y-93944000D01*
X191153564Y-93928915D01*
X191153573Y-93928913D01*
X191448758Y-93868916D01*
X191448773Y-93868912D01*
X191733343Y-93770098D01*
X191733346Y-93770096D01*
X192002198Y-93634240D01*
X192250564Y-93463745D01*
X192473971Y-93261685D01*
X192668464Y-93031638D01*
X192830554Y-92777728D01*
X192830555Y-92777726D01*
X192957351Y-92504485D01*
X192957356Y-92504471D01*
X193046605Y-92216765D01*
X193092615Y-91944000D01*
X190076411Y-91944000D01*
X190101534Y-91846970D01*
X190111886Y-91642835D01*
X190081426Y-91444000D01*
X193089207Y-91444000D01*
X193089207Y-91443999D01*
X193076624Y-91318923D01*
X193076623Y-91318920D01*
X193006791Y-91025892D01*
X193006789Y-91025883D01*
X192898525Y-90744783D01*
X192898518Y-90744768D01*
X192753751Y-90480604D01*
X192753747Y-90480598D01*
X192575064Y-90238088D01*
X192365644Y-90021548D01*
X192365637Y-90021542D01*
X192129231Y-89834854D01*
X191870051Y-89681342D01*
X191870033Y-89681333D01*
X191592716Y-89563739D01*
X191592699Y-89563734D01*
X191302173Y-89484151D01*
X191003617Y-89444000D01*
X189353000Y-89444000D01*
X189353000Y-90719374D01*
X189205199Y-90689000D01*
X189052033Y-90689000D01*
X188899652Y-90704496D01*
X188853000Y-90719132D01*
X188853000Y-89444000D01*
X187277764Y-89444000D01*
X187052435Y-89459084D01*
X187052426Y-89459086D01*
X186757241Y-89519083D01*
X186757226Y-89519087D01*
X186472656Y-89617901D01*
X186472653Y-89617903D01*
X186203801Y-89753759D01*
X185955435Y-89924254D01*
X185732028Y-90126314D01*
X185537535Y-90356361D01*
X185375445Y-90610271D01*
X185375444Y-90610273D01*
X185248648Y-90883514D01*
X185248643Y-90883528D01*
X185159394Y-91171234D01*
X185113385Y-91444000D01*
X93851407Y-91444000D01*
X93851407Y-91443999D01*
X93838824Y-91318923D01*
X93838823Y-91318920D01*
X93768991Y-91025892D01*
X93768989Y-91025883D01*
X93660725Y-90744783D01*
X93660718Y-90744768D01*
X93515951Y-90480604D01*
X93515947Y-90480598D01*
X93337264Y-90238088D01*
X93127844Y-90021548D01*
X93127837Y-90021542D01*
X92891431Y-89834854D01*
X92632251Y-89681342D01*
X92632233Y-89681333D01*
X92354916Y-89563739D01*
X92354899Y-89563734D01*
X92064373Y-89484151D01*
X91765817Y-89444000D01*
X90115200Y-89444000D01*
X90115200Y-90719374D01*
X89967399Y-90689000D01*
X89814233Y-90689000D01*
X89661852Y-90704496D01*
X89615200Y-90719132D01*
X89615200Y-89444000D01*
X88039964Y-89444000D01*
X87814635Y-89459084D01*
X87814626Y-89459086D01*
X87519441Y-89519083D01*
X87519426Y-89519087D01*
X87234856Y-89617901D01*
X87234853Y-89617903D01*
X86966001Y-89753759D01*
X86717635Y-89924254D01*
X86494228Y-90126314D01*
X86299735Y-90356361D01*
X86137645Y-90610271D01*
X86137644Y-90610273D01*
X86010848Y-90883514D01*
X86010843Y-90883528D01*
X85921594Y-91171234D01*
X85875585Y-91444000D01*
X81600090Y-91444000D01*
X81596892Y-86614001D01*
X93181702Y-86614001D01*
X93201656Y-86842081D01*
X93201657Y-86842089D01*
X93260914Y-87063238D01*
X93260918Y-87063249D01*
X93357675Y-87270745D01*
X93357677Y-87270749D01*
X93489002Y-87458300D01*
X93650900Y-87620198D01*
X93838451Y-87751523D01*
X93891601Y-87776307D01*
X93944040Y-87822479D01*
X93963192Y-87889673D01*
X93942976Y-87956554D01*
X93891601Y-88001071D01*
X93842717Y-88023865D01*
X93656379Y-88154342D01*
X93495542Y-88315179D01*
X93365065Y-88501517D01*
X93268934Y-88707673D01*
X93268930Y-88707682D01*
X93216327Y-88903999D01*
X93216328Y-88904000D01*
X94575697Y-88904000D01*
X94526283Y-88989587D01*
X94496432Y-89120370D01*
X94506457Y-89254140D01*
X94555466Y-89379013D01*
X94575393Y-89404000D01*
X93216328Y-89404000D01*
X93268930Y-89600317D01*
X93268934Y-89600326D01*
X93365065Y-89806482D01*
X93495542Y-89992820D01*
X93656379Y-90153657D01*
X93842717Y-90284134D01*
X94048873Y-90380265D01*
X94048882Y-90380269D01*
X94268589Y-90439139D01*
X94268600Y-90439141D01*
X94438433Y-90453999D01*
X94438436Y-90454000D01*
X94695200Y-90454000D01*
X94695200Y-89522137D01*
X94749941Y-89559459D01*
X94878127Y-89599000D01*
X94978546Y-89599000D01*
X95077847Y-89584033D01*
X95195200Y-89527518D01*
X95195200Y-90454000D01*
X95451964Y-90454000D01*
X95451966Y-90453999D01*
X95621799Y-90439141D01*
X95621810Y-90439139D01*
X95841517Y-90380269D01*
X95841526Y-90380265D01*
X96047682Y-90284134D01*
X96234020Y-90153657D01*
X96394857Y-89992820D01*
X96525334Y-89806482D01*
X96621465Y-89600326D01*
X96621469Y-89600317D01*
X96674072Y-89404000D01*
X95314703Y-89404000D01*
X95364117Y-89318413D01*
X95393968Y-89187630D01*
X95383943Y-89053860D01*
X95334934Y-88928987D01*
X95315007Y-88904000D01*
X96674072Y-88904000D01*
X96674072Y-88903999D01*
X96621469Y-88707682D01*
X96621465Y-88707673D01*
X96525334Y-88501517D01*
X96394857Y-88315179D01*
X96234020Y-88154342D01*
X96047681Y-88023865D01*
X96047679Y-88023864D01*
X95998799Y-88001071D01*
X95946359Y-87954899D01*
X95927207Y-87887706D01*
X95947423Y-87820824D01*
X95998799Y-87776307D01*
X96051949Y-87751523D01*
X96239500Y-87620198D01*
X96401398Y-87458300D01*
X96532723Y-87270749D01*
X96629484Y-87063243D01*
X96688743Y-86842087D01*
X96708698Y-86614001D01*
X182259502Y-86614001D01*
X182279456Y-86842081D01*
X182279457Y-86842089D01*
X182338714Y-87063238D01*
X182338718Y-87063249D01*
X182435475Y-87270745D01*
X182435477Y-87270749D01*
X182566802Y-87458300D01*
X182728700Y-87620198D01*
X182916251Y-87751523D01*
X182969401Y-87776307D01*
X183123750Y-87848281D01*
X183123752Y-87848281D01*
X183123757Y-87848284D01*
X183344913Y-87907543D01*
X183515871Y-87922499D01*
X183515872Y-87922500D01*
X183515873Y-87922500D01*
X184530128Y-87922500D01*
X184530128Y-87922499D01*
X184701087Y-87907543D01*
X184922243Y-87848284D01*
X185129749Y-87751523D01*
X185317300Y-87620198D01*
X185479198Y-87458300D01*
X185610523Y-87270749D01*
X185707284Y-87063243D01*
X185766543Y-86842087D01*
X185786498Y-86614000D01*
X185766543Y-86385913D01*
X185707284Y-86164757D01*
X185610523Y-85957251D01*
X185479198Y-85769700D01*
X185317300Y-85607802D01*
X185129749Y-85476477D01*
X185076596Y-85451691D01*
X185024158Y-85405519D01*
X185005007Y-85338325D01*
X185025223Y-85271444D01*
X185076600Y-85226927D01*
X185125483Y-85204133D01*
X185311820Y-85073657D01*
X185472657Y-84912820D01*
X185603134Y-84726482D01*
X185699265Y-84520326D01*
X185699269Y-84520317D01*
X185751872Y-84324000D01*
X184392503Y-84324000D01*
X184441917Y-84238413D01*
X184471768Y-84107630D01*
X184461743Y-83973860D01*
X184412734Y-83848987D01*
X184392807Y-83824000D01*
X185751872Y-83824000D01*
X185751872Y-83823999D01*
X185699269Y-83627682D01*
X185699265Y-83627673D01*
X185603134Y-83421517D01*
X185472657Y-83235179D01*
X185311820Y-83074342D01*
X185125482Y-82943865D01*
X184919326Y-82847734D01*
X184919317Y-82847730D01*
X184699610Y-82788860D01*
X184699599Y-82788858D01*
X184529766Y-82774000D01*
X184273000Y-82774000D01*
X184273000Y-83705862D01*
X184218259Y-83668541D01*
X184090073Y-83629000D01*
X183989654Y-83629000D01*
X183890353Y-83643967D01*
X183773000Y-83700481D01*
X183773000Y-82774000D01*
X183516233Y-82774000D01*
X183346400Y-82788858D01*
X183346389Y-82788860D01*
X183126682Y-82847730D01*
X183126673Y-82847734D01*
X182920517Y-82943865D01*
X182734179Y-83074342D01*
X182573342Y-83235179D01*
X182442865Y-83421517D01*
X182346734Y-83627673D01*
X182346730Y-83627682D01*
X182294127Y-83823999D01*
X182294128Y-83824000D01*
X183653497Y-83824000D01*
X183604083Y-83909587D01*
X183574232Y-84040370D01*
X183584257Y-84174140D01*
X183633266Y-84299013D01*
X183653193Y-84324000D01*
X182294128Y-84324000D01*
X182346730Y-84520317D01*
X182346734Y-84520326D01*
X182442865Y-84726482D01*
X182573342Y-84912820D01*
X182734179Y-85073657D01*
X182920517Y-85204133D01*
X182969399Y-85226927D01*
X183021839Y-85273099D01*
X183040992Y-85340292D01*
X183020777Y-85407174D01*
X182969402Y-85451691D01*
X182916256Y-85476474D01*
X182916252Y-85476476D01*
X182845856Y-85525767D01*
X182728700Y-85607802D01*
X182728698Y-85607803D01*
X182728695Y-85607806D01*
X182566806Y-85769695D01*
X182435476Y-85957252D01*
X182435475Y-85957254D01*
X182338718Y-86164750D01*
X182338714Y-86164761D01*
X182279457Y-86385910D01*
X182279456Y-86385918D01*
X182259502Y-86613998D01*
X182259502Y-86614001D01*
X96708698Y-86614001D01*
X96708698Y-86614000D01*
X96688743Y-86385913D01*
X96629484Y-86164757D01*
X96532723Y-85957251D01*
X96401398Y-85769700D01*
X96239500Y-85607802D01*
X96051949Y-85476477D01*
X96051943Y-85476474D01*
X95844449Y-85379718D01*
X95844438Y-85379714D01*
X95623289Y-85320457D01*
X95623281Y-85320456D01*
X95452330Y-85305500D01*
X95452327Y-85305500D01*
X94438073Y-85305500D01*
X94438069Y-85305500D01*
X94267118Y-85320456D01*
X94267110Y-85320457D01*
X94045961Y-85379714D01*
X94045950Y-85379718D01*
X93838454Y-85476475D01*
X93838452Y-85476476D01*
X93768056Y-85525767D01*
X93650900Y-85607802D01*
X93650898Y-85607803D01*
X93650895Y-85607806D01*
X93489006Y-85769695D01*
X93357676Y-85957252D01*
X93357675Y-85957254D01*
X93260918Y-86164750D01*
X93260914Y-86164761D01*
X93201657Y-86385910D01*
X93201656Y-86385918D01*
X93181702Y-86613998D01*
X93181702Y-86614001D01*
X81596892Y-86614001D01*
X81593362Y-81284000D01*
X85875585Y-81284000D01*
X88891789Y-81284000D01*
X88866666Y-81381030D01*
X88856314Y-81585165D01*
X88886774Y-81784000D01*
X85878993Y-81784000D01*
X85891575Y-81909076D01*
X85891576Y-81909079D01*
X85961408Y-82202107D01*
X85961410Y-82202116D01*
X86069674Y-82483216D01*
X86069681Y-82483231D01*
X86214448Y-82747395D01*
X86214452Y-82747401D01*
X86393135Y-82989911D01*
X86602555Y-83206451D01*
X86602562Y-83206457D01*
X86838968Y-83393145D01*
X87098148Y-83546657D01*
X87098166Y-83546666D01*
X87375483Y-83664260D01*
X87375500Y-83664265D01*
X87666026Y-83743848D01*
X87964584Y-83784000D01*
X89615200Y-83784000D01*
X89615200Y-82508625D01*
X89763001Y-82539000D01*
X89916167Y-82539000D01*
X90068548Y-82523504D01*
X90115200Y-82508867D01*
X90115200Y-83784000D01*
X91690436Y-83784000D01*
X91915764Y-83768915D01*
X91915773Y-83768913D01*
X92210958Y-83708916D01*
X92210973Y-83708912D01*
X92495543Y-83610098D01*
X92495546Y-83610096D01*
X92764398Y-83474240D01*
X93012764Y-83303745D01*
X93236171Y-83101685D01*
X93430664Y-82871638D01*
X93592754Y-82617728D01*
X93592755Y-82617726D01*
X93719551Y-82344485D01*
X93719556Y-82344471D01*
X93808805Y-82056765D01*
X93854815Y-81784000D01*
X90838611Y-81784000D01*
X90863734Y-81686970D01*
X90874086Y-81482835D01*
X90843626Y-81284000D01*
X93851407Y-81284000D01*
X185113385Y-81284000D01*
X188129589Y-81284000D01*
X188104466Y-81381030D01*
X188094114Y-81585165D01*
X188124574Y-81784000D01*
X185116793Y-81784000D01*
X185129375Y-81909076D01*
X185129376Y-81909079D01*
X185199208Y-82202107D01*
X185199210Y-82202116D01*
X185307474Y-82483216D01*
X185307481Y-82483231D01*
X185452248Y-82747395D01*
X185452252Y-82747401D01*
X185630935Y-82989911D01*
X185840355Y-83206451D01*
X185840362Y-83206457D01*
X186076768Y-83393145D01*
X186335948Y-83546657D01*
X186335966Y-83546666D01*
X186613283Y-83664260D01*
X186613300Y-83664265D01*
X186903826Y-83743848D01*
X187202384Y-83784000D01*
X188853000Y-83784000D01*
X188853000Y-82508625D01*
X189000801Y-82539000D01*
X189153967Y-82539000D01*
X189306348Y-82523504D01*
X189353000Y-82508867D01*
X189353000Y-83784000D01*
X190928236Y-83784000D01*
X191153564Y-83768915D01*
X191153573Y-83768913D01*
X191448758Y-83708916D01*
X191448773Y-83708912D01*
X191733343Y-83610098D01*
X191733346Y-83610096D01*
X192002198Y-83474240D01*
X192250564Y-83303745D01*
X192473971Y-83101685D01*
X192668464Y-82871638D01*
X192830554Y-82617728D01*
X192830555Y-82617726D01*
X192957351Y-82344485D01*
X192957356Y-82344471D01*
X193046605Y-82056765D01*
X193092615Y-81784000D01*
X190076411Y-81784000D01*
X190101534Y-81686970D01*
X190111886Y-81482835D01*
X190081426Y-81284000D01*
X193089207Y-81284000D01*
X193089207Y-81283999D01*
X193076624Y-81158923D01*
X193076623Y-81158920D01*
X193006791Y-80865892D01*
X193006789Y-80865883D01*
X192898525Y-80584783D01*
X192898518Y-80584768D01*
X192753751Y-80320604D01*
X192753747Y-80320598D01*
X192575064Y-80078088D01*
X192365644Y-79861548D01*
X192365637Y-79861542D01*
X192129231Y-79674854D01*
X191870051Y-79521342D01*
X191870033Y-79521333D01*
X191592716Y-79403739D01*
X191592699Y-79403734D01*
X191302173Y-79324151D01*
X191003617Y-79284000D01*
X189353000Y-79284000D01*
X189353000Y-80559374D01*
X189205199Y-80529000D01*
X189052033Y-80529000D01*
X188899652Y-80544496D01*
X188853000Y-80559132D01*
X188853000Y-79284000D01*
X187277764Y-79284000D01*
X187052435Y-79299084D01*
X187052426Y-79299086D01*
X186757241Y-79359083D01*
X186757226Y-79359087D01*
X186472656Y-79457901D01*
X186472653Y-79457903D01*
X186203801Y-79593759D01*
X185955435Y-79764254D01*
X185732028Y-79966314D01*
X185537535Y-80196361D01*
X185375445Y-80450271D01*
X185375444Y-80450273D01*
X185248648Y-80723514D01*
X185248643Y-80723528D01*
X185159394Y-81011234D01*
X185113385Y-81284000D01*
X93851407Y-81284000D01*
X93851407Y-81283999D01*
X93838824Y-81158923D01*
X93838823Y-81158920D01*
X93768991Y-80865892D01*
X93768989Y-80865883D01*
X93660725Y-80584783D01*
X93660718Y-80584768D01*
X93515951Y-80320604D01*
X93515947Y-80320598D01*
X93337264Y-80078088D01*
X93127844Y-79861548D01*
X93127837Y-79861542D01*
X92891431Y-79674854D01*
X92632251Y-79521342D01*
X92632233Y-79521333D01*
X92354916Y-79403739D01*
X92354899Y-79403734D01*
X92064373Y-79324151D01*
X91765817Y-79284000D01*
X90115200Y-79284000D01*
X90115200Y-80559374D01*
X89967399Y-80529000D01*
X89814233Y-80529000D01*
X89661852Y-80544496D01*
X89615200Y-80559132D01*
X89615200Y-79284000D01*
X88039964Y-79284000D01*
X87814635Y-79299084D01*
X87814626Y-79299086D01*
X87519441Y-79359083D01*
X87519426Y-79359087D01*
X87234856Y-79457901D01*
X87234853Y-79457903D01*
X86966001Y-79593759D01*
X86717635Y-79764254D01*
X86494228Y-79966314D01*
X86299735Y-80196361D01*
X86137645Y-80450271D01*
X86137644Y-80450273D01*
X86010848Y-80723514D01*
X86010843Y-80723528D01*
X85921594Y-81011234D01*
X85875585Y-81284000D01*
X81593362Y-81284000D01*
X81587518Y-72459704D01*
X81607158Y-72392655D01*
X81659932Y-72346865D01*
X81729084Y-72336875D01*
X81792659Y-72365858D01*
X81821073Y-72401542D01*
X81910515Y-72570247D01*
X81910518Y-72570251D01*
X82114370Y-72870909D01*
X82114377Y-72870919D01*
X82246169Y-73026075D01*
X82246170Y-73026075D01*
X83487466Y-71784780D01*
X83650330Y-71975470D01*
X83841018Y-72138332D01*
X82597088Y-73382262D01*
X82597088Y-73382264D01*
X82613270Y-73397592D01*
X82613271Y-73397593D01*
X82902466Y-73617432D01*
X82902482Y-73617443D01*
X83213722Y-73804709D01*
X83213735Y-73804716D01*
X83543405Y-73957239D01*
X83543410Y-73957240D01*
X83887661Y-74073232D01*
X84242435Y-74151324D01*
X84603566Y-74190599D01*
X84603574Y-74190600D01*
X84966826Y-74190600D01*
X84966833Y-74190599D01*
X85327964Y-74151324D01*
X85682738Y-74073232D01*
X86026989Y-73957240D01*
X86026994Y-73957239D01*
X86356664Y-73804716D01*
X86356677Y-73804709D01*
X86667917Y-73617443D01*
X86667933Y-73617432D01*
X86957129Y-73397592D01*
X86973310Y-73382264D01*
X86973310Y-73382263D01*
X85729380Y-72138333D01*
X85920070Y-71975470D01*
X86082933Y-71784780D01*
X87324228Y-73026075D01*
X87324229Y-73026075D01*
X87456027Y-72870911D01*
X87456038Y-72870897D01*
X87659881Y-72570251D01*
X87659883Y-72570247D01*
X87830038Y-72249302D01*
X87830047Y-72249284D01*
X87964502Y-71911827D01*
X87964504Y-71911820D01*
X88061680Y-71561822D01*
X88061682Y-71561814D01*
X88120453Y-71203328D01*
X88140120Y-70840602D01*
X88140120Y-70840597D01*
X88120453Y-70477871D01*
X88061682Y-70119385D01*
X88061680Y-70119377D01*
X87964504Y-69769379D01*
X87964502Y-69769372D01*
X87830047Y-69431915D01*
X87830038Y-69431897D01*
X87659883Y-69110952D01*
X87659881Y-69110948D01*
X87456029Y-68810290D01*
X87456022Y-68810280D01*
X87324229Y-68655123D01*
X87324228Y-68655123D01*
X86082932Y-69896418D01*
X85920070Y-69705730D01*
X85729380Y-69542866D01*
X86973310Y-68298936D01*
X86973310Y-68298934D01*
X86957129Y-68283607D01*
X86957128Y-68283606D01*
X86667933Y-68063767D01*
X86667917Y-68063756D01*
X86356677Y-67876490D01*
X86356664Y-67876483D01*
X86026994Y-67723960D01*
X86026989Y-67723959D01*
X85682742Y-67607968D01*
X85675621Y-67606401D01*
X85614381Y-67572764D01*
X85581048Y-67511359D01*
X85586205Y-67441679D01*
X85628214Y-67385849D01*
X85693739Y-67361594D01*
X85702279Y-67361300D01*
X193367521Y-67361300D01*
X193434560Y-67380985D01*
G37*
%TD.AperFunction*%
%TA.AperFunction,Conductor*%
G36*
X196645828Y-104445875D02*
G01*
X196645829Y-104445875D01*
X196777627Y-104290711D01*
X196777638Y-104290697D01*
X196981481Y-103990051D01*
X196981483Y-103990047D01*
X197151638Y-103669102D01*
X197151647Y-103669084D01*
X197219907Y-103497765D01*
X197263007Y-103442773D01*
X197328996Y-103419812D01*
X197396924Y-103436173D01*
X197445222Y-103486661D01*
X197459100Y-103543662D01*
X197459100Y-105463958D01*
X197439415Y-105530997D01*
X197386611Y-105576752D01*
X197335209Y-105587958D01*
X195452578Y-105589608D01*
X195385521Y-105569982D01*
X195339720Y-105517218D01*
X195329716Y-105448069D01*
X195358685Y-105384487D01*
X195400403Y-105353069D01*
X195678264Y-105224516D01*
X195678277Y-105224509D01*
X195989517Y-105037243D01*
X195989533Y-105037232D01*
X196278729Y-104817392D01*
X196294910Y-104802064D01*
X196294910Y-104802063D01*
X195050980Y-103558133D01*
X195241670Y-103395270D01*
X195404533Y-103204580D01*
X196645828Y-104445875D01*
G37*
%TD.AperFunction*%
%TA.AperFunction,Conductor*%
G36*
X83935160Y-67380985D02*
G01*
X83980915Y-67433789D01*
X83990859Y-67502947D01*
X83961834Y-67566503D01*
X83903056Y-67604277D01*
X83894779Y-67606401D01*
X83887657Y-67607968D01*
X83543410Y-67723959D01*
X83543405Y-67723960D01*
X83213735Y-67876483D01*
X83213722Y-67876490D01*
X82902482Y-68063756D01*
X82902466Y-68063767D01*
X82613275Y-68283602D01*
X82597088Y-68298935D01*
X82597087Y-68298935D01*
X83841019Y-69542866D01*
X83650330Y-69705730D01*
X83487466Y-69896418D01*
X82246170Y-68655122D01*
X82246169Y-68655123D01*
X82114377Y-68810280D01*
X82114370Y-68810290D01*
X81910518Y-69110948D01*
X81910515Y-69110952D01*
X81818931Y-69283697D01*
X81770137Y-69333707D01*
X81702052Y-69349398D01*
X81636292Y-69325788D01*
X81593736Y-69270374D01*
X81585376Y-69225701D01*
X81584224Y-67485380D01*
X81603864Y-67418330D01*
X81656638Y-67372540D01*
X81708224Y-67361300D01*
X83868121Y-67361300D01*
X83935160Y-67380985D01*
G37*
%TD.AperFunction*%
%TA.AperFunction,Conductor*%
G36*
X197402139Y-67380985D02*
G01*
X197447894Y-67433789D01*
X197459100Y-67485300D01*
X197459100Y-69177850D01*
X197439415Y-69244889D01*
X197386611Y-69290644D01*
X197317453Y-69300588D01*
X197253897Y-69271563D01*
X197225545Y-69235933D01*
X197159284Y-69110952D01*
X197159281Y-69110948D01*
X196955429Y-68810290D01*
X196955422Y-68810280D01*
X196823629Y-68655123D01*
X196823628Y-68655123D01*
X195582332Y-69896418D01*
X195419470Y-69705730D01*
X195228780Y-69542866D01*
X196472710Y-68298936D01*
X196472710Y-68298934D01*
X196456529Y-68283607D01*
X196456528Y-68283606D01*
X196167333Y-68063767D01*
X196167317Y-68063756D01*
X195856077Y-67876490D01*
X195856064Y-67876483D01*
X195526394Y-67723960D01*
X195526389Y-67723959D01*
X195182142Y-67607968D01*
X195175021Y-67606401D01*
X195113781Y-67572764D01*
X195080448Y-67511359D01*
X195085605Y-67441679D01*
X195127614Y-67385849D01*
X195193139Y-67361594D01*
X195201679Y-67361300D01*
X197335100Y-67361300D01*
X197402139Y-67380985D01*
G37*
%TD.AperFunction*%
%TD*%
M02*
